<?xml version="1.0" encoding="UTF-8" standalone="no"?>
<!-- Created with Inkscape (http://www.inkscape.org/) -->

<svg
   xmlns:dc="http://purl.org/dc/elements/1.1/"
   xmlns:cc="http://creativecommons.org/ns#"
   xmlns:rdf="http://www.w3.org/1999/02/22-rdf-syntax-ns#"
   xmlns:svg="http://www.w3.org/2000/svg"
   xmlns="http://www.w3.org/2000/svg"
   xmlns:sodipodi="http://sodipodi.sourceforge.net/DTD/sodipodi-0.dtd"
   xmlns:inkscape="http://www.inkscape.org/namespaces/inkscape"
   inkscape:version="0.91 r13725"
   version="1.1"
   id="svg2"
   viewBox="0 0 354.33071 354.33071"
   height="100mm"
   width="100mm"
   sodipodi:docname="01_01.svg">
  <sodipodi:namedview
     inkscape:window-maximized="1"
     inkscape:window-y="-8"
     inkscape:window-x="-8"
     inkscape:window-height="1018"
     inkscape:window-width="1920"
     inkscape:showpageshadow="false"
     inkscape:guide-bbox="true"
     showguides="true"
     borderlayer="true"
     showgrid="true"
     inkscape:current-layer="layer3"
     inkscape:document-units="mm"
     inkscape:cy="188.95295"
     inkscape:cx="104.93215"
     inkscape:zoom="2.0000001"
     inkscape:pageshadow="2"
     inkscape:pageopacity="0.0"
     borderopacity="1.0"
     bordercolor="#666666"
     pagecolor="#ffffff"
     id="base">
    <inkscape:grid
       empspacing="5"
       spacingy="3.543307"
       spacingx="3.543307"
       units="mm"
       id="grid3336"
       type="xygrid" />
    <sodipodi:guide
       id="guide3352"
       orientation="0,1"
       position="212.59842,177.16535" />
    <sodipodi:guide
       id="guide4202"
       orientation="1,0"
       position="265.74802,177.16535" />
    <sodipodi:guide
       id="guide4204"
       orientation="1,0"
       position="88.582675,177.16535" />
  </sodipodi:namedview>
  <defs
     id="defs4" />
  <metadata
     id="metadata7">
    <rdf:RDF>
      <cc:Work
         rdf:about="">
        <dc:format>image/svg+xml</dc:format>
        <dc:type
           rdf:resource="http://purl.org/dc/dcmitype/StillImage" />
        <dc:title />
      </cc:Work>
    </rdf:RDF>
  </metadata>
  <g
     transform="translate(0,-698.0315)"
     id="layer1"
     inkscape:groupmode="layer"
     inkscape:label="Layer 1" />
  <g
     sodipodi:insensitive="true"
     style="display:inline"
     inkscape:label="guides"
     id="layer2"
     inkscape:groupmode="layer">
    <circle
       r="88.58268"
       cy="177.15411"
       cx="88.58268"
       id="path3350"
       style="fill:none;fill-opacity:1;fill-rule:evenodd;stroke:#000000;stroke-width:0.17716534;stroke-linecap:butt;stroke-linejoin:miter;stroke-miterlimit:4;stroke-dasharray:none;stroke-opacity:1" />
    <circle
       style="fill:none;fill-opacity:1;fill-rule:evenodd;stroke:#000000;stroke-width:0.17716534;stroke-linecap:butt;stroke-linejoin:miter;stroke-miterlimit:4;stroke-dasharray:none;stroke-opacity:1"
       id="circle3373"
       cx="265.68219"
       cy="177.15411"
       r="88.58268" />
    <rect
       y="63.835781"
       x="181.39482"
       height="14.173228"
       width="63.779526"
       id="rect4196"
       style="fill:none;fill-opacity:1;stroke:#000000;stroke-width:0.17716534;stroke-miterlimit:4;stroke-dasharray:none;stroke-opacity:1" />
    <circle
       r="28.346457"
       cy="72.708107"
       cx="213.66985"
       id="path4198"
       style="fill:none;fill-opacity:1;stroke:#000000;stroke-width:0.17716534;stroke-miterlimit:4;stroke-dasharray:none;stroke-opacity:1" />
    <circle
       r="35.433071"
       cy="53.149616"
       cx="124.01575"
       id="path4208"
       style="fill:none;fill-opacity:1;stroke:#000000;stroke-width:0.17716534;stroke-miterlimit:4;stroke-dasharray:none;stroke-opacity:1" />
    <circle
       r="7.0866141"
       cy="53.149616"
       cx="124.01575"
       id="path4210"
       style="fill:none;fill-opacity:1;stroke:#000000;stroke-width:0.17716534;stroke-miterlimit:4;stroke-dasharray:none;stroke-opacity:1" />
    <circle
       r="3.5433071"
       cy="35.433083"
       cx="124.01575"
       id="path4212"
       style="fill:none;fill-opacity:1;stroke:#000000;stroke-width:0.17716534;stroke-miterlimit:4;stroke-dasharray:none;stroke-opacity:1" />
    <rect
       y="28.346466"
       x="116.92913"
       height="49.6063"
       width="14.173228"
       id="rect4214"
       style="fill:none;fill-opacity:1;stroke:#000000;stroke-width:0.17716534;stroke-miterlimit:4;stroke-dasharray:none;stroke-opacity:1" />
  </g>
  <g
     inkscape:label="Gears"
     id="layer3"
     inkscape:groupmode="layer">
    <circle
       r="17.716536"
       cy="7.2165456"
       cx="-243.35039"
       id="path4279"
       style="fill:none;fill-opacity:1;stroke:#000000;stroke-width:0.17716534;stroke-miterlimit:4;stroke-dasharray:none;stroke-opacity:1" />
    <g
       id="g20404"
       transform="matrix(0.78463355,0,0,0.78463355,-173.22977,46.66535)"
       inkscape:label="Gear16"
       info="N:16; Pitch:17.8106042858; Pressure Angle: 21.0">
      <path
         id="path20406"
         d="m 42.0597,-4.8805 0.4591,-0.0079 0.4633,0.0299 0.4659,0.0552 0.468,0.0763 0.4695,0.0951 0.4709,0.1122 0.4718,0.1283 0.4726,0.1435 0.4731,0.1581 0.4735,0.1722 0.4735,0.1857 0.4735,0.199 0.4733,0.212 0.4728,0.2247 0.4722,0.2371 0.4715,0.2494 0.4705,0.2615 0.4694,0.2734 0.4681,0.2851 0.0138,0.4473 0.0098,0.4474 0.0059,0.4475 L 51.0236,0 51.0217,0.4475 51.0158,0.895 51.006,1.3424 50.9922,1.7897 50.5241,2.0748 50.0547,2.3482 49.5842,2.6097 49.1127,2.8591 48.6405,3.0962 48.1677,3.3209 47.6944,3.5329 47.2209,3.7319 46.7474,3.9176 46.2739,4.0898 45.8008,4.2479 45.3282,4.3914 44.8564,4.5197 44.3855,4.6319 43.916,4.727 43.448,4.8033 42.9821,4.8585 42.5188,4.8884 42.0597,4.8805 39.4205,4.5742 39.3201,5.3698 39.2035,6.1632 39.071,6.9541 l -0.1485,0.7881 -0.1644,0.7849 -0.1802,0.7814 -0.196,0.7776 -0.2116,0.7735 2.5555,0.727 0.4271,0.1683 0.4166,0.2049 0.4094,0.2294 0.4031,0.2496 0.3974,0.2675 0.3921,0.2839 0.3868,0.2991 0.3817,0.3134 0.3766,0.3271 0.3715,0.3402 0.3665,0.3529 0.3613,0.365 0.3561,0.377 0.3509,0.3885 0.3455,0.3998 0.3401,0.4108 0.3346,0.4216 0.3291,0.4322 0.3233,0.4427 -0.1584,0.4185 -0.1622,0.4171 -0.1658,0.4156 -0.1694,0.4142 -0.1731,0.4127 -0.1767,0.4111 -0.1802,0.4096 -0.1839,0.408 -0.5416,0.0843 -0.5383,0.073 -0.5348,0.0615 -0.531,0.05 -0.527,0.0384 -0.5228,0.0266 -0.5184,0.0147 -0.5136,0.0027 -0.5086,-0.0096 -0.5033,-0.0222 -0.4976,-0.035 -0.4915,-0.0482 -0.485,-0.0621 -0.478,-0.0765 -0.4702,-0.0918 -0.4615,-0.1086 -0.4516,-0.1273 -0.4395,-0.1497 -0.4211,-0.183 -2.321,-1.2929 -0.3973,0.6966 -0.4113,0.6884 -0.4251,0.68 -0.4388,0.6712 -0.4522,0.6623 -0.4656,0.6529 -0.4786,0.6435 -0.4915,0.6336 2.0827,1.6496 0.3302,0.319 0.3065,0.3487 0.2904,0.3685 0.277,0.3849 0.2648,0.3993 0.2535,0.4123 0.243,0.4243 0.2326,0.4357 0.2228,0.4463 0.2131,0.4565 0.2035,0.4662 0.1941,0.4755 0.1847,0.4846 0.1755,0.4932 0.1662,0.5016 0.1571,0.5097 0.1478,0.5176 0.1386,0.5252 0.1293,0.5327 -0.3065,0.326 -0.3095,0.3233 -0.3122,0.3205 -0.3151,0.3178 -0.3178,0.3151 -0.3205,0.3122 -0.3233,0.3095 -0.326,0.3065 -0.5327,-0.1293 -0.5252,-0.1386 -0.5176,-0.1478 -0.5097,-0.1571 -0.5016,-0.1662 -0.4932,-0.1755 -0.4846,-0.1847 -0.4755,-0.1941 -0.4662,-0.2035 -0.4565,-0.2131 -0.4463,-0.2228 -0.4357,-0.2326 -0.4243,-0.243 -0.4123,-0.2535 -0.3993,-0.2648 -0.3849,-0.277 -0.3685,-0.2904 -0.3487,-0.3065 -0.319,-0.3302 -1.6496,-2.0827 -0.6336,0.4915 -0.6435,0.4786 -0.6529,0.4656 -0.6623,0.4522 -0.6712,0.4388 -0.68,0.4251 -0.6884,0.4113 -0.6966,0.3973 1.2929,2.321 0.183,0.4211 0.1497,0.4395 0.1273,0.4516 0.1086,0.4615 0.0918,0.4702 0.0765,0.478 0.0621,0.485 0.0482,0.4915 0.035,0.4976 0.0222,0.5033 0.0096,0.5086 -0.0027,0.5136 -0.0147,0.5184 -0.0266,0.5228 -0.0384,0.527 -0.05,0.531 -0.0615,0.5348 -0.073,0.5383 -0.0843,0.5416 -0.408,0.1839 -0.4096,0.1802 -0.4111,0.1767 -0.4127,0.1731 -0.4142,0.1694 -0.4156,0.1658 -0.4171,0.1622 -0.4185,0.1584 L 17.4178,47.4722 16.9856,47.1431 16.564,46.8085 16.1532,46.4684 15.7534,46.1229 15.3649,45.772 14.9879,45.4159 14.6229,45.0546 14.27,44.6881 13.9298,44.3166 13.6027,43.94 13.2893,43.5583 12.9902,43.1715 12.7063,42.7794 12.4388,42.382 12.1892,41.9789 11.9598,41.5695 11.7549,41.1529 11.5866,40.7258 10.8596,38.1703 10.0861,38.3819 9.3085,38.5779 8.5271,38.7581 7.7422,38.9225 6.9541,39.071 6.1632,39.2035 5.3698,39.3201 4.5742,39.4205 4.8805,42.0597 4.8884,42.5188 4.8585,42.9821 4.8033,43.448 4.727,43.916 4.6319,44.3855 4.5197,44.8564 4.3914,45.3282 4.2479,45.8008 4.0898,46.2739 3.9176,46.7474 3.7319,47.2209 3.5329,47.6944 3.3209,48.1677 3.0962,48.6405 2.8591,49.1127 2.6097,49.5842 2.3482,50.0547 2.0748,50.5241 1.7897,50.9922 1.3424,51.006 0.895,51.0158 0.4475,51.0217 0,51.0236 -0.4475,51.0217 -0.895,51.0158 -1.3424,51.006 l -0.4473,-0.0138 -0.2851,-0.4681 -0.2734,-0.4694 -0.2615,-0.4705 -0.2494,-0.4715 -0.2371,-0.4722 -0.2247,-0.4728 -0.212,-0.4733 -0.199,-0.4735 -0.1857,-0.4735 -0.1722,-0.4735 -0.1581,-0.4731 -0.1435,-0.4726 -0.1283,-0.4718 -0.1122,-0.4709 -0.0951,-0.4695 -0.0763,-0.468 -0.0552,-0.4659 -0.0299,-0.4633 0.0079,-0.4591 0.3063,-2.6392 -0.7956,-0.1004 -0.7934,-0.1166 -0.7909,-0.1325 -0.7881,-0.1485 -0.7849,-0.1644 -0.7814,-0.1802 -0.7776,-0.196 -0.7735,-0.2116 -0.727,2.5555 -0.1683,0.4271 -0.2049,0.4166 -0.2294,0.4094 -0.2496,0.4031 -0.2675,0.3974 -0.2839,0.3921 -0.2991,0.3868 -0.3134,0.3817 -0.3271,0.3766 -0.3402,0.3715 -0.3529,0.3665 -0.365,0.3613 -0.377,0.3561 -0.3885,0.3509 -0.3998,0.3455 -0.4108,0.3401 -0.4216,0.3346 -0.4322,0.3291 -0.4427,0.3233 -0.4185,-0.1584 -0.4171,-0.1622 -0.4156,-0.1658 -0.4142,-0.1694 -0.4127,-0.1731 -0.4111,-0.1767 -0.4096,-0.1802 -0.408,-0.1839 -0.0843,-0.5416 -0.073,-0.5383 -0.0615,-0.5348 -0.05,-0.531 -0.0384,-0.527 -0.0266,-0.5228 -0.0147,-0.5184 -0.0027,-0.5136 0.0096,-0.5086 0.0222,-0.5033 0.035,-0.4976 0.0482,-0.4915 0.0621,-0.485 0.0765,-0.478 0.0918,-0.4702 0.1086,-0.4615 0.1273,-0.4516 0.1497,-0.4395 0.183,-0.4211 1.2929,-2.321 -0.6966,-0.3973 -0.6884,-0.4113 -0.68,-0.4251 -0.6712,-0.4388 -0.6623,-0.4522 -0.6529,-0.4656 -0.6435,-0.4786 -0.6336,-0.4915 -1.6496,2.0827 -0.319,0.3302 -0.3487,0.3065 -0.3685,0.2904 -0.3849,0.277 -0.3993,0.2648 -0.4123,0.2535 -0.4243,0.243 -0.4357,0.2326 -0.4463,0.2228 -0.4565,0.2131 -0.4662,0.2035 -0.4755,0.1941 -0.4846,0.1847 -0.4932,0.1755 -0.5016,0.1662 -0.5097,0.1571 -0.5176,0.1478 -0.5252,0.1386 -0.5327,0.1293 -0.326,-0.3065 -0.3233,-0.3095 -0.3205,-0.3122 -0.3178,-0.3151 -0.3151,-0.3178 -0.3122,-0.3205 -0.3095,-0.3233 -0.3065,-0.326 0.1293,-0.5327 0.1386,-0.5252 0.1478,-0.5176 0.1571,-0.5097 0.1662,-0.5016 0.1755,-0.4932 0.1847,-0.4846 0.1941,-0.4755 0.2035,-0.4662 0.2131,-0.4565 0.2228,-0.4463 0.2326,-0.4357 0.243,-0.4243 0.2535,-0.4123 0.2648,-0.3993 0.277,-0.3849 0.2904,-0.3685 0.3065,-0.3487 0.3302,-0.319 2.0827,-1.6496 -0.4915,-0.6336 -0.4786,-0.6435 -0.4656,-0.6529 -0.4522,-0.6623 -0.4388,-0.6712 -0.4251,-0.68 -0.4113,-0.6884 -0.3973,-0.6966 -2.321,1.2929 -0.4211,0.183 -0.4395,0.1497 -0.4516,0.1273 -0.4615,0.1086 -0.4702,0.0918 -0.478,0.0765 -0.485,0.0621 -0.4915,0.0482 -0.4976,0.035 -0.5033,0.0222 -0.5086,0.0096 -0.5136,-0.0027 -0.5184,-0.0147 -0.5228,-0.0266 -0.527,-0.0384 -0.531,-0.05 -0.5348,-0.0615 -0.5383,-0.073 -0.5416,-0.0843 -0.1839,-0.408 -0.1802,-0.4096 -0.1767,-0.4111 -0.1731,-0.4127 -0.1694,-0.4142 -0.1658,-0.4156 -0.1622,-0.4171 -0.1584,-0.4185 0.3233,-0.4427 0.3291,-0.4322 0.3346,-0.4216 0.3401,-0.4108 0.3455,-0.3998 0.3509,-0.3885 0.3561,-0.377 0.3613,-0.365 0.3665,-0.3529 0.3715,-0.3402 0.3766,-0.3271 0.3817,-0.3134 0.3868,-0.2991 0.3921,-0.2839 0.3974,-0.2675 0.4031,-0.2496 0.4094,-0.2294 0.4166,-0.2049 0.4271,-0.1683 2.5555,-0.727 -0.2116,-0.7735 -0.196,-0.7776 -0.1802,-0.7814 -0.1644,-0.7849 -0.1485,-0.7881 -0.1325,-0.7909 -0.1166,-0.7934 -0.1004,-0.7956 -2.6392,0.3063 -0.4591,0.0079 L -42.9821,4.8585 -43.448,4.8033 -43.916,4.727 -44.3855,4.6319 -44.8564,4.5197 -45.3282,4.3914 -45.8008,4.2479 -46.2739,4.0898 -46.7474,3.9176 -47.2209,3.7319 -47.6944,3.5329 -48.1677,3.3209 -48.6405,3.0962 -49.1127,2.8591 -49.5842,2.6097 -50.0547,2.3482 -50.5241,2.0748 -50.9922,1.7897 -51.006,1.3424 -51.0158,0.895 -51.0217,0.4475 -51.0236,0 l 0.0019,-0.4475 0.0059,-0.4475 0.0098,-0.4474 0.0138,-0.4473 0.4681,-0.2851 0.4694,-0.2734 0.4705,-0.2615 0.4715,-0.2494 0.4722,-0.2371 0.4728,-0.2247 0.4733,-0.212 0.4735,-0.199 0.4735,-0.1857 0.4735,-0.1722 0.4731,-0.1581 0.4726,-0.1435 0.4718,-0.1283 0.4709,-0.1122 0.4695,-0.0951 0.468,-0.0763 0.4659,-0.0552 0.4633,-0.0299 0.4591,0.0079 2.6392,0.3063 0.1004,-0.7956 0.1166,-0.7934 0.1325,-0.7909 0.1485,-0.7881 0.1644,-0.7849 0.1802,-0.7814 0.196,-0.7776 0.2116,-0.7735 -2.5555,-0.727 -0.4271,-0.1683 -0.4166,-0.2049 -0.4094,-0.2294 -0.4031,-0.2496 -0.3974,-0.2675 -0.3921,-0.2839 -0.3868,-0.2991 -0.3817,-0.3134 -0.3766,-0.3271 -0.3715,-0.3402 -0.3665,-0.3529 -0.3613,-0.365 -0.3561,-0.377 -0.3509,-0.3885 -0.3455,-0.3998 -0.3401,-0.4108 -0.3346,-0.4216 -0.3291,-0.4322 -0.3233,-0.4427 0.1584,-0.4185 0.1622,-0.4171 0.1658,-0.4156 0.1694,-0.4142 0.1731,-0.4127 0.1767,-0.4111 0.1802,-0.4096 0.1839,-0.408 0.5416,-0.0843 0.5383,-0.073 0.5348,-0.0615 0.531,-0.05 0.527,-0.0384 0.5228,-0.0266 0.5184,-0.0147 0.5136,-0.0027 0.5086,0.0096 0.5033,0.0222 0.4976,0.035 0.4915,0.0482 0.485,0.0621 0.478,0.0765 0.4702,0.0918 0.4615,0.1086 0.4516,0.1273 0.4395,0.1497 0.4211,0.183 2.321,1.2929 0.3973,-0.6966 0.4113,-0.6884 0.4251,-0.68 0.4388,-0.6712 0.4522,-0.6623 0.4656,-0.6529 0.4786,-0.6435 0.4915,-0.6336 -2.0827,-1.6496 -0.3302,-0.319 -0.3065,-0.3487 -0.2904,-0.3685 -0.277,-0.3849 -0.2648,-0.3993 -0.2535,-0.4123 -0.243,-0.4243 -0.2326,-0.4357 -0.2228,-0.4463 -0.2131,-0.4565 -0.2035,-0.4662 -0.1941,-0.4755 -0.1847,-0.4846 -0.1755,-0.4932 -0.1662,-0.5016 -0.1571,-0.5097 -0.1478,-0.5176 -0.1386,-0.5252 -0.1293,-0.5327 0.3065,-0.326 0.3095,-0.3233 0.3122,-0.3205 0.3151,-0.3178 0.3178,-0.3151 0.3205,-0.3122 0.3233,-0.3095 0.326,-0.3065 0.5327,0.1293 0.5252,0.1386 0.5176,0.1478 0.5097,0.1571 0.5016,0.1662 0.4932,0.1755 0.4846,0.1847 0.4755,0.1941 0.4662,0.2035 0.4565,0.2131 0.4463,0.2228 0.4357,0.2326 0.4243,0.243 0.4123,0.2535 0.3993,0.2648 0.3849,0.277 0.3685,0.2904 0.3487,0.3065 0.319,0.3302 1.6496,2.0827 0.6336,-0.4915 0.6435,-0.4786 0.6529,-0.4656 0.6623,-0.4522 0.6712,-0.4388 0.68,-0.4251 0.6884,-0.4113 0.6966,-0.3973 -1.2929,-2.321 -0.183,-0.4211 -0.1497,-0.4395 -0.1273,-0.4516 -0.1086,-0.4615 -0.0918,-0.4702 -0.0765,-0.478 -0.0621,-0.485 -0.0482,-0.4915 -0.035,-0.4976 -0.0222,-0.5033 -0.0096,-0.5086 0.0027,-0.5136 0.0147,-0.5184 0.0266,-0.5228 0.0384,-0.527 0.05,-0.531 0.0615,-0.5348 0.073,-0.5383 0.0843,-0.5416 0.408,-0.1839 0.4096,-0.1802 0.4111,-0.1767 0.4127,-0.1731 0.4142,-0.1694 0.4156,-0.1658 0.4171,-0.1622 0.4185,-0.1584 0.4427,0.3233 0.4322,0.3291 0.4216,0.3346 0.4108,0.3401 0.3998,0.3455 0.3885,0.3509 0.377,0.3561 0.365,0.3613 0.3529,0.3665 0.3402,0.3715 0.3271,0.3766 0.3134,0.3817 0.2991,0.3868 0.2839,0.3921 0.2675,0.3974 0.2496,0.4031 0.2294,0.4094 0.2049,0.4166 0.1683,0.4271 0.727,2.5555 0.7735,-0.2116 0.7776,-0.196 0.7814,-0.1802 0.7849,-0.1644 0.7881,-0.1485 0.7909,-0.1325 0.7934,-0.1166 0.7956,-0.1004 -0.3063,-2.6392 -0.0079,-0.4591 0.0299,-0.4633 0.0552,-0.4659 0.0763,-0.468 0.0951,-0.4695 0.1122,-0.4709 0.1283,-0.4718 0.1435,-0.4726 0.1581,-0.4731 0.1722,-0.4735 0.1857,-0.4735 0.199,-0.4735 0.212,-0.4733 0.2247,-0.4728 0.2371,-0.4722 0.2494,-0.4715 0.2615,-0.4705 0.2734,-0.4694 0.2851,-0.4681 0.4473,-0.0138 0.4474,-0.0098 0.4475,-0.0059 0.4475,-0.0019 0.4475,0.0019 0.4475,0.0059 0.4474,0.0098 0.4473,0.0138 0.2851,0.4681 0.2734,0.4694 0.2615,0.4705 0.2494,0.4715 0.2371,0.4722 0.2247,0.4728 0.212,0.4733 0.199,0.4735 0.1857,0.4735 0.1722,0.4735 0.1581,0.4731 0.1435,0.4726 0.1283,0.4718 0.1122,0.4709 0.0951,0.4695 0.0763,0.468 0.0552,0.4659 0.0299,0.4633 -0.0079,0.4591 -0.3063,2.6392 0.7956,0.1004 0.7934,0.1166 0.7909,0.1325 0.7881,0.1485 0.7849,0.1644 0.7814,0.1802 0.7776,0.196 0.7735,0.2116 0.727,-2.5555 0.1683,-0.4271 0.2049,-0.4166 0.2294,-0.4094 0.2496,-0.4031 0.2675,-0.3974 0.2839,-0.3921 0.2991,-0.3868 0.3134,-0.3817 0.3271,-0.3766 0.3402,-0.3715 0.3529,-0.3665 0.365,-0.3613 0.377,-0.3561 0.3885,-0.3509 0.3998,-0.3455 0.4108,-0.3401 0.4216,-0.3346 0.4322,-0.3291 0.4427,-0.3233 0.4185,0.1584 0.4171,0.1622 0.4156,0.1658 0.4142,0.1694 0.4127,0.1731 0.4111,0.1767 0.4096,0.1802 0.408,0.1839 0.0843,0.5416 0.073,0.5383 0.0615,0.5348 0.05,0.531 0.0384,0.527 0.0266,0.5228 0.0147,0.5184 0.0027,0.5136 -0.0096,0.5086 -0.0222,0.5033 -0.035,0.4976 -0.0482,0.4915 -0.0621,0.485 -0.0765,0.478 -0.0918,0.4702 -0.1086,0.4615 -0.1273,0.4516 -0.1497,0.4395 -0.183,0.4211 -1.2929,2.321 0.6966,0.3973 0.6884,0.4113 0.68,0.4251 0.6712,0.4388 0.6623,0.4522 0.6529,0.4656 0.6435,0.4786 0.6336,0.4915 1.6496,-2.0827 0.319,-0.3302 0.3487,-0.3065 0.3685,-0.2904 0.3849,-0.277 0.3993,-0.2648 0.4123,-0.2535 0.4243,-0.243 0.4357,-0.2326 0.4463,-0.2228 0.4565,-0.2131 0.4662,-0.2035 0.4755,-0.1941 0.4846,-0.1847 0.4932,-0.1755 0.5016,-0.1662 0.5097,-0.1571 0.5176,-0.1478 0.5252,-0.1386 0.5327,-0.1293 0.326,0.3065 0.3233,0.3095 0.3205,0.3122 0.3178,0.3151 0.3151,0.3178 0.3122,0.3205 0.3095,0.3233 0.3065,0.326 -0.1293,0.5327 -0.1386,0.5252 -0.1478,0.5176 -0.1571,0.5097 -0.1662,0.5016 -0.1755,0.4932 -0.1847,0.4846 -0.1941,0.4755 -0.2035,0.4662 -0.2131,0.4565 -0.2228,0.4463 -0.2326,0.4357 -0.243,0.4243 -0.2535,0.4123 -0.2648,0.3993 -0.277,0.3849 -0.2904,0.3685 -0.3065,0.3487 -0.3302,0.319 -2.0827,1.6496 0.4915,0.6336 0.4786,0.6435 0.4656,0.6529 0.4522,0.6623 0.4388,0.6712 0.4251,0.68 0.4113,0.6884 0.3973,0.6966 2.321,-1.2929 0.4211,-0.183 0.4395,-0.1497 0.4516,-0.1273 0.4615,-0.1086 0.4702,-0.0918 0.478,-0.0765 0.485,-0.0621 0.4915,-0.0482 0.4976,-0.035 0.5033,-0.0222 0.5086,-0.0096 0.5136,0.0027 0.5184,0.0147 0.5228,0.0266 0.527,0.0384 0.531,0.05 0.5348,0.0615 0.5383,0.073 0.5416,0.0843 0.1839,0.408 0.1802,0.4096 0.1767,0.4111 0.1731,0.4127 0.1694,0.4142 0.1658,0.4156 0.1622,0.4171 0.1584,0.4185 -0.3233,0.4427 -0.3291,0.4322 -0.3346,0.4216 -0.3401,0.4108 -0.3455,0.3998 -0.3509,0.3885 -0.3561,0.377 -0.3613,0.365 -0.3665,0.3529 -0.3715,0.3402 -0.3766,0.3271 -0.3817,0.3134 -0.3868,0.2991 -0.3921,0.2839 -0.3974,0.2675 -0.4031,0.2496 -0.4094,0.2294 -0.4166,0.2049 -0.4271,0.1683 -2.5555,0.727 0.2116,0.7735 0.196,0.7776 0.1802,0.7814 0.1644,0.7849 0.1485,0.7881 0.1325,0.7909 0.1166,0.7934 0.1004,0.7956 z M 0,17.716535 a 17.716535,17.716535 0 0 0 0,-35.43307 17.716535,17.716535 0 0 0 0,35.43307"
         style="fill:none;stroke:#000000;stroke-width:0.60000002"
         inkscape:connector-curvature="0" />
    </g>
    <g
       id="g4165"
       transform="translate(-86.999996,-3.5000002)">
      <g
         id="g20356"
         transform="matrix(0.78463355,0,0,0.78463355,177.07957,177.16535)"
         inkscape:transform-center-x="-0.090257904"
         inkscape:label="Gear39"
         info="N:39; Pitch:17.8106042858; Pressure Angle: 21.0">
        <path
           inkscape:connector-curvature="0"
           id="path20358"
           d="m 104.7193,-5.8378 0.6023,0.0841 0.6031,0.1015 0.6038,0.1173 0.6043,0.1318 0.6047,0.1454 0.6051,0.1583 0.6052,0.1707 0.6055,0.1824 0.6055,0.1938 0.6055,0.2048 0.6054,0.2156 0.6053,0.2261 0.6051,0.2362 0.6048,0.2463 0.6044,0.2561 0.6041,0.2658 0.6036,0.2752 0.603,0.2846 0.6024,0.2938 0.008,0.512 0.006,0.512 0.003,0.512 0.001,0.512 -0.001,0.512 -0.003,0.512 -0.006,0.512 -0.008,0.512 -0.6024,0.2938 -0.603,0.2846 -0.6036,0.2752 -0.6041,0.2658 -0.6044,0.2561 -0.6048,0.2463 -0.6051,0.2362 -0.6053,0.2261 -0.6054,0.2156 -0.6055,0.2048 -0.6055,0.1938 -0.6055,0.1824 -0.6052,0.1707 -0.6051,0.1583 -0.6047,0.1454 -0.6043,0.1318 -0.6038,0.1173 -0.6031,0.1015 -0.6023,0.0841 -0.0383,0.6508 -0.0424,0.6506 -0.0464,0.6503 -0.0504,0.65 -0.0545,0.6497 -0.0585,0.6493 -0.0626,0.6489 -0.0665,0.6486 0.581,0.1795 0.579,0.197 0.5772,0.2126 0.5753,0.2271 0.5735,0.2405 0.5718,0.2533 0.5701,0.2655 0.5683,0.2772 0.5666,0.2885 0.5648,0.2993 0.563,0.3099 0.5612,0.3202 0.5594,0.3303 0.5574,0.3401 0.5556,0.3497 0.5536,0.3592 0.5516,0.3685 0.5495,0.3777 0.5476,0.3867 -0.0744,0.5065 -0.0765,0.5063 -0.0788,0.5059 -0.0811,0.5056 -0.0832,0.5052 -0.0855,0.5048 -0.0877,0.5045 -0.0899,0.504 -0.6417,0.1934 -0.6409,0.1842 -0.6399,0.1748 -0.6389,0.1655 -0.6377,0.1558 -0.6365,0.1461 -0.6351,0.1361 -0.6337,0.126 -0.6322,0.1157 -0.6305,0.1051 -0.6288,0.0941 -0.6268,0.083 -0.6248,0.0713 -0.6226,0.0592 -0.6203,0.0466 -0.6176,0.0331 -0.6147,0.0189 -0.6116,0.0035 -0.608,-0.0137 -0.1422,0.6363 -0.1462,0.6353 -0.1501,0.6345 -0.1541,0.6335 -0.158,0.6325 -0.1619,0.6315 -0.1658,0.6305 -0.1698,0.6295 0.5447,0.2705 0.5399,0.2872 0.5356,0.3025 0.5315,0.3164 0.5275,0.3294 0.5238,0.3418 0.5201,0.3535 0.5165,0.3648 0.5129,0.3755 0.5095,0.3861 0.506,0.3962 0.5026,0.4061 0.4991,0.4157 0.4957,0.4251 0.4922,0.4344 0.4888,0.4433 0.4854,0.4522 0.4819,0.461 0.4784,0.4694 -0.1547,0.4881 -0.1568,0.4875 -0.1589,0.4867 -0.161,0.486 -0.1633,0.4853 -0.1653,0.4846 -0.1675,0.4838 -0.1696,0.4831 -0.6645,0.088 -0.6621,0.079 -0.6597,0.0699 -0.6571,0.0608 -0.6544,0.0515 -0.6517,0.0421 -0.6488,0.0325 -0.6457,0.0228 -0.6425,0.0127 -0.6392,0.0026 -0.6357,-0.0079 -0.6321,-0.0187 -0.6281,-0.0299 -0.6241,-0.0414 -0.6196,-0.0535 -0.615,-0.0663 -0.6098,-0.08 -0.6042,-0.0947 -0.598,-0.111 -0.2424,0.6052 -0.2462,0.6037 -0.2499,0.6021 -0.2537,0.6006 -0.2574,0.599 -0.2612,0.5974 -0.2648,0.5957 -0.2685,0.5941 0.4943,0.3543 0.4868,0.3702 0.4801,0.3844 0.4738,0.3976 0.4679,0.4098 0.4622,0.4213 0.4566,0.4324 0.4513,0.4429 0.4461,0.453 0.441,0.4628 0.4359,0.4722 0.4309,0.4814 0.4259,0.4904 0.4211,0.4992 0.4162,0.5077 0.4114,0.516 0.4065,0.5242 0.4017,0.5323 0.3969,0.5401 -0.231,0.457 -0.2329,0.4559 -0.2349,0.455 -0.237,0.4538 -0.2389,0.4529 -0.241,0.4518 -0.2429,0.4507 -0.2449,0.4496 -0.67,-0.0198 -0.6662,-0.0282 -0.6624,-0.0368 -0.6583,-0.0454 -0.6542,-0.0541 -0.65,-0.063 -0.6456,-0.072 -0.641,-0.0811 -0.6363,-0.0905 -0.6313,-0.1 -0.6262,-0.1098 -0.6209,-0.1198 -0.6152,-0.1302 -0.6093,-0.141 -0.6031,-0.1523 -0.5963,-0.1641 -0.5891,-0.1767 -0.5812,-0.1904 -0.5724,-0.2055 -0.3364,0.5584 -0.3398,0.5564 -0.3433,0.5543 -0.3468,0.5521 -0.3501,0.5499 -0.3536,0.5478 -0.357,0.5455 -0.3603,0.5433 0.431,0.4291 0.4212,0.4434 0.4122,0.4565 0.4039,0.4684 0.3961,0.4796 0.3886,0.49 0.3814,0.5 0.3744,0.5096 0.3676,0.5187 0.361,0.5275 0.3545,0.536 0.3481,0.5444 0.3418,0.5523 0.3356,0.5603 0.3293,0.5678 0.3233,0.5753 0.3172,0.5827 0.3111,0.5898 0.3051,0.5968 -0.3013,0.414 -0.303,0.4127 -0.3049,0.4113 -0.3067,0.4101 -0.3085,0.4086 -0.3103,0.4073 -0.312,0.4059 -0.3139,0.4045 -0.6581,-0.127 -0.6531,-0.1347 -0.6479,-0.1426 -0.6425,-0.1504 -0.6371,-0.1584 -0.6315,-0.1664 -0.6256,-0.1746 -0.6197,-0.1829 -0.6135,-0.1914 -0.6072,-0.2 -0.6005,-0.2088 -0.5935,-0.2179 -0.5864,-0.2272 -0.5788,-0.2369 -0.5708,-0.247 -0.5623,-0.2577 -0.5532,-0.2689 -0.5431,-0.2812 -0.532,-0.2946 -0.4216,0.4973 -0.4247,0.4946 -0.4278,0.492 -0.4308,0.4894 -0.4338,0.4866 -0.4369,0.484 -0.4398,0.4812 -0.4429,0.4785 0.3567,0.4926 0.3445,0.5052 0.3337,0.5167 0.3235,0.5272 0.3141,0.5368 0.3049,0.5461 0.2962,0.5547 0.2879,0.563 0.2796,0.5709 0.2718,0.5786 0.2639,0.586 0.2563,0.5931 0.2487,0.6001 0.2413,0.6068 0.2341,0.6133 0.2267,0.6197 0.2196,0.626 0.2125,0.6321 0.2054,0.638 -0.3637,0.3603 -0.3654,0.3588 -0.3669,0.3571 -0.3684,0.3555 -0.3701,0.3539 -0.3716,0.3522 -0.3731,0.3506 -0.3747,0.3489 -0.6293,-0.2309 -0.623,-0.2378 -0.6166,-0.2446 -0.6101,-0.2515 -0.6034,-0.2586 -0.5966,-0.2655 -0.5895,-0.2728 -0.5824,-0.2799 -0.5748,-0.2873 -0.5672,-0.2948 -0.5592,-0.3024 -0.551,-0.3103 -0.5423,-0.3183 -0.5334,-0.3267 -0.5237,-0.3354 -0.5137,-0.3445 -0.5029,-0.3542 -0.491,-0.3646 -0.4778,-0.3762 -0.4959,0.4232 -0.4986,0.4201 -0.5011,0.417 -0.5037,0.4139 -0.5063,0.4108 -0.5089,0.4076 -0.5113,0.4044 -0.5139,0.4013 0.273,0.5434 0.2591,0.554 0.2465,0.5635 0.2347,0.5722 0.2239,0.5803 0.2134,0.5879 0.2034,0.5951 0.1938,0.6018 0.1845,0.6085 0.1753,0.6147 0.1665,0.6207 0.1579,0.6265 0.1492,0.6322 0.1409,0.6377 0.1326,0.6429 0.1244,0.6481 0.1164,0.6531 0.1083,0.6579 0.1004,0.6628 -0.4168,0.2973 -0.4182,0.2955 -0.4194,0.2936 -0.4207,0.2918 -0.4221,0.2899 -0.4233,0.2881 -0.4245,0.2862 -0.4258,0.2843 -0.5841,-0.3289 -0.5768,-0.3346 -0.5694,-0.3404 -0.5618,-0.3461 -0.5541,-0.352 -0.5463,-0.3578 -0.5382,-0.3638 -0.5298,-0.3697 -0.5214,-0.3758 -0.5125,-0.382 -0.5035,-0.3882 -0.4941,-0.3946 -0.4842,-0.4013 -0.474,-0.408 -0.4632,-0.415 -0.4518,-0.4225 -0.4395,-0.4302 -0.4261,-0.4387 -0.4113,-0.448 -0.5574,0.3382 -0.5595,0.3347 -0.5616,0.3313 -0.5636,0.3277 -0.5656,0.3242 -0.5676,0.3207 -0.5696,0.3172 -0.5716,0.3136 0.1823,0.5802 0.1668,0.5884 0.1529,0.5957 0.14,0.6025 0.1278,0.6087 0.1164,0.6145 0.1053,0.62 0.0947,0.6251 0.0845,0.6302 0.0745,0.6348 0.0648,0.6394 0.0553,0.6438 0.0459,0.6479 0.0368,0.652 0.0277,0.6559 0.0189,0.6596 0.01,0.6633 0.0014,0.6669 -0.0072,0.6702 -0.4591,0.2266 -0.4601,0.2246 -0.4612,0.2225 -0.462,0.2205 -0.4631,0.2185 -0.464,0.2164 -0.465,0.2144 -0.4659,0.2124 -0.5237,-0.4183 -0.5157,-0.4228 -0.5074,-0.4273 -0.499,-0.4318 -0.4905,-0.4364 -0.4818,-0.4408 -0.4729,-0.4454 -0.4637,-0.4499 -0.4543,-0.4546 -0.4446,-0.4592 -0.4347,-0.4639 -0.4244,-0.4688 -0.4136,-0.4737 -0.4024,-0.4788 -0.3906,-0.484 -0.3782,-0.4894 -0.3648,-0.4952 -0.3502,-0.5014 -0.3341,-0.5081 -0.6045,0.2444 -0.6059,0.2406 -0.6074,0.2369 -0.6089,0.2331 -0.6103,0.2293 -0.6117,0.2255 -0.6131,0.2216 -0.6145,0.2179 0.0869,0.6019 0.0703,0.6076 0.0553,0.6125 0.0415,0.6172 0.0286,0.6213 0.0162,0.6252 0.0045,0.6288 -0.0067,0.6323 -0.0177,0.6355 -0.0283,0.6386 -0.0387,0.6415 -0.0487,0.6443 -0.0586,0.6469 -0.0683,0.6494 -0.0778,0.6519 -0.0872,0.6541 -0.0964,0.6563 -0.1056,0.6585 -0.1147,0.6604 -0.4895,0.15 -0.4902,0.1478 -0.4909,0.1457 -0.4914,0.1436 -0.4921,0.1413 -0.4928,0.1392 -0.4933,0.1371 -0.4939,0.1348 -0.4499,-0.4969 -0.4411,-0.5 -0.4323,-0.5032 -0.4234,-0.5063 -0.4141,-0.5093 -0.4048,-0.5124 -0.3953,-0.5155 -0.3855,-0.5185 -0.3756,-0.5215 -0.3652,-0.5246 -0.3546,-0.5277 -0.3437,-0.5308 -0.3322,-0.5339 -0.3204,-0.5371 -0.308,-0.5404 -0.2947,-0.5437 -0.2807,-0.5473 -0.2653,-0.5511 -0.2482,-0.5551 -0.6358,0.1442 -0.6367,0.1403 -0.6376,0.1364 -0.6383,0.1324 -0.6392,0.1284 -0.64,0.1245 -0.6407,0.1204 -0.6415,0.1165 -0.0108,0.6081 -0.0281,0.6109 -0.0436,0.6135 -0.058,0.6158 -0.0715,0.6178 -0.0843,0.6198 -0.0964,0.6214 -0.1081,0.623 -0.1194,0.6244 -0.1304,0.6258 -0.141,0.627 -0.1514,0.6281 -0.1617,0.6292 -0.1715,0.6301 -0.1814,0.6309 -0.191,0.6317 -0.2005,0.6323 -0.2099,0.633 -0.219,0.6334 -0.5073,0.0696 -0.5076,0.0673 -0.5078,0.0651 -0.5082,0.0628 -0.5084,0.0606 -0.5087,0.0583 -0.5089,0.0562 -0.5092,0.0538 -0.3643,-0.5626 -0.3552,-0.5643 -0.346,-0.566 -0.3366,-0.5676 -0.3271,-0.5692 -0.3174,-0.5707 -0.3075,-0.5722 -0.2973,-0.5736 -0.287,-0.5751 -0.2763,-0.5764 -0.2654,-0.5777 -0.2541,-0.579 -0.2423,-0.5803 -0.2301,-0.5816 -0.2173,-0.5827 -0.2037,-0.584 -0.1892,-0.5853 -0.1735,-0.5865 -0.156,-0.5878 -0.6507,0.0405 -0.6509,0.0363 -0.6512,0.0324 -0.6513,0.0282 -0.6515,0.0243 -0.6517,0.0201 -0.6517,0.0162 -0.6519,0.012 -0.1082,0.5985 -0.1257,0.5985 -0.1415,0.5986 -0.1561,0.5985 -0.1696,0.5983 -0.1826,0.5982 -0.1948,0.5979 -0.2067,0.5976 -0.218,0.5972 -0.2291,0.5968 -0.2398,0.5963 -0.2502,0.5957 -0.2604,0.595 -0.2705,0.5944 -0.2802,0.5937 -0.2899,0.5928 -0.2993,0.592 -0.3087,0.5911 -0.3178,0.5902 -0.5119,-0.0128 -0.5118,-0.015 -0.5117,-0.0172 -0.5116,-0.0195 -0.5116,-0.0217 -0.5114,-0.024 -0.5114,-0.0263 -0.5112,-0.0285 -0.2693,-0.6138 -0.2601,-0.614 -0.2507,-0.6141 -0.2413,-0.6143 -0.2315,-0.6143 -0.2217,-0.6142 -0.2118,-0.6141 -0.2014,-0.6139 -0.1911,-0.6136 -0.1803,-0.6133 -0.1692,-0.6128 -0.1579,-0.6123 -0.1461,-0.6116 -0.1339,-0.611 -0.1209,-0.61 -0.1074,-0.6092 -0.0929,-0.608 -0.0771,-0.6067 -0.0598,-0.6052 -0.6487,-0.0645 -0.6484,-0.0685 -0.6479,-0.0725 -0.6474,-0.0766 -0.647,-0.0806 -0.6464,-0.0846 -0.6459,-0.0887 -0.6454,-0.0926 -0.2028,0.5733 -0.2201,0.5706 -0.2357,0.5682 -0.25,0.5657 -0.2634,0.5634 -0.2762,0.5611 -0.2882,0.5589 -0.2999,0.5568 -0.311,0.5545 -0.3218,0.5522 -0.3323,0.5501 -0.3426,0.5479 -0.3525,0.5456 -0.3623,0.5433 -0.3718,0.541 -0.3812,0.5387 -0.3904,0.5363 -0.3995,0.5339 -0.4084,0.5315 -0.5032,-0.0947 -0.5028,-0.0969 -0.5023,-0.0991 -0.5019,-0.1013 -0.5014,-0.1035 -0.501,-0.1057 -0.5005,-0.108 -0.5,-0.1101 -0.1674,-0.649 -0.1583,-0.6478 -0.1489,-0.6464 -0.1396,-0.645 -0.13,-0.6435 -0.1203,-0.6418 -0.1105,-0.6402 -0.1004,-0.6382 -0.0901,-0.6363 -0.0796,-0.6343 -0.0688,-0.632 -0.0576,-0.6297 -0.0461,-0.6272 -0.0341,-0.6245 -0.0215,-0.6215 -0.0083,-0.6185 0.0058,-0.615 0.0212,-0.6113 0.0382,-0.6069 -0.6301,-0.1677 -0.6289,-0.1717 -0.6279,-0.1755 -0.6268,-0.1794 -0.6256,-0.1834 -0.6245,-0.1872 -0.6233,-0.1911 -0.6222,-0.195 -0.2921,0.5334 -0.3088,0.5279 -0.3238,0.523 -0.3375,0.5183 -0.3504,0.5138 -0.3626,0.5096 -0.3742,0.5055 -0.3852,0.5014 -0.396,0.4974 -0.4062,0.4935 -0.4163,0.4896 -0.426,0.4858 -0.4354,0.482 -0.4448,0.4782 -0.4538,0.4743 -0.4627,0.4706 -0.4714,0.4667 -0.4799,0.463 -0.4884,0.4591 -0.4815,-0.1742 -0.4807,-0.1763 -0.4799,-0.1784 -0.4791,-0.1805 -0.4784,-0.1826 -0.4775,-0.1847 -0.4767,-0.1868 -0.4759,-0.189 -0.0611,-0.6674 -0.0523,-0.6648 -0.0433,-0.662 -0.0343,-0.659 -0.0251,-0.656 -0.0158,-0.6528 -0.0064,-0.6496 0.0033,-0.6461 0.0131,-0.6425 0.0232,-0.6388 0.0335,-0.6349 0.0441,-0.6308 0.0551,-0.6264 0.0665,-0.6219 0.0785,-0.617 0.091,-0.6117 0.1045,-0.6062 0.1189,-0.5999 0.135,-0.593 -0.5949,-0.2666 -0.5933,-0.2703 -0.5916,-0.274 -0.5899,-0.2776 -0.5881,-0.2813 -0.5864,-0.285 -0.5846,-0.2886 -0.5828,-0.2922 -0.3739,0.4796 -0.3895,0.4715 -0.4035,0.4643 -0.4163,0.4574 -0.4283,0.451 -0.4396,0.4448 -0.4504,0.4389 -0.4607,0.4331 -0.4706,0.4274 -0.4802,0.422 -0.4894,0.4165 -0.4984,0.4112 -0.5071,0.4059 -0.5157,0.4006 -0.524,0.3954 -0.5322,0.3903 -0.5402,0.3851 -0.548,0.3799 -0.5556,0.3748 -0.4473,-0.2491 -0.4463,-0.2511 -0.4451,-0.2531 -0.4439,-0.255 -0.4429,-0.257 -0.4417,-0.2589 -0.4406,-0.2609 -0.4394,-0.2628 0.0468,-0.6687 0.055,-0.6645 0.0634,-0.6603 0.0719,-0.656 0.0804,-0.6516 0.0891,-0.6469 0.098,-0.6421 0.1069,-0.6372 0.116,-0.6322 0.1253,-0.6268 0.1349,-0.6213 0.1448,-0.6155 0.1548,-0.6095 0.1655,-0.6031 0.1764,-0.5964 0.188,-0.5893 0.2003,-0.5815 0.2136,-0.5731 0.2284,-0.5636 -0.5445,-0.3586 -0.5422,-0.362 -0.54,-0.3653 -0.5377,-0.3687 -0.5354,-0.372 -0.5331,-0.3754 -0.5307,-0.3786 -0.5284,-0.3819 -0.446,0.4134 -0.4601,0.4029 -0.4727,0.3936 -0.4843,0.3847 -0.4951,0.3764 -0.5053,0.3685 -0.5149,0.361 -0.5242,0.3536 -0.5331,0.3464 -0.5416,0.3395 -0.5499,0.3326 -0.5579,0.3259 -0.5657,0.3193 -0.5733,0.3127 -0.5807,0.3063 -0.5878,0.2998 -0.595,0.2935 -0.6018,0.2871 -0.6086,0.2808 -0.4016,-0.3177 -0.4001,-0.3194 -0.3988,-0.3212 -0.3973,-0.3229 -0.3959,-0.3247 -0.3945,-0.3265 -0.393,-0.3281 -0.3915,-0.3299 0.1534,-0.6525 0.1609,-0.6471 0.1685,-0.6416 0.1762,-0.636 0.1839,-0.6302 0.1917,-0.6242 0.1997,-0.6182 0.2077,-0.6118 0.2159,-0.6053 0.2243,-0.5986 0.2328,-0.5916 0.2416,-0.5843 0.2507,-0.5768 0.26,-0.5688 0.2698,-0.5604 0.2801,-0.5514 0.291,-0.5419 0.3028,-0.5314 0.3158,-0.5197 -0.4799,-0.4413 -0.4772,-0.4442 -0.4743,-0.4473 -0.4716,-0.4501 -0.4688,-0.4531 -0.466,-0.456 -0.4631,-0.4589 -0.4603,-0.4617 -0.5065,0.3365 -0.5188,0.3239 -0.5297,0.3126 -0.5397,0.3021 -0.5491,0.2921 -0.5579,0.2827 -0.5662,0.2737 -0.5741,0.2649 -0.5817,0.2565 -0.5891,0.2482 -0.5961,0.2401 -0.603,0.2322 -0.6096,0.2244 -0.616,0.2167 -0.6223,0.2091 -0.6283,0.2016 -0.6343,0.1943 -0.6401,0.1868 -0.6458,0.1796 -0.3454,-0.378 -0.3437,-0.3795 -0.3421,-0.381 -0.3404,-0.3825 -0.3387,-0.384 -0.3369,-0.3854 -0.3353,-0.387 -0.3336,-0.3884 0.2561,-0.6195 0.2626,-0.6129 0.2693,-0.6063 0.2759,-0.5994 0.2826,-0.5926 0.2894,-0.5854 0.2962,-0.5781 0.3032,-0.5705 0.3102,-0.5629 0.3174,-0.5548 0.3247,-0.5466 0.3322,-0.538 0.3399,-0.5291 0.3479,-0.5197 0.3562,-0.5099 0.3649,-0.4994 0.3742,-0.4882 0.3841,-0.4759 0.3951,-0.4623 -0.4029,-0.5125 -0.3997,-0.5151 -0.3965,-0.5175 -0.3933,-0.52 -0.39,-0.5224 -0.3868,-0.5249 -0.3835,-0.5272 -0.3802,-0.5296 -0.554,0.2509 -0.564,0.2365 -0.573,0.2236 -0.5812,0.2116 -0.5888,0.2003 -0.596,0.1895 -0.6028,0.1793 -0.6092,0.1694 -0.6153,0.1598 -0.6213,0.1505 -0.6269,0.1414 -0.6324,0.1325 -0.6377,0.1237 -0.6428,0.115 -0.6478,0.1067 -0.6525,0.0982 -0.6573,0.0899 -0.6618,0.0818 -0.6662,0.0736 -0.2803,-0.4284 -0.2784,-0.4298 -0.2765,-0.4309 -0.2746,-0.4321 -0.2727,-0.4334 -0.2708,-0.4345 -0.2689,-0.4358 -0.2669,-0.4369 0.3521,-0.5703 0.3576,-0.5629 0.363,-0.5552 0.3685,-0.5474 0.374,-0.5396 0.3796,-0.5314 0.3851,-0.523 0.3908,-0.5146 0.3965,-0.5058 0.4022,-0.4967 0.4082,-0.4875 0.4142,-0.4777 0.4204,-0.4677 0.4268,-0.4572 0.4333,-0.4461 0.4403,-0.4344 0.4476,-0.4219 0.4555,-0.4081 0.4642,-0.3929 -0.3155,-0.5706 -0.3119,-0.5725 -0.3083,-0.5744 -0.3048,-0.5764 -0.3012,-0.5782 -0.2976,-0.5801 -0.2939,-0.5819 -0.2904,-0.5837 -0.587,0.1588 -0.5947,0.143 -0.6014,0.1287 -0.6076,0.1156 -0.6134,0.1033 -0.6186,0.0915 -0.6238,0.0803 -0.6285,0.0694 -0.633,0.0591 -0.6373,0.0489 -0.6415,0.0389 -0.6455,0.0293 -0.6492,0.0198 -0.653,0.0105 -0.6564,0.0014 -0.6599,-0.0078 -0.6632,-0.0166 -0.6663,-0.0255 -0.6694,-0.0342 -0.2079,-0.4678 -0.2059,-0.4689 -0.2038,-0.4697 -0.2017,-0.4706 -0.1997,-0.4714 -0.1976,-0.4724 -0.1955,-0.4732 -0.1934,-0.4741 0.4391,-0.5065 0.4432,-0.4982 0.4474,-0.4898 0.4515,-0.4812 0.4557,-0.4726 0.4599,-0.4636 0.4641,-0.4545 0.4682,-0.4452 0.4725,-0.4357 0.4768,-0.4258 0.481,-0.4156 0.4855,-0.4051 0.49,-0.3942 0.4946,-0.3828 0.4993,-0.3709 0.5043,-0.3581 0.5094,-0.3446 0.5151,-0.3298 0.5212,-0.3134 -0.2199,-0.6137 -0.216,-0.6151 -0.2122,-0.6165 -0.2084,-0.6178 -0.2045,-0.619 -0.2007,-0.6203 -0.1968,-0.6215 -0.193,-0.6228 -0.6049,0.0626 -0.6099,0.0457 -0.6143,0.0306 -0.6183,0.0167 -0.6219,0.0035 -0.6254,-0.0089 -0.6285,-0.0209 -0.6315,-0.0322 -0.6343,-0.0433 -0.6369,-0.0539 -0.6394,-0.0645 -0.6418,-0.0746 -0.6441,-0.0846 -0.6461,-0.0944 -0.6482,-0.104 -0.6501,-0.1135 -0.6519,-0.1228 -0.6536,-0.132 -0.6553,-0.1411 -0.1302,-0.4952 -0.128,-0.4957 -0.1258,-0.4964 -0.1236,-0.4968 -0.1215,-0.4974 -0.1192,-0.498 -0.1171,-0.4984 -0.1148,-0.499 0.5146,-0.4294 0.5174,-0.4207 0.5202,-0.4117 0.5229,-0.4026 0.5256,-0.3933 0.5283,-0.3839 0.5309,-0.3742 0.5336,-0.3643 0.5363,-0.3542 0.5389,-0.3438 0.5415,-0.3331 0.5442,-0.322 0.5468,-0.3105 0.5496,-0.2985 0.5523,-0.286 0.5552,-0.2726 0.5582,-0.2583 0.5613,-0.2429 0.5647,-0.2258 -0.1186,-0.6411 -0.1145,-0.6418 -0.1106,-0.6425 -0.1066,-0.6432 -0.1026,-0.6438 -0.0986,-0.6445 -0.0945,-0.645 -0.0906,-0.6457 -0.6071,-0.0353 -0.6093,-0.0526 -0.6113,-0.0683 -0.6129,-0.0828 -0.6145,-0.0963 -0.6158,-0.1091 -0.6171,-0.1214 -0.6181,-0.1331 -0.6191,-0.1445 -0.6201,-0.1554 -0.6208,-0.1662 -0.6215,-0.1766 -0.6221,-0.1868 -0.6227,-0.1968 -0.6231,-0.2066 -0.6234,-0.2163 -0.6238,-0.2258 -0.624,-0.2352 -0.6241,-0.2444 -0.0491,-0.5096 -0.0468,-0.5099 -0.0446,-0.5101 -0.0423,-0.5102 -0.0401,-0.5105 -0.0378,-0.5106 -0.0356,-0.5108 -0.0333,-0.5109 0.5768,-0.3414 0.5782,-0.3322 0.5795,-0.3229 0.5807,-0.3135 0.5819,-0.3039 0.583,-0.2941 0.5841,-0.2842 0.5851,-0.274 0.5862,-0.2636 0.587,-0.253 0.588,-0.2419 0.5888,-0.2305 0.5895,-0.2188 0.5904,-0.2065 0.591,-0.1936 0.5918,-0.18 0.5923,-0.1655 0.593,-0.1497 0.5936,-0.1322 -0.0142,-0.6518 -0.0101,-0.6519 -0.006,-0.6519 -0.002,-0.652 0.002,-0.652 0.006,-0.6519 0.0101,-0.6519 0.0142,-0.6518 -0.5936,-0.1322 -0.593,-0.1497 -0.5923,-0.1655 -0.5918,-0.18 -0.591,-0.1936 -0.5904,-0.2065 -0.5895,-0.2188 -0.5888,-0.2305 -0.588,-0.2419 -0.587,-0.253 -0.5862,-0.2636 -0.5851,-0.274 -0.5841,-0.2842 -0.583,-0.2941 -0.5819,-0.3039 -0.5807,-0.3135 -0.5795,-0.3229 -0.5782,-0.3322 -0.5768,-0.3414 0.0333,-0.5109 0.0356,-0.5108 0.0378,-0.5106 0.0401,-0.5105 0.0423,-0.5102 0.0446,-0.5101 0.0468,-0.5099 0.0491,-0.5096 0.6241,-0.2444 0.624,-0.2352 0.6238,-0.2258 0.6234,-0.2163 0.6231,-0.2066 0.6227,-0.1968 0.6221,-0.1868 0.6215,-0.1766 0.6208,-0.1662 0.6201,-0.1554 0.6191,-0.1445 0.6181,-0.1331 0.6171,-0.1214 0.6158,-0.1091 0.6145,-0.0963 0.6129,-0.0828 0.6113,-0.0683 0.6093,-0.0526 0.6071,-0.0353 0.0906,-0.6457 0.0945,-0.645 0.0986,-0.6445 0.1026,-0.6438 0.1066,-0.6432 0.1106,-0.6425 0.1145,-0.6418 0.1186,-0.6411 -0.5647,-0.2258 -0.5613,-0.2429 -0.5582,-0.2583 -0.5552,-0.2726 -0.5523,-0.286 -0.5496,-0.2985 -0.5468,-0.3105 -0.5442,-0.322 -0.5415,-0.3331 -0.5389,-0.3438 -0.5363,-0.3542 -0.5336,-0.3643 -0.5309,-0.3742 -0.5283,-0.3839 -0.5256,-0.3933 -0.5229,-0.4026 -0.5202,-0.4117 -0.5174,-0.4207 -0.5146,-0.4294 0.1148,-0.499 0.1171,-0.4984 0.1192,-0.498 0.1215,-0.4974 0.1236,-0.4968 0.1258,-0.4964 0.128,-0.4957 0.1302,-0.4952 0.6553,-0.1411 0.6536,-0.132 0.6519,-0.1228 0.6501,-0.1135 0.6482,-0.104 0.6461,-0.0944 0.6441,-0.0846 0.6418,-0.0746 0.6394,-0.0645 0.6369,-0.0539 0.6343,-0.0433 0.6315,-0.0322 0.6285,-0.0209 0.6254,-0.0089 0.6219,0.0035 0.6183,0.0167 0.6143,0.0306 0.6099,0.0457 0.6049,0.0626 0.193,-0.6228 0.1968,-0.6215 0.2007,-0.6203 0.2045,-0.619 0.2084,-0.6178 0.2122,-0.6165 0.216,-0.6151 0.2199,-0.6137 -0.5212,-0.3134 -0.5151,-0.3298 -0.5094,-0.3446 -0.5043,-0.3581 -0.4993,-0.3709 -0.4946,-0.3828 -0.49,-0.3942 -0.4855,-0.4051 -0.481,-0.4156 -0.4768,-0.4258 -0.4725,-0.4357 -0.4682,-0.4452 -0.4641,-0.4545 -0.4599,-0.4636 -0.4557,-0.4726 -0.4515,-0.4812 -0.4474,-0.4898 -0.4432,-0.4982 -0.4391,-0.5065 0.1934,-0.4741 0.1955,-0.4732 0.1976,-0.4724 0.1997,-0.4714 0.2017,-0.4706 0.2038,-0.4697 0.2059,-0.4689 0.2079,-0.4678 0.6694,-0.0342 0.6663,-0.0255 0.6632,-0.0166 0.6599,-0.0078 0.6564,0.0014 0.653,0.0105 0.6492,0.0198 0.6455,0.0293 0.6415,0.0389 0.6373,0.0489 0.633,0.0591 0.6285,0.0694 0.6238,0.0803 0.6186,0.0915 0.6134,0.1033 0.6076,0.1156 0.6014,0.1287 0.5947,0.143 0.587,0.1588 0.2904,-0.5837 0.2939,-0.5819 0.2976,-0.5801 0.3012,-0.5782 0.3048,-0.5764 0.3083,-0.5744 0.3119,-0.5725 0.3155,-0.5706 -0.4642,-0.3929 -0.4555,-0.4081 -0.4476,-0.4219 -0.4403,-0.4344 -0.4333,-0.4461 -0.4268,-0.4572 -0.4204,-0.4677 -0.4142,-0.4777 -0.4082,-0.4875 -0.4022,-0.4967 -0.3965,-0.5058 -0.3908,-0.5146 -0.3851,-0.523 -0.3796,-0.5314 -0.374,-0.5396 -0.3685,-0.5474 -0.363,-0.5552 -0.3576,-0.5629 -0.3521,-0.5703 0.2669,-0.4369 0.2689,-0.4358 0.2708,-0.4345 0.2727,-0.4334 0.2746,-0.4321 0.2765,-0.4309 0.2784,-0.4298 0.2803,-0.4284 0.6662,0.0736 0.6618,0.0818 0.6573,0.0899 0.6525,0.0982 0.6478,0.1067 0.6428,0.115 0.6377,0.1237 0.6324,0.1325 0.6269,0.1414 0.6213,0.1505 0.6153,0.1598 0.6092,0.1694 0.6028,0.1793 0.596,0.1895 0.5888,0.2003 0.5812,0.2116 0.573,0.2236 0.564,0.2365 0.554,0.2509 0.3802,-0.5296 0.3835,-0.5272 0.3868,-0.5249 0.39,-0.5224 0.3933,-0.52 0.3965,-0.5175 0.3997,-0.5151 0.4029,-0.5125 -0.3951,-0.4623 -0.3841,-0.4759 -0.3742,-0.4882 -0.3649,-0.4994 -0.3562,-0.5099 -0.3479,-0.5197 -0.3399,-0.5291 -0.3322,-0.538 -0.3247,-0.5466 -0.3174,-0.5548 -0.3102,-0.5629 -0.3032,-0.5705 -0.2962,-0.5781 -0.2894,-0.5854 -0.2826,-0.5926 -0.2759,-0.5994 -0.2693,-0.6063 -0.2626,-0.6129 -0.2561,-0.6195 0.3336,-0.3884 0.3353,-0.387 0.3369,-0.3854 0.3387,-0.384 0.3404,-0.3825 0.3421,-0.381 0.3437,-0.3795 0.3454,-0.378 0.6458,0.1796 0.6401,0.1868 0.6343,0.1943 0.6283,0.2016 0.6223,0.2091 0.616,0.2167 0.6096,0.2244 0.603,0.2322 0.5961,0.2401 0.5891,0.2482 0.5817,0.2565 0.5741,0.2649 0.5662,0.2737 0.5579,0.2827 0.5491,0.2921 0.5397,0.3021 0.5297,0.3126 0.5188,0.3239 0.5065,0.3365 0.4603,-0.4617 0.4631,-0.4589 0.466,-0.456 0.4688,-0.4531 0.4716,-0.4501 0.4743,-0.4473 0.4772,-0.4442 0.4799,-0.4413 -0.3158,-0.5197 -0.3028,-0.5314 -0.291,-0.5419 -0.2801,-0.5514 -0.2698,-0.5604 -0.26,-0.5688 -0.2507,-0.5768 -0.2416,-0.5843 -0.2328,-0.5916 -0.2243,-0.5986 -0.2159,-0.6053 -0.2077,-0.6118 -0.1997,-0.6182 -0.1917,-0.6242 -0.1839,-0.6302 -0.1762,-0.636 -0.1685,-0.6416 -0.1609,-0.6471 -0.1534,-0.6525 0.3915,-0.3299 0.393,-0.3281 0.3945,-0.3265 0.3959,-0.3247 0.3973,-0.3229 0.3988,-0.3212 0.4001,-0.3194 0.4016,-0.3177 0.6086,0.2808 0.6018,0.2871 0.595,0.2935 0.5878,0.2998 0.5807,0.3063 0.5733,0.3127 0.5657,0.3193 0.5579,0.3259 0.5499,0.3326 0.5416,0.3395 0.5331,0.3464 0.5242,0.3536 0.5149,0.361 0.5053,0.3685 0.4951,0.3764 0.4843,0.3847 0.4727,0.3936 0.4601,0.4029 0.446,0.4134 0.5284,-0.3819 0.5307,-0.3786 0.5331,-0.3754 0.5354,-0.372 0.5377,-0.3687 0.54,-0.3653 0.5422,-0.362 0.5445,-0.3586 -0.2284,-0.5636 -0.2136,-0.5731 -0.2003,-0.5815 -0.188,-0.5893 -0.1764,-0.5964 -0.1655,-0.6031 -0.1548,-0.6095 -0.1448,-0.6155 -0.1349,-0.6213 -0.1253,-0.6268 -0.116,-0.6322 -0.1069,-0.6372 -0.098,-0.6421 -0.0891,-0.6469 -0.0804,-0.6516 -0.0719,-0.656 -0.0634,-0.6603 -0.055,-0.6645 -0.0468,-0.6687 0.4394,-0.2628 0.4406,-0.2609 0.4417,-0.2589 0.4429,-0.257 0.4439,-0.255 0.4451,-0.2531 0.4463,-0.2511 0.4473,-0.2491 0.5556,0.3748 0.548,0.3799 0.5402,0.3851 0.5322,0.3903 0.524,0.3954 0.5157,0.4006 0.5071,0.4059 0.4984,0.4112 0.4894,0.4165 0.4802,0.422 0.4706,0.4274 0.4607,0.4331 0.4504,0.4389 0.4396,0.4448 0.4283,0.451 0.4163,0.4574 0.4035,0.4643 0.3895,0.4715 0.3739,0.4796 0.5828,-0.2922 0.5846,-0.2886 0.5864,-0.285 0.5881,-0.2813 0.5899,-0.2776 0.5916,-0.274 0.5933,-0.2703 0.5949,-0.2666 -0.135,-0.593 -0.1189,-0.5999 -0.1045,-0.6062 -0.091,-0.6117 -0.0785,-0.617 -0.0665,-0.6219 -0.0551,-0.6264 -0.0441,-0.6308 -0.0335,-0.6349 -0.0232,-0.6388 -0.0131,-0.6425 -0.0033,-0.6461 0.0064,-0.6496 0.0158,-0.6528 0.0251,-0.656 0.0343,-0.659 0.0433,-0.662 0.0523,-0.6648 0.0611,-0.6674 0.4759,-0.189 0.4767,-0.1868 0.4775,-0.1847 0.4784,-0.1826 0.4791,-0.1805 0.4799,-0.1784 0.4807,-0.1763 0.4815,-0.1742 0.4884,0.4591 0.4799,0.463 0.4714,0.4667 0.4627,0.4706 0.4538,0.4743 0.4448,0.4782 0.4354,0.482 0.426,0.4858 0.4163,0.4896 0.4062,0.4935 0.396,0.4974 0.3852,0.5014 0.3742,0.5055 0.3626,0.5096 0.3504,0.5138 0.3375,0.5183 0.3238,0.523 0.3088,0.5279 0.2921,0.5334 0.6222,-0.195 0.6233,-0.1911 0.6245,-0.1872 0.6256,-0.1834 0.6268,-0.1794 0.6279,-0.1755 0.6289,-0.1717 0.6301,-0.1677 -0.0382,-0.6069 -0.0212,-0.6113 -0.0058,-0.615 0.0083,-0.6185 0.0215,-0.6215 0.0341,-0.6245 0.0461,-0.6272 0.0576,-0.6297 0.0688,-0.632 0.0796,-0.6343 0.0901,-0.6363 0.1004,-0.6382 0.1105,-0.6402 0.1203,-0.6418 0.13,-0.6435 0.1396,-0.645 0.1489,-0.6464 0.1583,-0.6478 0.1674,-0.649 0.5,-0.1101 0.5005,-0.108 0.501,-0.1057 0.5014,-0.1035 0.5019,-0.1013 0.5023,-0.0991 0.5028,-0.0969 0.5032,-0.0947 0.4084,0.5315 0.3995,0.5339 0.3904,0.5363 0.3812,0.5387 0.3718,0.541 0.3623,0.5433 0.3525,0.5456 0.3426,0.5479 0.3323,0.5501 0.3218,0.5522 0.311,0.5545 0.2999,0.5568 0.2882,0.5589 0.2762,0.5611 0.2634,0.5634 0.25,0.5657 0.2357,0.5682 0.2201,0.5706 0.2028,0.5733 0.6454,-0.0926 0.6459,-0.0887 0.6464,-0.0846 0.647,-0.0806 0.6474,-0.0766 0.6479,-0.0725 0.6484,-0.0685 0.6487,-0.0645 0.0598,-0.6052 0.0771,-0.6067 0.0929,-0.608 0.1074,-0.6092 0.1209,-0.61 0.1339,-0.611 0.1461,-0.6116 0.1579,-0.6123 0.1692,-0.6128 0.1803,-0.6133 0.1911,-0.6136 0.2014,-0.6139 0.2118,-0.6141 0.2217,-0.6142 0.2315,-0.6143 0.2413,-0.6143 0.2507,-0.6141 0.2601,-0.614 0.2693,-0.6138 0.5112,-0.0285 0.5114,-0.0263 0.5114,-0.024 0.5116,-0.0217 0.5116,-0.0195 0.5117,-0.0172 0.5118,-0.015 0.5119,-0.0128 0.3178,0.5902 0.3087,0.5911 0.2993,0.592 0.2899,0.5928 0.2802,0.5937 0.2705,0.5944 0.2604,0.595 0.2502,0.5957 0.2398,0.5963 0.2291,0.5968 0.218,0.5972 0.2067,0.5976 0.1948,0.5979 0.1826,0.5982 0.1696,0.5983 0.1561,0.5985 0.1415,0.5986 0.1257,0.5985 0.1082,0.5985 0.6519,0.012 0.6517,0.0162 0.6517,0.0201 0.6515,0.0243 0.6513,0.0282 0.6512,0.0324 0.6509,0.0363 0.6507,0.0405 0.156,-0.5878 0.1735,-0.5865 0.1892,-0.5853 0.2037,-0.584 0.2173,-0.5827 0.2301,-0.5816 0.2423,-0.5803 0.2541,-0.579 0.2654,-0.5777 0.2763,-0.5764 0.287,-0.5751 0.2973,-0.5736 0.3075,-0.5722 0.3174,-0.5707 0.3271,-0.5692 0.3366,-0.5676 0.346,-0.566 0.3552,-0.5643 0.3643,-0.5626 0.5092,0.0538 0.5089,0.0562 0.5087,0.0583 0.5084,0.0606 0.5082,0.0628 0.5078,0.0651 0.5076,0.0673 0.5073,0.0696 0.219,0.6334 0.2099,0.633 0.2005,0.6323 0.191,0.6317 0.1814,0.6309 0.1715,0.6301 0.1617,0.6292 0.1514,0.6281 0.141,0.627 0.1304,0.6258 0.1194,0.6244 0.1081,0.623 0.0964,0.6214 0.0843,0.6198 0.0715,0.6178 0.058,0.6158 0.0436,0.6135 0.0281,0.6109 0.0108,0.6081 0.6415,0.1165 0.6407,0.1204 0.64,0.1245 0.6392,0.1284 0.6383,0.1324 0.6376,0.1364 0.6367,0.1403 0.6358,0.1442 0.2482,-0.5551 0.2653,-0.5511 0.2807,-0.5473 0.2947,-0.5437 0.308,-0.5404 0.3204,-0.5371 0.3322,-0.5339 0.3437,-0.5308 0.3546,-0.5277 0.3652,-0.5246 0.3756,-0.5215 0.3855,-0.5185 0.3953,-0.5155 0.4048,-0.5124 0.4141,-0.5093 0.4234,-0.5063 0.4323,-0.5032 0.4411,-0.5 0.4499,-0.4969 0.4939,0.1348 0.4933,0.1371 0.4928,0.1392 0.4921,0.1413 0.4914,0.1436 0.4909,0.1457 0.4902,0.1478 0.4895,0.15 0.1147,0.6604 0.1056,0.6585 0.0964,0.6563 0.0872,0.6541 0.0778,0.6519 0.0683,0.6494 0.0586,0.6469 0.0487,0.6443 0.0387,0.6415 0.0283,0.6386 0.0177,0.6355 0.0067,0.6323 -0.0045,0.6288 -0.0162,0.6252 -0.0286,0.6213 -0.0415,0.6172 -0.0553,0.6125 -0.0703,0.6076 -0.0869,0.6019 0.6145,0.2179 0.6131,0.2216 0.6117,0.2255 0.6103,0.2293 0.6089,0.2331 0.6074,0.2369 0.6059,0.2406 0.6045,0.2444 0.3341,-0.5081 0.3502,-0.5014 0.3648,-0.4952 0.3782,-0.4894 0.3906,-0.484 0.4024,-0.4788 0.4136,-0.4737 0.4244,-0.4688 0.4347,-0.4639 0.4446,-0.4592 0.4543,-0.4546 0.4637,-0.4499 0.4729,-0.4454 0.4818,-0.4408 0.4905,-0.4364 0.499,-0.4318 0.5074,-0.4273 0.5157,-0.4228 0.5237,-0.4183 0.4659,0.2124 0.465,0.2144 0.464,0.2164 0.4631,0.2185 0.462,0.2205 0.4612,0.2225 0.4601,0.2246 0.4591,0.2266 0.0072,0.6702 -0.0014,0.6669 -0.01,0.6633 -0.0189,0.6596 -0.0277,0.6559 -0.0368,0.652 -0.0459,0.6479 -0.0553,0.6438 -0.0648,0.6394 -0.0745,0.6348 -0.0845,0.6302 -0.0947,0.6251 -0.1053,0.62 -0.1164,0.6145 -0.1278,0.6087 -0.14,0.6025 -0.1529,0.5957 -0.1668,0.5884 -0.1823,0.5802 0.5716,0.3136 0.5696,0.3172 0.5676,0.3207 0.5656,0.3242 0.5636,0.3277 0.5616,0.3313 0.5595,0.3347 0.5574,0.3382 0.4113,-0.448 0.4261,-0.4387 0.4395,-0.4302 0.4518,-0.4225 0.4632,-0.415 0.474,-0.408 0.4842,-0.4013 0.4941,-0.3946 0.5035,-0.3882 0.5125,-0.382 0.5214,-0.3758 0.5298,-0.3697 0.5382,-0.3638 0.5463,-0.3578 0.5541,-0.352 0.5618,-0.3461 0.5694,-0.3404 0.5768,-0.3346 0.5841,-0.3289 0.4258,0.2843 0.4245,0.2862 0.4233,0.2881 0.4221,0.2899 0.4207,0.2918 0.4194,0.2936 0.4182,0.2955 0.4168,0.2973 -0.1004,0.6628 -0.1083,0.6579 -0.1164,0.6531 -0.1244,0.6481 -0.1326,0.6429 -0.1409,0.6377 -0.1492,0.6322 -0.1579,0.6265 -0.1665,0.6207 -0.1753,0.6147 -0.1845,0.6085 -0.1938,0.6018 -0.2034,0.5951 -0.2134,0.5879 -0.2239,0.5803 -0.2347,0.5722 -0.2465,0.5635 -0.2591,0.554 -0.273,0.5434 0.5139,0.4013 0.5113,0.4044 0.5089,0.4076 0.5063,0.4108 0.5037,0.4139 0.5011,0.417 0.4986,0.4201 0.4959,0.4232 0.4778,-0.3762 0.491,-0.3646 0.5029,-0.3542 0.5137,-0.3445 0.5237,-0.3354 0.5334,-0.3267 0.5423,-0.3183 0.551,-0.3103 0.5592,-0.3024 0.5672,-0.2948 0.5748,-0.2873 0.5824,-0.2799 0.5895,-0.2728 0.5966,-0.2655 0.6034,-0.2586 0.6101,-0.2515 0.6166,-0.2446 0.623,-0.2378 0.6293,-0.2309 0.3747,0.3489 0.3731,0.3506 0.3716,0.3522 0.3701,0.3539 0.3684,0.3555 0.3669,0.3571 0.3654,0.3588 0.3637,0.3603 -0.2054,0.638 -0.2125,0.6321 -0.2196,0.626 -0.2267,0.6197 -0.2341,0.6133 -0.2413,0.6068 -0.2487,0.6001 -0.2563,0.5931 -0.2639,0.586 -0.2718,0.5786 -0.2796,0.5709 -0.2879,0.563 -0.2962,0.5547 -0.3049,0.5461 -0.3141,0.5368 -0.3235,0.5272 -0.3337,0.5167 -0.3445,0.5052 -0.3567,0.4926 0.4429,0.4785 0.4398,0.4812 0.4369,0.484 0.4338,0.4866 0.4308,0.4894 0.4278,0.492 0.4247,0.4946 0.4216,0.4973 0.532,-0.2946 0.5431,-0.2812 0.5532,-0.2689 0.5623,-0.2577 0.5708,-0.247 0.5788,-0.2369 0.5864,-0.2272 0.5935,-0.2179 0.6005,-0.2088 0.6072,-0.2 0.6135,-0.1914 0.6197,-0.1829 0.6256,-0.1746 0.6315,-0.1664 0.6371,-0.1584 0.6425,-0.1504 0.6479,-0.1426 0.6531,-0.1347 0.6581,-0.127 0.3139,0.4045 0.312,0.4059 0.3103,0.4073 0.3085,0.4086 0.3067,0.4101 0.3049,0.4113 0.303,0.4127 0.3013,0.414 -0.3051,0.5968 -0.3111,0.5898 -0.3172,0.5827 -0.3233,0.5753 -0.3293,0.5678 -0.3356,0.5603 -0.3418,0.5523 -0.3481,0.5444 -0.3545,0.536 -0.361,0.5275 -0.3676,0.5187 -0.3744,0.5096 -0.3814,0.5 -0.3886,0.49 -0.3961,0.4796 -0.4039,0.4684 -0.4122,0.4565 -0.4212,0.4434 -0.431,0.4291 0.3603,0.5433 0.357,0.5455 0.3536,0.5478 0.3501,0.5499 0.3468,0.5521 0.3433,0.5543 0.3398,0.5564 0.3364,0.5584 0.5724,-0.2055 0.5812,-0.1904 0.5891,-0.1767 0.5963,-0.1641 0.6031,-0.1523 0.6093,-0.141 0.6152,-0.1302 0.6209,-0.1198 0.6262,-0.1098 0.6313,-0.1 0.6363,-0.0905 0.641,-0.0811 0.6456,-0.072 0.65,-0.063 0.6542,-0.0541 0.6583,-0.0454 0.6624,-0.0368 0.6662,-0.0282 0.67,-0.0198 0.2449,0.4496 0.2429,0.4507 0.241,0.4518 0.2389,0.4529 0.237,0.4538 0.2349,0.455 0.2329,0.4559 0.231,0.457 -0.3969,0.5401 -0.4017,0.5323 -0.4065,0.5242 -0.4114,0.516 -0.4162,0.5077 -0.4211,0.4992 -0.4259,0.4904 -0.4309,0.4814 -0.4359,0.4722 -0.441,0.4628 -0.4461,0.453 -0.4513,0.4429 -0.4566,0.4324 -0.4622,0.4213 -0.4679,0.4098 -0.4738,0.3976 -0.4801,0.3844 -0.4868,0.3702 -0.4943,0.3543 0.2685,0.5941 0.2648,0.5957 0.2612,0.5974 0.2574,0.599 0.2537,0.6006 0.2499,0.6021 0.2462,0.6037 0.2424,0.6052 0.598,-0.111 0.6042,-0.0947 0.6098,-0.08 0.615,-0.0663 0.6196,-0.0535 0.6241,-0.0414 0.6281,-0.0299 0.6321,-0.0187 0.6357,-0.0079 0.6392,0.0026 0.6425,0.0127 0.6457,0.0228 0.6488,0.0325 0.6517,0.0421 0.6544,0.0515 0.6571,0.0608 0.6597,0.0699 0.6621,0.079 0.6645,0.088 0.1696,0.4831 0.1675,0.4838 0.1653,0.4846 0.1633,0.4853 0.161,0.486 0.1589,0.4867 0.1568,0.4875 0.1547,0.4881 -0.4784,0.4694 -0.4819,0.461 -0.4854,0.4522 -0.4888,0.4433 -0.4922,0.4344 -0.4957,0.4251 -0.4991,0.4157 -0.5026,0.4061 -0.506,0.3962 -0.5095,0.3861 -0.5129,0.3755 -0.5165,0.3648 -0.5201,0.3535 -0.5238,0.3418 -0.5275,0.3294 -0.5315,0.3164 -0.5356,0.3025 -0.5399,0.2872 -0.5447,0.2705 0.1698,0.6295 0.1658,0.6305 0.1619,0.6315 0.158,0.6325 0.1541,0.6335 0.1501,0.6345 0.1462,0.6353 0.1422,0.6363 0.608,-0.0137 0.6116,0.0035 0.6147,0.0189 0.6176,0.0331 0.6203,0.0466 0.6226,0.0592 0.6248,0.0713 0.6268,0.083 0.6288,0.0941 0.6305,0.1051 0.6322,0.1157 0.6337,0.126 0.6351,0.1361 0.6365,0.1461 0.6377,0.1558 0.6389,0.1655 0.6399,0.1748 0.6409,0.1842 0.6417,0.1934 0.0899,0.504 0.0877,0.5045 0.0855,0.5048 0.0832,0.5052 0.0811,0.5056 0.0788,0.5059 0.0765,0.5063 0.0744,0.5065 -0.5476,0.3867 -0.5495,0.3777 -0.5516,0.3685 -0.5536,0.3592 -0.5556,0.3497 -0.5574,0.3401 -0.5594,0.3303 -0.5612,0.3202 -0.563,0.3099 -0.5648,0.2993 -0.5666,0.2885 -0.5683,0.2772 -0.5701,0.2655 -0.5718,0.2533 -0.5735,0.2405 -0.5753,0.2271 -0.5772,0.2126 -0.579,0.197 -0.581,0.1795 0.0665,0.6486 0.0626,0.6489 0.0585,0.6493 0.0545,0.6497 0.0504,0.65 0.0464,0.6503 0.0424,0.6506 z M 0,17.716535 a 17.716535,17.716535 0 0 0 0,-35.43307 17.716535,17.716535 0 0 0 0,35.43307"
           style="fill:none;stroke:#000000;stroke-width:0.60000002" />
      </g>
      <g
         id="g20448">
        <circle
           style="fill:none;fill-opacity:1;stroke:#000000;stroke-width:0.16345413;stroke-miterlimit:4;stroke-dasharray:none;stroke-opacity:1"
           id="path20430"
           cx="128.91536"
           cy="177.16536"
           r="29.421745" />
        <circle
           r="29.421745"
           cy="177.16536"
           cx="225.41536"
           id="circle20432"
           style="fill:none;fill-opacity:1;stroke:#000000;stroke-width:0.16345413;stroke-miterlimit:4;stroke-dasharray:none;stroke-opacity:1" />
        <circle
           r="29.421745"
           cy="177.16534"
           cx="-225.41536"
           id="circle20440"
           style="fill:none;fill-opacity:1;stroke:#000000;stroke-width:0.16345413;stroke-miterlimit:4;stroke-dasharray:none;stroke-opacity:1"
           transform="matrix(0,-1,1,0,0,0)" />
        <circle
           style="fill:none;fill-opacity:1;stroke:#000000;stroke-width:0.16345413;stroke-miterlimit:4;stroke-dasharray:none;stroke-opacity:1"
           id="circle20442"
           cx="-128.91536"
           cy="177.16534"
           r="29.421745"
           transform="matrix(0,-1,1,0,0,0)" />
      </g>
    </g>
  </g>
</svg>
