  0
SECTION
  2
HEADER
  9
$ACADVER
  1
AC1014
  9
$ACADMAINTVER
 70
     9
  9
$DWGCODEPAGE
  3
ANSI_1252
  9
$INSBASE
 10
0.0
 20
0.0
 30
0.0
  9
$EXTMIN
 10
1.000000000000000E+20
 20
1.000000000000000E+20
 30
1.000000000000000E+20
  9
$EXTMAX
 10
-1.000000000000000E+20
 20
-1.000000000000000E+20
 30
-1.000000000000000E+20
  9
$LIMMIN
 10
0.0
 20
0.0
  9
$LIMMAX
 10
12.0
 20
9.0
  9
$ORTHOMODE
 70
     0
  9
$REGENMODE
 70
     1
  9
$FILLMODE
 70
     1
  9
$QTEXTMODE
 70
     0
  9
$MIRRTEXT
 70
     1
  9
$DRAGMODE
 70
     2
  9
$LTSCALE
 40
1.0
  9
$OSMODE
 70
    37
  9
$ATTMODE
 70
     1
  9
$TEXTSIZE
 40
0.2
  9
$TRACEWID
 40
0.05
  9
$TEXTSTYLE
  7
STANDARD
  9
$CLAYER
  8
0
  9
$CELTYPE
  6
BYLAYER
  9
$CECOLOR
 62
   256
  9
$CELTSCALE
 40
1.0
  9
$DELOBJ
 70
     1
  9
$DISPSILH
 70
     0
  9
$DIMSCALE
 40
1.0
  9
$DIMASZ
 40
0.18
  9
$DIMEXO
 40
0.0625
  9
$DIMDLI
 40
0.38
  9
$DIMRND
 40
0.0
  9
$DIMDLE
 40
0.0
  9
$DIMEXE
 40
0.18
  9
$DIMTP
 40
0.0
  9
$DIMTM
 40
0.0
  9
$DIMTXT
 40
0.18
  9
$DIMCEN
 40
0.09
  9
$DIMTSZ
 40
0.0
  9
$DIMTOL
 70
     0
  9
$DIMLIM
 70
     0
  9
$DIMTIH
 70
     1
  9
$DIMTOH
 70
     1
  9
$DIMSE1
 70
     0
  9
$DIMSE2
 70
     0
  9
$DIMTAD
 70
     0
  9
$DIMZIN
 70
     0
  9
$DIMBLK
  1

  9
$DIMASO
 70
     1
  9
$DIMSHO
 70
     1
  9
$DIMPOST
  1

  9
$DIMAPOST
  1

  9
$DIMALT
 70
     0
  9
$DIMALTD
 70
     2
  9
$DIMALTF
 40
25.4
  9
$DIMLFAC
 40
1.0
  9
$DIMTOFL
 70
     0
  9
$DIMTVP
 40
0.0
  9
$DIMTIX
 70
     0
  9
$DIMSOXD
 70
     0
  9
$DIMSAH
 70
     0
  9
$DIMBLK1
  1

  9
$DIMBLK2
  1

  9
$DIMSTYLE
  2
STANDARD
  9
$DIMCLRD
 70
     0
  9
$DIMCLRE
 70
     0
  9
$DIMCLRT
 70
     0
  9
$DIMTFAC
 40
1.0
  9
$DIMGAP
 40
0.09
  9
$DIMJUST
 70
     0
  9
$DIMSD1
 70
     0
  9
$DIMSD2
 70
     0
  9
$DIMTOLJ
 70
     1
  9
$DIMTZIN
 70
     0
  9
$DIMALTZ
 70
     0
  9
$DIMALTTZ
 70
     0
  9
$DIMFIT
 70
     3
  9
$DIMUPT
 70
     0
  9
$DIMUNIT
 70
     2
  9
$DIMDEC
 70
     4
  9
$DIMTDEC
 70
     4
  9
$DIMALTU
 70
     2
  9
$DIMALTTD
 70
     2
  9
$DIMTXSTY
  7
STANDARD
  9
$DIMAUNIT
 70
     0
  9
$LUNITS
 70
     2
  9
$LUPREC
 70
     4
  9
$SKETCHINC
 40
0.1
  9
$FILLETRAD
 40
0.5
  9
$AUNITS
 70
     0
  9
$AUPREC
 70
     0
  9
$MENU
  1
.
  9
$ELEVATION
 40
0.0
  9
$PELEVATION
 40
0.0
  9
$THICKNESS
 40
0.0
  9
$LIMCHECK
 70
     0
  9
$CHAMFERA
 40
0.0
  9
$CHAMFERB
 40
0.0
  9
$CHAMFERC
 40
0.0
  9
$CHAMFERD
 40
0.0
  9
$SKPOLY
 70
     0
  9
$TDCREATE
 40
2457201.092891018
  9
$TDUPDATE
 40
2457201.092891366
  9
$TDINDWG
 40
0.0000000116
  9
$TDUSRTIMER
 40
0.0000000116
  9
$USRTIMER
 70
     1
  9
$ANGBASE
 50
0.0
  9
$ANGDIR
 70
     0
  9
$PDMODE
 70
     0
  9
$PDSIZE
 40
0.0
  9
$PLINEWID
 40
0.0
  9
$COORDS
 70
     1
  9
$SPLFRAME
 70
     0
  9
$SPLINETYPE
 70
     6
  9
$SPLINESEGS
 70
     8
  9
$ATTDIA
 70
     0
  9
$ATTREQ
 70
     1
  9
$HANDLING
 70
     1
  9
$HANDSEED
  5
2CE
  9
$SURFTAB1
 70
     6
  9
$SURFTAB2
 70
     6
  9
$SURFTYPE
 70
     6
  9
$SURFU
 70
     6
  9
$SURFV
 70
     6
  9
$UCSNAME
  2

  9
$UCSORG
 10
0.0
 20
0.0
 30
0.0
  9
$UCSXDIR
 10
1.0
 20
0.0
 30
0.0
  9
$UCSYDIR
 10
0.0
 20
1.0
 30
0.0
  9
$PUCSNAME
  2

  9
$PUCSORG
 10
0.0
 20
0.0
 30
0.0
  9
$PUCSXDIR
 10
1.0
 20
0.0
 30
0.0
  9
$PUCSYDIR
 10
0.0
 20
1.0
 30
0.0
  9
$USERI1
 70
     0
  9
$USERI2
 70
     0
  9
$USERI3
 70
     0
  9
$USERI4
 70
     0
  9
$USERI5
 70
     0
  9
$USERR1
 40
0.0
  9
$USERR2
 40
0.0
  9
$USERR3
 40
0.0
  9
$USERR4
 40
0.0
  9
$USERR5
 40
0.0
  9
$WORLDVIEW
 70
     1
  9
$SHADEDGE
 70
     3
  9
$SHADEDIF
 70
    70
  9
$TILEMODE
 70
     1
  9
$MAXACTVP
 70
    64
  9
$PINSBASE
 10
0.0
 20
0.0
 30
0.0
  9
$PLIMCHECK
 70
     0
  9
$PEXTMIN
 10
1.000000000000000E+20
 20
1.000000000000000E+20
 30
1.000000000000000E+20
  9
$PEXTMAX
 10
-1.000000000000000E+20
 20
-1.000000000000000E+20
 30
-1.000000000000000E+20
  9
$PLIMMIN
 10
0.0
 20
0.0
  9
$PLIMMAX
 10
12.0
 20
9.0
  9
$UNITMODE
 70
     0
  9
$VISRETAIN
 70
     1
  9
$PLINEGEN
 70
     0
  9
$PSLTSCALE
 70
     1
  9
$TREEDEPTH
 70
  3020
  9
$PICKSTYLE
 70
     1
  9
$CMLSTYLE
  2
STANDARD
  9
$CMLJUST
 70
     0
  9
$CMLSCALE
 40
1.0
  9
$PROXYGRAPHICS
 70
     1
  9
$MEASUREMENT
 70
     1
  0
ENDSEC
  0
SECTION
  2
CLASSES
  0
CLASS
  1
ACDBDICTIONARYWDFLT
  2
AcDbDictionaryWithDefault
  3
ObjectDBX Classes
 90
        0
280
     0
281
     0
  0
CLASS
  1
VISUALSTYLE
  2
AcDbVisualStyle
  3
ObjectDBX Classes
 90
     4095
280
     0
281
     0
  0
CLASS
  1
MATERIAL
  2
AcDbMaterial
  3
ObjectDBX Classes
 90
     1153
280
     0
281
     0
  0
CLASS
  1
SCALE
  2
AcDbScale
  3
ObjectDBX Classes
 90
     1153
280
     0
281
     0
  0
CLASS
  1
SUN
  2
AcDbSun
  3
SCENEOE
 90
     1153
280
     0
281
     0
  0
CLASS
  1
DICTIONARYVAR
  2
AcDbDictionaryVar
  3
ObjectDBX Classes
 90
        0
280
     0
281
     0
  0
CLASS
  1
XRECORD
  2
AcDbXrecord
  3
ObjectDBX Classes
 90
        0
280
     0
281
     0
  0
CLASS
  1
LWPOLYLINE
  2
AcDbPolyline
  3
ObjectDBX Classes
 90
        0
280
     0
281
     1
  0
CLASS
  1
HATCH
  2
AcDbHatch
  3
ObjectDBX Classes
 90
        0
280
     0
281
     1
  0
CLASS
  1
ACDBPLACEHOLDER
  2
AcDbPlaceHolder
  3
ObjectDBX Classes
 90
        0
280
     0
281
     0
  0
CLASS
  1
LAYOUT
  2
AcDbLayout
  3
ObjectDBX Classes
 90
        0
280
     0
281
     0
  0
ENDSEC
  0
SECTION
  2
TABLES
  0
TABLE
  2
VPORT
  5
8
102
{ACAD_XDICTIONARY
360
2C4
102
}
330
0
100
AcDbSymbolTable
 70
     1
  0
VPORT
  5
29
330
8
100
AcDbSymbolTableRecord
100
AcDbViewportTableRecord
  2
*ACTIVE
 70
     0
 10
0.0
 20
0.0
 11
1.0
 21
1.0
 12
0.0
 22
0.0
 13
0.0
 23
0.0
 14
0.5
 24
0.5
 15
0.5
 25
0.5
 16
0.0
 26
0.0
 36
1.0
 17
0.0
 27
0.0
 37
-1000.0
 40
152.4778292222202
 41
2.373230373230373
 42
50.0
 43
241.7989453184095
 44
334.1423783224654
 50
0.0
 51
0.0
 71
     0
 72
   100
 73
     1
 74
     3
 75
     0
 76
     0
 77
     0
 78
     0
  0
ENDTAB
  0
TABLE
  2
LTYPE
  5
5
330
0
100
AcDbSymbolTable
 70
     1
  0
LTYPE
  5
14
330
5
100
AcDbSymbolTableRecord
100
AcDbLinetypeTableRecord
  2
BYBLOCK
 70
     0
  3

 72
    65
 73
     0
 40
0.0
  0
LTYPE
  5
15
330
5
100
AcDbSymbolTableRecord
100
AcDbLinetypeTableRecord
  2
BYLAYER
 70
     0
  3

 72
    65
 73
     0
 40
0.0
  0
LTYPE
  5
16
330
5
100
AcDbSymbolTableRecord
100
AcDbLinetypeTableRecord
  2
CONTINUOUS
 70
     0
  3
Solid line
 72
    65
 73
     0
 40
0.0
  0
ENDTAB
  0
TABLE
  2
LAYER
  5
2
330
0
100
AcDbSymbolTable
 70
     3
  0
LAYER
  5
10
330
2
100
AcDbSymbolTableRecord
100
AcDbLayerTableRecord
  2
0
 70
     0
 62
     7
  6
CONTINUOUS
  0
LAYER
  5
6A
330
2
100
AcDbSymbolTableRecord
100
AcDbLayerTableRecord
  2
PROFILEEDGES
 70
     0
 62
     7
  6
CONTINUOUS
  0
LAYER
  5
6B
330
2
100
AcDbSymbolTableRecord
100
AcDbLayerTableRecord
  2
SECTIONCUTEDGES
 70
     0
 62
     7
  6
CONTINUOUS
  0
ENDTAB
  0
TABLE
  2
STYLE
  5
3
330
0
100
AcDbSymbolTable
 70
     1
  0
STYLE
  5
11
330
3
100
AcDbSymbolTableRecord
100
AcDbTextStyleTableRecord
  2
STANDARD
 70
     0
 40
0.0
 41
1.0
 50
0.0
 71
     0
 42
0.2
  3
txt
  4

  0
ENDTAB
  0
TABLE
  2
VIEW
  5
6
330
0
100
AcDbSymbolTable
 70
     0
  0
ENDTAB
  0
TABLE
  2
UCS
  5
7
330
0
100
AcDbSymbolTable
 70
     0
  0
ENDTAB
  0
TABLE
  2
APPID
  5
9
330
0
100
AcDbSymbolTable
 70
     1
  0
APPID
  5
12
330
9
100
AcDbSymbolTableRecord
100
AcDbRegAppTableRecord
  2
ACAD
 70
     0
  0
ENDTAB
  0
TABLE
  2
DIMSTYLE
  5
A
330
0
100
AcDbSymbolTable
 70
     1
  0
DIMSTYLE
105
27
330
A
100
AcDbSymbolTableRecord
100
AcDbDimStyleTableRecord
  2
STANDARD
 70
     0
  3

  4

  5

  6

  7

 40
1.0
 41
0.18
 42
0.0625
 43
0.38
 44
0.18
 45
0.0
 46
0.0
 47
0.0
 48
0.0
140
0.18
141
0.09
142
0.0
143
25.4
144
1.0
145
0.0
146
1.0
147
0.09
 71
     0
 72
     0
 73
     1
 74
     1
 75
     0
 76
     0
 77
     0
 78
     0
170
     0
171
     2
172
     0
173
     0
174
     0
175
     0
176
     0
177
     0
178
     0
270
     2
271
     4
272
     4
273
     2
274
     2
340
11
275
     0
280
     0
281
     0
282
     0
283
     1
284
     0
285
     0
286
     0
287
     3
288
     0
  0
ENDTAB
  0
TABLE
  2
BLOCK_RECORD
  5
1
330
0
100
AcDbSymbolTable
 70
     1
  0
BLOCK_RECORD
  5
1F
330
1
100
AcDbSymbolTableRecord
100
AcDbBlockTableRecord
  2
*MODEL_SPACE
  0
BLOCK_RECORD
  5
1B
330
1
100
AcDbSymbolTableRecord
100
AcDbBlockTableRecord
  2
*PAPER_SPACE
  0
ENDTAB
  0
ENDSEC
  0
SECTION
  2
BLOCKS
  0
BLOCK
  5
20
330
1F
100
AcDbEntity
  8
0
100
AcDbBlockBegin
  2
*MODEL_SPACE
 70
     0
 10
0.0
 20
0.0
 30
0.0
  3
*MODEL_SPACE
  1

  0
ENDBLK
  5
21
330
1F
100
AcDbEntity
  8
0
100
AcDbBlockEnd
  0
BLOCK
  5
1C
330
1B
100
AcDbEntity
 67
     1
  8
0
100
AcDbBlockBegin
  2
*PAPER_SPACE
 70
     0
 10
0.0
 20
0.0
 30
0.0
  3
*PAPER_SPACE
  1

  0
ENDBLK
  5
1D
330
1B
100
AcDbEntity
 67
     1
  8
0
100
AcDbBlockEnd
  0
ENDSEC
  0
SECTION
  2
ENTITIES
  0
LINE
  5
6C
330
1F
100
AcDbEntity
  8
0
100
AcDbLine
 10
0.1167449726278361
 20
56.00178758757236
 30
0.0
 11
0.1167449726278361
 21
52.42445084015749
 31
0.0
  0
LINE
  5
6D
330
1F
100
AcDbEntity
  8
0
100
AcDbLine
 10
1.586164579390198
 20
58.17245376360783
 30
0.0
 11
0.1167449726278361
 21
56.00178758757236
 31
0.0
  0
LINE
  5
6E
330
1F
100
AcDbEntity
  8
0
100
AcDbLine
 10
5.73767536531795
 20
55.70720710818693
 30
0.0
 11
4.503201792557419
 21
58.01957832117973
 31
0.0
  0
LINE
  5
6F
330
1F
100
AcDbEntity
  8
0
100
AcDbLine
 10
5.36374185251977
 20
52.14946738577732
 30
0.0
 11
5.73767536531795
 21
55.70720710818693
 31
0.0
  0
LINE
  5
70
330
1F
100
AcDbEntity
  8
0
100
AcDbLine
 10
11.01385002924328
 20
51.25457816443387
 30
0.0
 11
5.36374185251977
 21
52.14946738577732
 31
0.0
  0
LINE
  5
71
330
1F
100
AcDbEntity
  8
0
100
AcDbLine
 10
11.75762016102282
 20
54.75374152093459
 30
0.0
 11
11.01385002924328
 21
51.25457816443387
 31
0.0
  0
LINE
  5
72
330
1F
100
AcDbEntity
  8
0
100
AcDbLine
 10
13.64623629870911
 20
56.571463918055
 30
0.0
 11
11.75762016102282
 21
54.75374152093459
 31
0.0
  0
LINE
  5
73
330
1F
100
AcDbEntity
  8
0
100
AcDbLine
 10
17.19447301297346
 20
53.29694118988759
 30
0.0
 11
16.46774465830012
 21
55.8154430316649
 31
0.0
  0
LINE
  5
74
330
1F
100
AcDbEntity
  8
0
100
AcDbLine
 10
16.08901516342026
 20
49.89469176527655
 30
0.0
 11
17.19447301297346
 21
53.29694118988759
 31
0.0
  0
LINE
  5
75
330
1F
100
AcDbEntity
  8
0
100
AcDbLine
 10
21.42959698926474
 20
47.84463447617109
 30
0.0
 11
16.08901516342026
 21
49.89469176527655
 31
0.0
  0
LINE
  5
76
330
1F
100
AcDbEntity
  8
0
100
AcDbLine
 10
22.88463092905996
 20
51.11269421222991
 30
0.0
 11
21.42959698926474
 21
47.84463447617109
 31
0.0
  0
LINE
  5
77
330
1F
100
AcDbEntity
  8
0
100
AcDbLine
 10
25.10990200986754
 20
52.49802963928126
 30
0.0
 11
22.88463092905996
 21
51.11269421222991
 31
0.0
  0
LINE
  5
78
330
1F
100
AcDbEntity
  8
0
100
AcDbLine
 10
27.89978968172639
 20
48.55734319449164
 30
0.0
 11
27.71256806146897
 21
51.17190504945514
 31
0.0
  0
LINE
  5
79
330
1F
100
AcDbEntity
  8
0
100
AcDbLine
 10
26.11112130801898
 20
45.45927869333875
 30
0.0
 11
27.89978968172639
 21
48.55734319449164
 31
0.0
  0
LINE
  5
7A
330
1F
100
AcDbEntity
  8
0
100
AcDbLine
 10
30.9087677302401
 20
42.34365067727146
 30
0.0
 11
26.11112130801898
 21
45.45927869333875
 31
0.0
  0
LINE
  5
7B
330
1F
100
AcDbEntity
  8
0
100
AcDbLine
 10
33.01147351285449
 20
45.23777690053208
 30
0.0
 11
30.9087677302401
 21
42.34365067727146
 31
0.0
  0
LINE
  5
7C
330
1F
100
AcDbEntity
  8
0
100
AcDbLine
 10
35.47614451251673
 20
46.13017955177536
 30
0.0
 11
33.01147351285449
 21
45.23777690053208
 31
0.0
  0
LINE
  5
7D
330
1F
100
AcDbEntity
  8
0
100
AcDbLine
 10
37.38575166334342
 20
41.69555629751238
 30
0.0
 11
37.74621926069623
 21
44.29190926654042
 31
0.0
  0
LINE
  5
7E
330
1F
100
AcDbEntity
  8
0
100
AcDbLine
 10
34.99204615639587
 20
39.03707700468087
 30
0.0
 11
37.38575166334342
 21
41.69555629751238
 31
0.0
  0
LINE
  5
7F
330
1F
100
AcDbEntity
  8
0
100
AcDbLine
 10
39.03707700468091
 20
34.99204615639583
 30
0.0
 11
34.99204615639587
 21
39.03707700468087
 31
0.0
  0
LINE
  5
80
330
1F
100
AcDbEntity
  8
0
100
AcDbLine
 10
41.69555629751239
 20
37.38575166334341
 30
0.0
 11
39.03707700468091
 21
34.99204615639583
 31
0.0
  0
LINE
  5
81
330
1F
100
AcDbEntity
  8
0
100
AcDbLine
 10
44.29190926654045
 20
37.74621926069621
 30
0.0
 11
41.69555629751239
 21
37.38575166334341
 31
0.0
  0
LINE
  5
82
330
1F
100
AcDbEntity
  8
0
100
AcDbLine
 10
45.23777690053213
 20
33.01147351285447
 30
0.0
 11
46.13017955177538
 21
35.47614451251669
 31
0.0
  0
LINE
  5
83
330
1F
100
AcDbEntity
  8
0
100
AcDbLine
 10
42.3436506772715
 20
30.90876773024006
 30
0.0
 11
45.23777690053213
 21
33.01147351285447
 31
0.0
  0
LINE
  5
84
330
1F
100
AcDbEntity
  8
0
100
AcDbLine
 10
45.45927869333875
 20
26.11112130801891
 30
0.0
 11
42.3436506772715
 21
30.90876773024006
 31
0.0
  0
LINE
  5
85
330
1F
100
AcDbEntity
  8
0
100
AcDbLine
 10
48.55734319449162
 20
27.89978968172634
 30
0.0
 11
45.45927869333875
 21
26.11112130801891
 31
0.0
  0
LINE
  5
86
330
1F
100
AcDbEntity
  8
0
100
AcDbLine
 10
51.17190504945516
 20
27.71256806146893
 30
0.0
 11
48.55734319449162
 21
27.89978968172634
 31
0.0
  0
LINE
  5
87
330
1F
100
AcDbEntity
  8
0
100
AcDbLine
 10
51.11269421222992
 20
22.88463092905995
 30
0.0
 11
52.49802963928125
 21
25.1099020098675
 31
0.0
  0
LINE
  5
88
330
1F
100
AcDbEntity
  8
0
100
AcDbLine
 10
47.84463447617111
 20
21.4295969892647
 30
0.0
 11
51.11269421222992
 21
22.88463092905995
 31
0.0
  0
LINE
  5
89
330
1F
100
AcDbEntity
  8
0
100
AcDbLine
 10
49.89469176527656
 20
16.08901516342022
 30
0.0
 11
47.84463447617111
 21
21.4295969892647
 31
0.0
  0
LINE
  5
8A
330
1F
100
AcDbEntity
  8
0
100
AcDbLine
 10
53.29694118988758
 20
17.19447301297345
 30
0.0
 11
49.89469176527656
 21
16.08901516342022
 31
0.0
  0
LINE
  5
8B
330
1F
100
AcDbEntity
  8
0
100
AcDbLine
 10
55.81544303166495
 20
16.46774465830007
 30
0.0
 11
53.29694118988758
 21
17.19447301297345
 31
0.0
  0
LINE
  5
8C
330
1F
100
AcDbEntity
  8
0
100
AcDbLine
 10
54.7537415209346
 20
11.75762016102281
 30
0.0
 11
56.57146391805499
 21
13.64623629870907
 31
0.0
  0
LINE
  5
8D
330
1F
100
AcDbEntity
  8
0
100
AcDbLine
 10
51.25457816443387
 20
11.01385002924327
 30
0.0
 11
54.7537415209346
 21
11.75762016102281
 31
0.0
  0
LINE
  5
8E
330
1F
100
AcDbEntity
  8
0
100
AcDbLine
 10
52.14946738577731
 20
5.36374185251973
 30
0.0
 11
51.25457816443387
 21
11.01385002924327
 31
0.0
  0
LINE
  5
8F
330
1F
100
AcDbEntity
  8
0
100
AcDbLine
 10
55.70720710818691
 20
5.737675365317937
 30
0.0
 11
52.14946738577731
 21
5.36374185251973
 31
0.0
  0
LINE
  5
90
330
1F
100
AcDbEntity
  8
0
100
AcDbLine
 10
58.01957832117974
 20
4.503201792557379
 30
0.0
 11
55.70720710818691
 21
5.737675365317937
 31
0.0
  0
LINE
  5
91
330
1F
100
AcDbEntity
  8
0
100
AcDbLine
 10
56.00178758757237
 20
0.1167449726278098
 30
0.0
 11
58.17245376360782
 21
1.586164579390159
 31
0.0
  0
LINE
  5
92
330
1F
100
AcDbEntity
  8
0
100
AcDbLine
 10
52.42445084015748
 20
0.1167449726278098
 30
0.0
 11
56.00178758757237
 21
0.1167449726278098
 31
0.0
  0
LINE
  5
93
330
1F
100
AcDbEntity
  8
0
100
AcDbLine
 10
52.12506104061127
 20
-5.595952715424866
 30
0.0
 11
52.42445084015748
 21
0.1167449726278098
 31
0.0
  0
LINE
  5
94
330
1F
100
AcDbEntity
  8
0
100
AcDbLine
 10
55.68280076302088
 20
-5.969886228223053
 30
0.0
 11
52.12506104061127
 21
-5.595952715424866
 31
0.0
  0
LINE
  5
95
330
1F
100
AcDbEntity
  8
0
100
AcDbLine
 10
57.68797962923327
 20
-7.658152600279721
 30
0.0
 11
55.68280076302088
 21
-5.969886228223053
 31
0.0
  0
LINE
  5
96
330
1F
100
AcDbEntity
  8
0
100
AcDbLine
 10
54.80228681024165
 20
-11.52923253127555
 30
0.0
 11
57.23102823728747
 21
-10.5432301433102
 31
0.0
  0
LINE
  5
97
330
1F
100
AcDbEntity
  8
0
100
AcDbLine
 10
51.3031234537409
 20
-10.78546239949605
 30
0.0
 11
54.80228681024165
 21
-11.52923253127555
 31
0.0
  0
LINE
  5
98
330
1F
100
AcDbEntity
  8
0
100
AcDbLine
 10
49.82253940417687
 20
-16.31107729734508
 30
0.0
 11
51.3031234537409
 21
-10.78546239949605
 31
0.0
  0
LINE
  5
99
330
1F
100
AcDbEntity
  8
0
100
AcDbLine
 10
53.22478882878789
 20
-17.41653514689828
 30
0.0
 11
49.82253940417687
 21
-16.31107729734508
 31
0.0
  0
LINE
  5
9A
330
1F
100
AcDbEntity
  8
0
100
AcDbLine
 10
54.83513940985059
 20
-19.48480897659132
 30
0.0
 11
53.22478882878789
 21
-17.41653514689828
 31
0.0
  0
LINE
  5
9B
330
1F
100
AcDbEntity
  8
0
100
AcDbLine
 10
51.20766312875515
 20
-22.67132725016646
 30
0.0
 11
53.78833215205505
 21
-22.21183511671658
 31
0.0
  0
LINE
  5
9C
330
1F
100
AcDbEntity
  8
0
100
AcDbLine
 10
47.93960339269631
 20
-21.21629331037122
 30
0.0
 11
51.20766312875515
 21
-22.67132725016646
 31
0.0
  0
LINE
  5
9D
330
1F
100
AcDbEntity
  8
0
100
AcDbLine
 10
45.3425337207109
 20
-26.3133295321386
 30
0.0
 11
47.93960339269631
 21
-21.21629331037122
 31
0.0
  0
LINE
  5
9E
330
1F
100
AcDbEntity
  8
0
100
AcDbLine
 10
48.44059822186379
 20
-28.10199790584602
 30
0.0
 11
45.3425337207109
 21
-26.3133295321386
 31
0.0
  0
LINE
  5
9F
330
1F
100
AcDbEntity
  8
0
100
AcDbLine
 10
49.58574047006495
 20
-30.45988570213889
 30
0.0
 11
48.44059822186379
 21
-28.10199790584602
 31
0.0
  0
LINE
  5
A0
330
1F
100
AcDbEntity
  8
0
100
AcDbLine
 10
45.37501884691196
 20
-32.82257617912699
 30
0.0
 11
47.99482784672384
 21
-32.90967631131223
 31
0.0
  0
LINE
  5
A1
330
1F
100
AcDbEntity
  8
0
100
AcDbLine
 10
42.48089262365133
 20
-30.71987039651259
 30
0.0
 11
45.37501884691196
 21
-32.82257617912699
 31
0.0
  0
LINE
  5
A2
330
1F
100
AcDbEntity
  8
0
100
AcDbLine
 10
38.88084173603327
 20
-35.16556300101362
 30
0.0
 11
42.48089262365133
 21
-30.71987039651259
 31
0.0
  0
LINE
  5
A3
330
1F
100
AcDbEntity
  8
0
100
AcDbLine
 10
41.53932102886474
 20
-37.55926850796114
 30
0.0
 11
38.88084173603327
 21
-35.16556300101362
 31
0.0
  0
LINE
  5
A4
330
1F
100
AcDbEntity
  8
0
100
AcDbLine
 10
42.16920673295582
 20
-40.1037192597549
 30
0.0
 11
41.53932102886474
 21
-37.55926850796114
 31
0.0
  0
LINE
  5
A5
330
1F
100
AcDbEntity
  8
0
100
AcDbLine
 10
37.55926850796116
 20
-41.53932102886477
 30
0.0
 11
40.10371925975488
 21
-42.16920673295583
 31
0.0
  0
LINE
  5
A6
330
1F
100
AcDbEntity
  8
0
100
AcDbLine
 10
35.16556300101358
 20
-38.8808417360333
 30
0.0
 11
37.55926850796116
 21
-41.53932102886477
 31
0.0
  0
LINE
  5
A7
330
1F
100
AcDbEntity
  8
0
100
AcDbLine
 10
30.71987039651256
 20
-42.48089262365134
 30
0.0
 11
35.16556300101358
 21
-38.8808417360333
 31
0.0
  0
LINE
  5
A8
330
1F
100
AcDbEntity
  8
0
100
AcDbLine
 10
32.82257617912694
 20
-45.37501884691196
 30
0.0
 11
30.71987039651256
 21
-42.48089262365134
 31
0.0
  0
LINE
  5
A9
330
1F
100
AcDbEntity
  8
0
100
AcDbLine
 10
32.90967631131219
 20
-47.99482784672385
 30
0.0
 11
32.82257617912694
 21
-45.37501884691196
 31
0.0
  0
LINE
  5
AA
330
1F
100
AcDbEntity
  8
0
100
AcDbLine
 10
28.101997905846
 20
-48.44059822186381
 30
0.0
 11
30.45988570213886
 21
-49.58574047006496
 31
0.0
  0
LINE
  5
AB
330
1F
100
AcDbEntity
  8
0
100
AcDbLine
 10
26.31332953213857
 20
-45.34253372071093
 30
0.0
 11
28.101997905846
 21
-48.44059822186381
 31
0.0
  0
LINE
  5
AC
330
1F
100
AcDbEntity
  8
0
100
AcDbLine
 10
21.21629331037118
 20
-47.93960339269634
 30
0.0
 11
26.31332953213857
 21
-45.34253372071093
 31
0.0
  0
LINE
  5
AD
330
1F
100
AcDbEntity
  8
0
100
AcDbLine
 10
22.67132725016643
 20
-51.20766312875513
 30
0.0
 11
21.21629331037118
 21
-47.93960339269634
 31
0.0
  0
LINE
  5
AE
330
1F
100
AcDbEntity
  8
0
100
AcDbLine
 10
22.21183511671655
 20
-53.78833215205505
 30
0.0
 11
22.67132725016643
 21
-51.20766312875513
 31
0.0
  0
LINE
  5
AF
330
1F
100
AcDbEntity
  8
0
100
AcDbLine
 10
17.41653514689824
 20
-53.2247888287879
 30
0.0
 11
19.48480897659127
 21
-54.83513940985058
 31
0.0
  0
LINE
  5
B0
330
1F
100
AcDbEntity
  8
0
100
AcDbLine
 10
16.31107729734502
 20
-49.82253940417689
 30
0.0
 11
17.41653514689824
 21
-53.2247888287879
 31
0.0
  0
LINE
  5
B1
330
1F
100
AcDbEntity
  8
0
100
AcDbLine
 10
10.785462399496
 20
-51.30312345374092
 30
0.0
 11
16.31107729734502
 21
-49.82253940417689
 31
0.0
  0
LINE
  5
B2
330
1F
100
AcDbEntity
  8
0
100
AcDbLine
 10
11.52923253127557
 20
-54.80228681024164
 30
0.0
 11
10.785462399496
 21
-51.30312345374092
 31
0.0
  0
LINE
  5
B3
330
1F
100
AcDbEntity
  8
0
100
AcDbLine
 10
10.54323014331018
 20
-57.23102823728749
 30
0.0
 11
11.52923253127557
 21
-54.80228681024164
 31
0.0
  0
LINE
  5
B4
330
1F
100
AcDbEntity
  8
0
100
AcDbLine
 10
5.96988622822306
 20
-55.6828007630209
 30
0.0
 11
7.658152600279708
 21
-57.68797962923325
 31
0.0
  0
LINE
  5
B5
330
1F
100
AcDbEntity
  8
0
100
AcDbLine
 10
5.595952715424827
 20
-52.12506104061129
 30
0.0
 11
5.96988622822306
 21
-55.6828007630209
 31
0.0
  0
LINE
  5
B6
330
1F
100
AcDbEntity
  8
0
100
AcDbLine
 10
-0.1167449726278559
 20
-52.42445084015749
 30
0.0
 11
5.595952715424827
 21
-52.12506104061129
 31
0.0
  0
LINE
  5
B7
330
1F
100
AcDbEntity
  8
0
100
AcDbLine
 10
-0.1167449726278032
 20
-56.00178758757236
 30
0.0
 11
-0.1167449726278559
 21
-52.42445084015749
 31
0.0
  0
LINE
  5
B8
330
1F
100
AcDbEntity
  8
0
100
AcDbLine
 10
-1.586164579390172
 20
-58.17245376360783
 30
0.0
 11
-0.1167449726278032
 21
-56.00178758757236
 31
0.0
  0
LINE
  5
B9
330
1F
100
AcDbEntity
  8
0
100
AcDbLine
 10
-5.737675365317925
 20
-55.70720710818693
 30
0.0
 11
-4.503201792557379
 21
-58.01957832117973
 31
0.0
  0
LINE
  5
BA
330
1F
100
AcDbEntity
  8
0
100
AcDbLine
 10
-5.363741852519777
 20
-52.1494673857773
 30
0.0
 11
-5.737675365317925
 21
-55.70720710818693
 31
0.0
  0
LINE
  5
BB
330
1F
100
AcDbEntity
  8
0
100
AcDbLine
 10
-11.01385002924331
 20
-51.25457816443384
 30
0.0
 11
-5.363741852519777
 21
-52.1494673857773
 31
0.0
  0
LINE
  5
BC
330
1F
100
AcDbEntity
  8
0
100
AcDbLine
 10
-11.75762016102279
 20
-54.7537415209346
 30
0.0
 11
-11.01385002924331
 21
-51.25457816443384
 31
0.0
  0
LINE
  5
BD
330
1F
100
AcDbEntity
  8
0
100
AcDbLine
 10
-13.64623629870906
 20
-56.571463918055
 30
0.0
 11
-11.75762016102279
 21
-54.7537415209346
 31
0.0
  0
LINE
  5
BE
330
1F
100
AcDbEntity
  8
0
100
AcDbLine
 10
-17.19447301297343
 20
-53.2969411898876
 30
0.0
 11
-16.46774465830007
 21
-55.81544303166491
 31
0.0
  0
LINE
  5
BF
330
1F
100
AcDbEntity
  8
0
100
AcDbLine
 10
-16.08901516342028
 20
-49.89469176527654
 30
0.0
 11
-17.19447301297343
 21
-53.2969411898876
 31
0.0
  0
LINE
  5
C0
330
1F
100
AcDbEntity
  8
0
100
AcDbLine
 10
-21.42959698926474
 20
-47.84463447617109
 30
0.0
 11
-16.08901516342028
 21
-49.89469176527654
 31
0.0
  0
LINE
  5
C1
330
1F
100
AcDbEntity
  8
0
100
AcDbLine
 10
-22.88463092905992
 20
-51.11269421222991
 30
0.0
 11
-21.42959698926474
 21
-47.84463447617109
 31
0.0
  0
LINE
  5
C2
330
1F
100
AcDbEntity
  8
0
100
AcDbLine
 10
-25.10990200986751
 20
-52.49802963928127
 30
0.0
 11
-22.88463092905992
 21
-51.11269421222991
 31
0.0
  0
LINE
  5
C3
330
1F
100
AcDbEntity
  8
0
100
AcDbLine
 10
-27.89978968172634
 20
-48.55734319449167
 30
0.0
 11
-27.71256806146891
 21
-51.17190504945516
 31
0.0
  0
LINE
  5
C4
330
1F
100
AcDbEntity
  8
0
100
AcDbLine
 10
-26.11112130801894
 20
-45.45927869333875
 30
0.0
 11
-27.89978968172634
 21
-48.55734319449167
 31
0.0
  0
LINE
  5
C5
330
1F
100
AcDbEntity
  8
0
100
AcDbLine
 10
-30.9087677302401
 20
-42.34365067727145
 30
0.0
 11
-26.11112130801894
 21
-45.45927869333875
 31
0.0
  0
LINE
  5
C6
330
1F
100
AcDbEntity
  8
0
100
AcDbLine
 10
-33.01147351285442
 20
-45.23777690053213
 30
0.0
 11
-30.9087677302401
 21
-42.34365067727145
 31
0.0
  0
LINE
  5
C7
330
1F
100
AcDbEntity
  8
0
100
AcDbLine
 10
-35.47614451251668
 20
-46.13017955177539
 30
0.0
 11
-33.01147351285442
 21
-45.23777690053213
 31
0.0
  0
LINE
  5
C8
330
1F
100
AcDbEntity
  8
0
100
AcDbLine
 10
-37.38575166334338
 20
-41.69555629751241
 30
0.0
 11
-37.74621926069617
 21
-44.29190926654044
 31
0.0
  0
LINE
  5
C9
330
1F
100
AcDbEntity
  8
0
100
AcDbLine
 10
-34.99204615639588
 20
-39.03707700468087
 30
0.0
 11
-37.38575166334338
 21
-41.69555629751241
 31
0.0
  0
LINE
  5
CA
330
1F
100
AcDbEntity
  8
0
100
AcDbLine
 10
-39.03707700468089
 20
-34.99204615639584
 30
0.0
 11
-34.99204615639588
 21
-39.03707700468087
 31
0.0
  0
LINE
  5
CB
330
1F
100
AcDbEntity
  8
0
100
AcDbLine
 10
-41.69555629751234
 20
-37.38575166334344
 30
0.0
 11
-39.03707700468089
 21
-34.99204615639584
 31
0.0
  0
LINE
  5
CC
330
1F
100
AcDbEntity
  8
0
100
AcDbLine
 10
-44.2919092665404
 20
-37.74621926069624
 30
0.0
 11
-41.69555629751234
 21
-37.38575166334344
 31
0.0
  0
LINE
  5
CD
330
1F
100
AcDbEntity
  8
0
100
AcDbLine
 10
-45.23777690053208
 20
-33.01147351285451
 30
0.0
 11
-46.13017955177533
 21
-35.47614451251674
 31
0.0
  0
LINE
  5
CE
330
1F
100
AcDbEntity
  8
0
100
AcDbLine
 10
-42.34365067727149
 20
-30.90876773024006
 30
0.0
 11
-45.23777690053208
 21
-33.01147351285451
 31
0.0
  0
LINE
  5
CF
330
1F
100
AcDbEntity
  8
0
100
AcDbLine
 10
-45.45927869333876
 20
-26.11112130801892
 30
0.0
 11
-42.34365067727149
 21
-30.90876773024006
 31
0.0
  0
LINE
  5
D0
330
1F
100
AcDbEntity
  8
0
100
AcDbLine
 10
-48.55734319449159
 20
-27.89978968172641
 30
0.0
 11
-45.45927869333876
 21
-26.11112130801892
 31
0.0
  0
LINE
  5
D1
330
1F
100
AcDbEntity
  8
0
100
AcDbLine
 10
-51.17190504945513
 20
-27.71256806146901
 30
0.0
 11
-48.55734319449159
 21
-27.89978968172641
 31
0.0
  0
LINE
  5
D2
330
1F
100
AcDbEntity
  8
0
100
AcDbLine
 10
-51.11269421222988
 20
-22.88463092906002
 30
0.0
 11
-52.49802963928121
 21
-25.10990200986759
 31
0.0
  0
LINE
  5
D3
330
1F
100
AcDbEntity
  8
0
100
AcDbLine
 10
-47.8446344761711
 20
-21.42959698926472
 30
0.0
 11
-51.11269421222988
 21
-22.88463092906002
 31
0.0
  0
LINE
  5
D4
330
1F
100
AcDbEntity
  8
0
100
AcDbLine
 10
-49.89469176527656
 20
-16.08901516342023
 30
0.0
 11
-47.8446344761711
 21
-21.42959698926472
 31
0.0
  0
LINE
  5
D5
330
1F
100
AcDbEntity
  8
0
100
AcDbLine
 10
-53.29694118988755
 20
-17.19447301297349
 30
0.0
 11
-49.89469176527656
 21
-16.08901516342023
 31
0.0
  0
LINE
  5
D6
330
1F
100
AcDbEntity
  8
0
100
AcDbLine
 10
-55.8154430316649
 20
-16.46774465830013
 30
0.0
 11
-53.29694118988755
 21
-17.19447301297349
 31
0.0
  0
LINE
  5
D7
330
1F
100
AcDbEntity
  8
0
100
AcDbLine
 10
-54.75374152093459
 20
-11.75762016102287
 30
0.0
 11
-56.57146391805497
 21
-13.64623629870913
 31
0.0
  0
LINE
  5
D8
330
1F
100
AcDbEntity
  8
0
100
AcDbLine
 10
-51.25457816443387
 20
-11.01385002924327
 30
0.0
 11
-54.75374152093459
 21
-11.75762016102287
 31
0.0
  0
LINE
  5
D9
330
1F
100
AcDbEntity
  8
0
100
AcDbLine
 10
-52.14946738577731
 20
-5.363741852519737
 30
0.0
 11
-51.25457816443387
 21
-11.01385002924327
 31
0.0
  0
LINE
  5
DA
330
1F
100
AcDbEntity
  8
0
100
AcDbLine
 10
-55.70720710818691
 20
-5.73767536531797
 30
0.0
 11
-52.14946738577731
 21
-5.363741852519737
 31
0.0
  0
LINE
  5
DB
330
1F
100
AcDbEntity
  8
0
100
AcDbLine
 10
-58.01957832117975
 20
-4.503201792557426
 30
0.0
 11
-55.70720710818691
 21
-5.73767536531797
 31
0.0
  0
LINE
  5
DC
330
1F
100
AcDbEntity
  8
0
100
AcDbLine
 10
-56.00178758757237
 20
-0.1167449726278559
 30
0.0
 11
-58.17245376360782
 21
-1.586164579390218
 31
0.0
  0
LINE
  5
DD
330
1F
100
AcDbEntity
  8
0
100
AcDbLine
 10
-52.4244508401575
 20
-0.1167449726278098
 30
0.0
 11
-56.00178758757237
 21
-0.1167449726278559
 31
0.0
  0
LINE
  5
DE
330
1F
100
AcDbEntity
  8
0
100
AcDbLine
 10
-52.12506104061129
 20
5.595952715424866
 30
0.0
 11
-52.4244508401575
 21
-0.1167449726278098
 31
0.0
  0
LINE
  5
DF
330
1F
100
AcDbEntity
  8
0
100
AcDbLine
 10
-55.68280076302089
 20
5.969886228223021
 30
0.0
 11
-52.12506104061129
 21
5.595952715424866
 31
0.0
  0
LINE
  5
E0
330
1F
100
AcDbEntity
  8
0
100
AcDbLine
 10
-57.68797962923327
 20
7.658152600279695
 30
0.0
 11
-55.68280076302089
 21
5.969886228223021
 31
0.0
  0
LINE
  5
E1
330
1F
100
AcDbEntity
  8
0
100
AcDbLine
 10
-54.80228681024165
 20
11.52923253127553
 30
0.0
 11
-57.23102823728749
 21
10.54323014331016
 31
0.0
  0
LINE
  5
E2
330
1F
100
AcDbEntity
  8
0
100
AcDbLine
 10
-51.30312345374092
 20
10.78546239949604
 30
0.0
 11
-54.80228681024165
 21
11.52923253127553
 31
0.0
  0
LINE
  5
E3
330
1F
100
AcDbEntity
  8
0
100
AcDbLine
 10
-49.82253940417689
 20
16.31107729734508
 30
0.0
 11
-51.30312345374092
 21
10.78546239949604
 31
0.0
  0
LINE
  5
E4
330
1F
100
AcDbEntity
  8
0
100
AcDbLine
 10
-53.22478882878791
 20
17.41653514689825
 30
0.0
 11
-49.82253940417689
 21
16.31107729734508
 31
0.0
  0
LINE
  5
E5
330
1F
100
AcDbEntity
  8
0
100
AcDbLine
 10
-54.83513940985061
 20
19.48480897659129
 30
0.0
 11
-53.22478882878791
 21
17.41653514689825
 31
0.0
  0
LINE
  5
E6
330
1F
100
AcDbEntity
  8
0
100
AcDbLine
 10
-51.20766312875515
 20
22.67132725016644
 30
0.0
 11
-53.78833215205505
 21
22.21183511671657
 31
0.0
  0
LINE
  5
E7
330
1F
100
AcDbEntity
  8
0
100
AcDbLine
 10
-47.93960339269633
 20
21.21629331037122
 30
0.0
 11
-51.20766312875515
 21
22.67132725016644
 31
0.0
  0
LINE
  5
E8
330
1F
100
AcDbEntity
  8
0
100
AcDbLine
 10
-45.34253372071093
 20
26.31332953213858
 30
0.0
 11
-47.93960339269633
 21
21.21629331037122
 31
0.0
  0
LINE
  5
E9
330
1F
100
AcDbEntity
  8
0
100
AcDbLine
 10
-48.4405982218638
 20
28.10199790584601
 30
0.0
 11
-45.34253372071093
 21
26.31332953213858
 31
0.0
  0
LINE
  5
EA
330
1F
100
AcDbEntity
  8
0
100
AcDbLine
 10
-49.58574047006496
 20
30.4598857021389
 30
0.0
 11
-48.4405982218638
 21
28.10199790584601
 31
0.0
  0
LINE
  5
EB
330
1F
100
AcDbEntity
  8
0
100
AcDbLine
 10
-45.37501884691196
 20
32.82257617912698
 30
0.0
 11
-47.99482784672383
 21
32.90967631131223
 31
0.0
  0
LINE
  5
EC
330
1F
100
AcDbEntity
  8
0
100
AcDbLine
 10
-42.48089262365133
 20
30.7198703965126
 30
0.0
 11
-45.37501884691196
 21
32.82257617912698
 31
0.0
  0
LINE
  5
ED
330
1F
100
AcDbEntity
  8
0
100
AcDbLine
 10
-38.88084173603327
 20
35.16556300101362
 30
0.0
 11
-42.48089262365133
 21
30.7198703965126
 31
0.0
  0
LINE
  5
EE
330
1F
100
AcDbEntity
  8
0
100
AcDbLine
 10
-41.53932102886473
 20
37.55926850796117
 30
0.0
 11
-38.88084173603327
 21
35.16556300101362
 31
0.0
  0
LINE
  5
EF
330
1F
100
AcDbEntity
  8
0
100
AcDbLine
 10
-42.16920673295581
 20
40.10371925975492
 30
0.0
 11
-41.53932102886473
 21
37.55926850796117
 31
0.0
  0
LINE
  5
F0
330
1F
100
AcDbEntity
  8
0
100
AcDbLine
 10
-37.55926850796111
 20
41.53932102886478
 30
0.0
 11
-40.10371925975486
 21
42.16920673295586
 31
0.0
  0
LINE
  5
F1
330
1F
100
AcDbEntity
  8
0
100
AcDbLine
 10
-35.1655630010136
 20
38.88084173603328
 30
0.0
 11
-37.55926850796111
 21
41.53932102886478
 31
0.0
  0
LINE
  5
F2
330
1F
100
AcDbEntity
  8
0
100
AcDbLine
 10
-30.71987039651257
 20
42.48089262365134
 30
0.0
 11
-35.1655630010136
 21
38.88084173603328
 31
0.0
  0
LINE
  5
F3
330
1F
100
AcDbEntity
  8
0
100
AcDbLine
 10
-32.82257617912693
 20
45.37501884691197
 30
0.0
 11
-30.71987039651257
 21
42.48089262365134
 31
0.0
  0
LINE
  5
F4
330
1F
100
AcDbEntity
  8
0
100
AcDbLine
 10
-32.90967631131218
 20
47.99482784672388
 30
0.0
 11
-32.82257617912693
 21
45.37501884691197
 31
0.0
  0
LINE
  5
F5
330
1F
100
AcDbEntity
  8
0
100
AcDbLine
 10
-28.10199790584597
 20
48.44059822186383
 30
0.0
 11
-30.45988570213883
 21
49.58574047006498
 31
0.0
  0
LINE
  5
F6
330
1F
100
AcDbEntity
  8
0
100
AcDbLine
 10
-26.31332953213857
 20
45.34253372071094
 30
0.0
 11
-28.10199790584597
 21
48.44059822186383
 31
0.0
  0
LINE
  5
F7
330
1F
100
AcDbEntity
  8
0
100
AcDbLine
 10
-21.21629331037121
 20
47.93960339269635
 30
0.0
 11
-26.31332953213857
 21
45.34253372071094
 31
0.0
  0
LINE
  5
F8
330
1F
100
AcDbEntity
  8
0
100
AcDbLine
 10
-22.67132725016637
 20
51.20766312875516
 30
0.0
 11
-21.21629331037121
 21
47.93960339269635
 31
0.0
  0
LINE
  5
F9
330
1F
100
AcDbEntity
  8
0
100
AcDbLine
 10
-22.2118351167165
 20
53.78833215205508
 30
0.0
 11
-22.67132725016637
 21
51.20766312875516
 31
0.0
  0
LINE
  5
FA
330
1F
100
AcDbEntity
  8
0
100
AcDbLine
 10
-17.41653514689819
 20
53.22478882878792
 30
0.0
 11
-19.48480897659122
 21
54.83513940985062
 31
0.0
  0
LINE
  5
FB
330
1F
100
AcDbEntity
  8
0
100
AcDbLine
 10
-16.31107729734505
 20
49.82253940417689
 30
0.0
 11
-17.41653514689819
 21
53.22478882878792
 31
0.0
  0
LINE
  5
FC
330
1F
100
AcDbEntity
  8
0
100
AcDbLine
 10
-10.785462399496
 20
51.30312345374094
 30
0.0
 11
-16.31107729734505
 21
49.82253940417689
 31
0.0
  0
LINE
  5
FD
330
1F
100
AcDbEntity
  8
0
100
AcDbLine
 10
-11.52923253127546
 20
54.80228681024166
 30
0.0
 11
-10.785462399496
 21
51.30312345374094
 31
0.0
  0
LINE
  5
FE
330
1F
100
AcDbEntity
  8
0
100
AcDbLine
 10
-10.54323014331009
 20
57.23102823728753
 30
0.0
 11
-11.52923253127546
 21
54.80228681024166
 31
0.0
  0
LINE
  5
FF
330
1F
100
AcDbEntity
  8
0
100
AcDbLine
 10
-5.969886228222961
 20
55.68280076302091
 30
0.0
 11
-7.658152600279616
 21
57.68797962923326
 31
0.0
  0
LINE
  5
100
330
1F
100
AcDbEntity
  8
0
100
AcDbLine
 10
-5.595952715424847
 20
52.12506104061129
 30
0.0
 11
-5.969886228222961
 21
55.68280076302091
 31
0.0
  0
LINE
  5
101
330
1F
100
AcDbEntity
  8
0
100
AcDbLine
 10
30.63611095191487
 20
36.77674448746064
 30
0.0
 11
26.62406654534966
 21
39.77762323144507
 31
0.0
  0
LINE
  5
102
330
1F
100
AcDbEntity
  8
0
100
AcDbLine
 10
-30.63611095191485
 20
-36.77674448746064
 30
0.0
 11
-26.62406654534966
 21
-39.77762323144506
 31
0.0
  0
LINE
  5
103
330
1F
100
AcDbEntity
  8
0
100
AcDbLine
 10
34.31249971587251
 20
33.37293203484308
 30
0.0
 11
30.63611095191487
 21
36.77674448746064
 31
0.0
  0
LINE
  5
104
330
1F
100
AcDbEntity
  8
0
100
AcDbLine
 10
-34.31249971587249
 20
-33.37293203484307
 30
0.0
 11
-30.63611095191485
 21
-36.77674448746064
 31
0.0
  0
LINE
  5
105
330
1F
100
AcDbEntity
  8
0
100
AcDbLine
 10
11.74555708300937
 20
-46.40196243871343
 30
0.0
 11
16.53153951867282
 21
-44.92002260124724
 31
0.0
  0
LINE
  5
106
330
1F
100
AcDbEntity
  8
0
100
AcDbLine
 10
37.61295355259084
 20
29.60347875511676
 30
0.0
 11
34.31249971587251
 21
33.37293203484308
 31
0.0
  0
LINE
  5
107
330
1F
100
AcDbEntity
  8
0
100
AcDbLine
 10
-37.61295355259083
 20
-29.60347875511675
 30
0.0
 11
-34.31249971587249
 21
-33.37293203484307
 31
0.0
  0
LINE
  5
108
330
1F
100
AcDbEntity
  8
0
100
AcDbLine
 10
42.94592959604275
 20
21.13639894792263
 30
0.0
 11
40.50131199917046
 21
25.50968356722315
 31
0.0
  0
LINE
  5
109
330
1F
100
AcDbEntity
  8
0
100
AcDbLine
 10
-40.50131199917044
 20
-25.50968356722317
 30
0.0
 11
-37.61295355259083
 21
-29.60347875511675
 31
0.0
  0
LINE
  5
10A
330
1F
100
AcDbEntity
  8
0
100
AcDbLine
 10
-42.94592959604275
 20
-21.13639894792263
 30
0.0
 11
-40.50131199917044
 21
-25.50968356722317
 31
0.0
  0
LINE
  5
10B
330
1F
100
AcDbEntity
  8
0
100
AcDbLine
 10
-22.32032329426953
 20
-42.34269001130292
 30
0.0
 11
-17.77203391034942
 21
-44.44384141861944
 31
0.0
  0
LINE
  5
10C
330
1F
100
AcDbEntity
  8
0
100
AcDbLine
 10
-44.92002260124725
 20
-16.53153951867281
 30
0.0
 11
-42.94592959604275
 21
-21.13639894792263
 31
0.0
  0
LINE
  5
10D
330
1F
100
AcDbEntity
  8
0
100
AcDbLine
 10
46.40196243871345
 20
11.74555708300933
 30
0.0
 11
44.92002260124725
 21
16.53153951867282
 31
0.0
  0
LINE
  5
10E
330
1F
100
AcDbEntity
  8
0
100
AcDbLine
 10
-46.40196243871345
 20
-11.74555708300935
 30
0.0
 11
-44.92002260124725
 21
-16.53153951867281
 31
0.0
  0
LINE
  5
10F
330
1F
100
AcDbEntity
  8
0
100
AcDbLine
 10
47.3755126654662
 20
6.830887866028608
 30
0.0
 11
46.40196243871345
 21
11.74555708300933
 31
0.0
  0
LINE
  5
110
330
1F
100
AcDbEntity
  8
0
100
AcDbLine
 10
-47.37551266546619
 20
-6.830887866028608
 30
0.0
 11
-46.40196243871345
 21
-11.74555708300935
 31
0.0
  0
LINE
  5
111
330
1F
100
AcDbEntity
  8
0
100
AcDbLine
 10
47.83000686149272
 20
1.841378012132497
 30
0.0
 11
47.3755126654662
 21
6.830887866028608
 31
0.0
  0
LINE
  5
112
330
1F
100
AcDbEntity
  8
0
100
AcDbLine
 10
-47.8300068614927
 20
-1.841378012132497
 30
0.0
 11
-47.37551266546619
 21
-6.830887866028608
 31
0.0
  0
LINE
  5
113
330
1F
100
AcDbEntity
  8
0
100
AcDbLine
 10
40.50131199917046
 20
25.50968356722315
 30
0.0
 11
37.61295355259084
 21
29.60347875511676
 31
0.0
  0
LINE
  5
114
330
1F
100
AcDbEntity
  8
0
100
AcDbLine
 10
47.16765047058766
 20
-8.143278113786602
 30
0.0
 11
47.7604654932723
 21
-3.168306364597711
 31
0.0
  0
LINE
  5
115
330
1F
100
AcDbEntity
  8
0
100
AcDbLine
 10
-47.16765047058767
 20
8.143278113786602
 30
0.0
 11
-47.76046549327231
 21
3.168306364597691
 31
0.0
  0
LINE
  5
116
330
1F
100
AcDbEntity
  8
0
100
AcDbLine
 10
46.05805679888186
 20
-13.02903040387036
 30
0.0
 11
47.16765047058766
 21
-8.143278113786602
 31
0.0
  0
LINE
  5
117
330
1F
100
AcDbEntity
  8
0
100
AcDbLine
 10
44.44384141861944
 20
-17.77203391034945
 30
0.0
 11
46.05805679888186
 21
-13.02903040387036
 31
0.0
  0
LINE
  5
118
330
1F
100
AcDbEntity
  8
0
100
AcDbLine
 10
-46.05805679888186
 20
13.02903040387037
 30
0.0
 11
-47.16765047058767
 21
8.143278113786602
 31
0.0
  0
LINE
  5
119
330
1F
100
AcDbEntity
  8
0
100
AcDbLine
 10
-44.44384141861946
 20
17.77203391034944
 30
0.0
 11
-46.05805679888186
 21
13.02903040387037
 31
0.0
  0
LINE
  5
11A
330
1F
100
AcDbEntity
  8
0
100
AcDbLine
 10
44.92002260124725
 20
16.53153951867282
 30
0.0
 11
42.94592959604275
 21
21.13639894792263
 31
0.0
  0
LINE
  5
11B
330
1F
100
AcDbEntity
  8
0
100
AcDbLine
 10
-42.34269001130295
 20
22.32032329426954
 30
0.0
 11
-44.44384141861946
 21
17.77203391034944
 31
0.0
  0
LINE
  5
11C
330
1F
100
AcDbEntity
  8
0
100
AcDbLine
 10
-39.77762323144506
 20
26.62406654534967
 30
0.0
 11
-42.34269001130295
 21
22.32032329426954
 31
0.0
  0
LINE
  5
11D
330
1F
100
AcDbEntity
  8
0
100
AcDbLine
 10
36.77674448746064
 20
-30.63611095191487
 30
0.0
 11
39.77762323144506
 21
-26.62406654534966
 31
0.0
  0
LINE
  5
11E
330
1F
100
AcDbEntity
  8
0
100
AcDbLine
 10
-36.77674448746065
 20
30.63611095191485
 30
0.0
 11
-39.77762323144506
 21
26.62406654534967
 31
0.0
  0
LINE
  5
11F
330
1F
100
AcDbEntity
  8
0
100
AcDbLine
 10
33.37293203484307
 20
-34.31249971587249
 30
0.0
 11
36.77674448746064
 21
-30.63611095191487
 31
0.0
  0
LINE
  5
120
330
1F
100
AcDbEntity
  8
0
100
AcDbLine
 10
-33.37293203484308
 20
34.31249971587248
 30
0.0
 11
-36.77674448746065
 21
30.63611095191485
 31
0.0
  0
LINE
  5
121
330
1F
100
AcDbEntity
  8
0
100
AcDbLine
 10
29.60347875511678
 20
-37.61295355259082
 30
0.0
 11
33.37293203484307
 21
-34.31249971587249
 31
0.0
  0
LINE
  5
122
330
1F
100
AcDbEntity
  8
0
100
AcDbLine
 10
-29.60347875511677
 20
37.61295355259082
 30
0.0
 11
-33.37293203484308
 21
34.31249971587248
 31
0.0
  0
LINE
  5
123
330
1F
100
AcDbEntity
  8
0
100
AcDbLine
 10
39.77762323144506
 20
-26.62406654534966
 30
0.0
 11
42.34269001130294
 21
-22.32032329426953
 31
0.0
  0
LINE
  5
124
330
1F
100
AcDbEntity
  8
0
100
AcDbLine
 10
42.34269001130294
 20
-22.32032329426953
 30
0.0
 11
44.44384141861944
 21
-17.77203391034945
 31
0.0
  0
LINE
  5
125
330
1F
100
AcDbEntity
  8
0
100
AcDbLine
 10
25.50968356722317
 20
-40.50131199917045
 30
0.0
 11
29.60347875511678
 21
-37.61295355259082
 31
0.0
  0
LINE
  5
126
330
1F
100
AcDbEntity
  8
0
100
AcDbLine
 10
-25.5096835672232
 20
40.50131199917046
 30
0.0
 11
-29.60347875511677
 21
37.61295355259082
 31
0.0
  0
LINE
  5
127
330
1F
100
AcDbEntity
  8
0
100
AcDbLine
 10
21.13639894792263
 20
-42.94592959604273
 30
0.0
 11
25.50968356722317
 21
-40.50131199917045
 31
0.0
  0
LINE
  5
128
330
1F
100
AcDbEntity
  8
0
100
AcDbLine
 10
-21.13639894792265
 20
42.94592959604273
 30
0.0
 11
-25.5096835672232
 21
40.50131199917046
 31
0.0
  0
LINE
  5
129
330
1F
100
AcDbEntity
  8
0
100
AcDbLine
 10
16.53153951867282
 20
-44.92002260124724
 30
0.0
 11
21.13639894792263
 21
-42.94592959604273
 31
0.0
  0
LINE
  5
12A
330
1F
100
AcDbEntity
  8
0
100
AcDbLine
 10
-16.53153951867283
 20
44.92002260124725
 30
0.0
 11
-21.13639894792265
 21
42.94592959604273
 31
0.0
  0
LINE
  5
12B
330
1F
100
AcDbEntity
  8
0
100
AcDbLine
 10
-11.74555708300938
 20
46.40196243871345
 30
0.0
 11
-16.53153951867283
 21
44.92002260124725
 31
0.0
  0
LINE
  5
12C
330
1F
100
AcDbEntity
  8
0
100
AcDbLine
 10
6.83088786602862
 20
-47.37551266546618
 30
0.0
 11
11.74555708300937
 21
-46.40196243871343
 31
0.0
  0
LINE
  5
12D
330
1F
100
AcDbEntity
  8
0
100
AcDbLine
 10
-6.830887866028633
 20
47.37551266546619
 30
0.0
 11
-11.74555708300938
 21
46.40196243871345
 31
0.0
  0
LINE
  5
12E
330
1F
100
AcDbEntity
  8
0
100
AcDbLine
 10
1.84137801213251
 20
-47.83000686149269
 30
0.0
 11
6.83088786602862
 21
-47.37551266546618
 31
0.0
  0
LINE
  5
12F
330
1F
100
AcDbEntity
  8
0
100
AcDbLine
 10
-1.84137801213251
 20
47.8300068614927
 30
0.0
 11
-6.830887866028633
 21
47.37551266546619
 31
0.0
  0
LINE
  5
130
330
1F
100
AcDbEntity
  8
0
100
AcDbLine
 10
-8.143278113786602
 20
-47.16765047058765
 30
0.0
 11
-3.168306364597679
 21
-47.7604654932723
 31
0.0
  0
LINE
  5
131
330
1F
100
AcDbEntity
  8
0
100
AcDbLine
 10
8.143278113786575
 20
47.16765047058767
 30
0.0
 11
3.168306364597679
 21
47.76046549327231
 31
0.0
  0
LINE
  5
132
330
1F
100
AcDbEntity
  8
0
100
AcDbLine
 10
-13.02903040387036
 20
-46.05805679888184
 30
0.0
 11
-8.143278113786602
 21
-47.16765047058765
 31
0.0
  0
LINE
  5
133
330
1F
100
AcDbEntity
  8
0
100
AcDbLine
 10
13.02903040387036
 20
46.05805679888185
 30
0.0
 11
8.143278113786575
 21
47.16765047058767
 31
0.0
  0
LINE
  5
134
330
1F
100
AcDbEntity
  8
0
100
AcDbLine
 10
-17.77203391034942
 20
-44.44384141861944
 30
0.0
 11
-13.02903040387036
 21
-46.05805679888184
 31
0.0
  0
LINE
  5
135
330
1F
100
AcDbEntity
  8
0
100
AcDbLine
 10
17.77203391034941
 20
44.44384141861946
 30
0.0
 11
13.02903040387036
 21
46.05805679888185
 31
0.0
  0
LINE
  5
136
330
1F
100
AcDbEntity
  8
0
100
AcDbLine
 10
22.32032329426951
 20
42.34269001130294
 30
0.0
 11
17.77203391034941
 21
44.44384141861946
 31
0.0
  0
LINE
  5
137
330
1F
100
AcDbEntity
  8
0
100
AcDbLine
 10
-26.62406654534966
 20
-39.77762323144506
 30
0.0
 11
-22.32032329426953
 21
-42.34269001130292
 31
0.0
  0
LINE
  5
138
330
1F
100
AcDbEntity
  8
0
100
AcDbLine
 10
26.62406654534966
 20
39.77762323144507
 30
0.0
 11
22.32032329426951
 21
42.34269001130294
 31
0.0
  0
LINE
  5
139
330
1F
100
AcDbEntity
  8
0
100
AcDbLine
 10
-5.032783369037458
 20
7.867603117667135
 30
0.0
 11
-5.827601718642599
 21
7.298434453063158
 31
0.0
  0
LINE
  5
13A
330
1F
100
AcDbEntity
  8
0
100
AcDbLine
 10
-7.797718867216021
 20
5.14039567782956
 30
0.0
 11
-8.292319808163835
 21
4.297152482274662
 31
0.0
  0
LINE
  5
13B
330
1F
100
AcDbEntity
  8
0
100
AcDbLine
 10
-4.18282479166351
 20
8.350572676112142
 30
0.0
 11
-5.032783369037458
 21
7.867603117667135
 31
0.0
  0
LINE
  5
13C
330
1F
100
AcDbEntity
  8
0
100
AcDbLine
 10
0.5528538088961079
 20
9.32322046949307
 30
0.0
 11
-0.424716690496713
 21
9.329935851312118
 31
0.0
  0
LINE
  5
13D
330
1F
100
AcDbEntity
  8
0
100
AcDbLine
 10
4.297152482274648
 20
8.292319808163835
 30
0.0
 11
3.40682878488698
 21
8.696068358013921
 31
0.0
  0
LINE
  5
13E
330
1F
100
AcDbEntity
  8
0
100
AcDbLine
 10
5.140395677829547
 20
7.797718867216021
 30
0.0
 11
4.297152482274648
 21
8.292319808163835
 31
0.0
  0
LINE
  5
13F
330
1F
100
AcDbEntity
  8
0
100
AcDbLine
 10
-3.287038310559744
 20
8.742051612847995
 30
0.0
 11
-4.18282479166351
 21
8.350572676112142
 31
0.0
  0
LINE
  5
140
330
1F
100
AcDbEntity
  8
0
100
AcDbLine
 10
-2.355238349868493
 20
9.037750802721565
 30
0.0
 11
-3.287038310559744
 21
8.742051612847995
 31
0.0
  0
LINE
  5
141
330
1F
100
AcDbEntity
  8
0
100
AcDbLine
 10
-1.397633904950771
 20
9.234430503529587
 30
0.0
 11
-2.355238349868493
 21
9.037750802721565
 31
0.0
  0
LINE
  5
142
330
1F
100
AcDbEntity
  8
0
100
AcDbLine
 10
2.479179158407324
 20
9.004540963164327
 30
0.0
 11
1.524367126266568
 21
9.214357933200958
 31
0.0
  0
LINE
  5
143
330
1F
100
AcDbEntity
  8
0
100
AcDbLine
 10
3.40682878488698
 20
8.696068358013921
 30
0.0
 11
2.479179158407324
 21
9.004540963164327
 31
0.0
  0
LINE
  5
144
330
1F
100
AcDbEntity
  8
0
100
AcDbLine
 10
-7.217684486581414
 20
5.927319622641208
 30
0.0
 11
-7.797718867216021
 21
5.14039567782956
 31
0.0
  0
LINE
  5
145
330
1F
100
AcDbEntity
  8
0
100
AcDbLine
 10
-5.827601718642599
 20
7.298434453063158
 30
0.0
 11
-6.558571644314234
 21
6.64930261329583
 31
0.0
  0
LINE
  5
146
330
1F
100
AcDbEntity
  8
0
100
AcDbLine
 10
-6.558571644314234
 20
6.64930261329583
 30
0.0
 11
-7.217684486581414
 21
5.927319622641208
 31
0.0
  0
LINE
  5
147
330
1F
100
AcDbEntity
  8
0
100
AcDbLine
 10
-8.292319808163835
 20
4.297152482274662
 30
0.0
 11
-8.696068358013921
 21
3.40682878488698
 31
0.0
  0
LINE
  5
148
330
1F
100
AcDbEntity
  8
0
100
AcDbLine
 10
-8.696068358013921
 20
3.40682878488698
 30
0.0
 11
-9.004540963164315
 21
2.479179158407337
 31
0.0
  0
LINE
  5
149
330
1F
100
AcDbEntity
  8
0
100
AcDbLine
 10
-9.004540963164315
 20
2.479179158407337
 30
0.0
 11
-9.214357933200944
 21
1.524367126266581
 31
0.0
  0
LINE
  5
14A
330
1F
100
AcDbEntity
  8
0
100
AcDbLine
 10
-9.32322046949307
 20
0.552853808896121
 30
0.0
 11
-9.329935851312106
 21
-0.4247166904966996
 31
0.0
  0
LINE
  5
14B
330
1F
100
AcDbEntity
  8
0
100
AcDbLine
 10
-9.234430503529573
 20
-1.397633904950758
 30
0.0
 11
-9.037750802721565
 21
-2.355238349868479
 31
0.0
  0
LINE
  5
14C
330
1F
100
AcDbEntity
  8
0
100
AcDbLine
 10
-9.037750802721565
 20
-2.355238349868479
 30
0.0
 11
-8.742051612847982
 21
-3.287038310559736
 31
0.0
  0
LINE
  5
14D
330
1F
100
AcDbEntity
  8
0
100
AcDbLine
 10
-8.742051612847982
 20
-3.287038310559736
 30
0.0
 11
-8.35057267611213
 21
-4.182824791663503
 31
0.0
  0
LINE
  5
14E
330
1F
100
AcDbEntity
  8
0
100
AcDbLine
 10
-8.35057267611213
 20
-4.182824791663503
 30
0.0
 11
-7.867603117667122
 21
-5.032783369037451
 31
0.0
  0
LINE
  5
14F
330
1F
100
AcDbEntity
  8
0
100
AcDbLine
 10
-7.867603117667122
 20
-5.032783369037451
 30
0.0
 11
-7.298434453063151
 21
-5.827601718642593
 31
0.0
  0
LINE
  5
150
330
1F
100
AcDbEntity
  8
0
100
AcDbLine
 10
-7.298434453063151
 20
-5.827601718642593
 30
0.0
 11
-6.64930261329583
 21
-6.558571644314227
 31
0.0
  0
LINE
  5
151
330
1F
100
AcDbEntity
  8
0
100
AcDbLine
 10
-6.64930261329583
 20
-6.558571644314227
 30
0.0
 11
-5.927319622641208
 21
-7.2176844865814
 31
0.0
  0
LINE
  5
152
330
1F
100
AcDbEntity
  8
0
100
AcDbLine
 10
-5.927319622641208
 20
-7.2176844865814
 30
0.0
 11
-5.140395677829554
 21
-7.797718867216014
 31
0.0
  0
LINE
  5
153
330
1F
100
AcDbEntity
  8
0
100
AcDbLine
 10
-5.140395677829554
 20
-7.797718867216014
 30
0.0
 11
-4.297152482274648
 21
-8.292319808163821
 31
0.0
  0
LINE
  5
154
330
1F
100
AcDbEntity
  8
0
100
AcDbLine
 10
-4.297152482274648
 20
-8.292319808163821
 30
0.0
 11
-3.40682878488698
 21
-8.696068358013916
 31
0.0
  0
LINE
  5
155
330
1F
100
AcDbEntity
  8
0
100
AcDbLine
 10
-3.40682878488698
 20
-8.696068358013916
 30
0.0
 11
-2.479179158407324
 21
-9.004540963164308
 31
0.0
  0
LINE
  5
156
330
1F
100
AcDbEntity
  8
0
100
AcDbLine
 10
-2.479179158407324
 20
-9.004540963164308
 30
0.0
 11
-1.524367126266575
 21
-9.214357933200937
 31
0.0
  0
LINE
  5
157
330
1F
100
AcDbEntity
  8
0
100
AcDbLine
 10
-0.5528538088961146
 20
-9.323220469493055
 30
0.0
 11
0.4247166904967129
 21
-9.329935851312099
 31
0.0
  0
LINE
  5
158
330
1F
100
AcDbEntity
  8
0
100
AcDbLine
 10
1.397633904950764
 20
-9.234430503529573
 30
0.0
 11
2.355238349868486
 21
-9.037750802721552
 31
0.0
  0
LINE
  5
159
330
1F
100
AcDbEntity
  8
0
100
AcDbLine
 10
2.355238349868486
 20
-9.037750802721552
 30
0.0
 11
3.287038310559736
 21
-8.742051612847975
 31
0.0
  0
LINE
  5
15A
330
1F
100
AcDbEntity
  8
0
100
AcDbLine
 10
3.287038310559736
 20
-8.742051612847975
 30
0.0
 11
4.18282479166351
 21
-8.35057267611213
 31
0.0
  0
LINE
  5
15B
330
1F
100
AcDbEntity
  8
0
100
AcDbLine
 10
4.18282479166351
 20
-8.35057267611213
 30
0.0
 11
5.032783369037458
 21
-7.867603117667122
 31
0.0
  0
LINE
  5
15C
330
1F
100
AcDbEntity
  8
0
100
AcDbLine
 10
5.032783369037458
 20
-7.867603117667122
 30
0.0
 11
5.827601718642606
 21
-7.298434453063144
 31
0.0
  0
LINE
  5
15D
330
1F
100
AcDbEntity
  8
0
100
AcDbLine
 10
5.827601718642606
 20
-7.298434453063144
 30
0.0
 11
6.558571644314227
 21
-6.649302613295823
 31
0.0
  0
LINE
  5
15E
330
1F
100
AcDbEntity
  8
0
100
AcDbLine
 10
6.558571644314227
 20
-6.649302613295823
 30
0.0
 11
7.217684486581414
 21
-5.927319622641208
 31
0.0
  0
LINE
  5
15F
330
1F
100
AcDbEntity
  8
0
100
AcDbLine
 10
7.217684486581414
 20
-5.927319622641208
 30
0.0
 11
7.797718867216021
 21
-5.140395677829547
 31
0.0
  0
LINE
  5
160
330
1F
100
AcDbEntity
  8
0
100
AcDbLine
 10
7.797718867216021
 20
-5.140395677829547
 30
0.0
 11
8.292319808163835
 21
-4.297152482274648
 31
0.0
  0
LINE
  5
161
330
1F
100
AcDbEntity
  8
0
100
AcDbLine
 10
8.292319808163835
 20
-4.297152482274648
 30
0.0
 11
8.696068358013921
 21
-3.406828784886974
 31
0.0
  0
LINE
  5
162
330
1F
100
AcDbEntity
  8
0
100
AcDbLine
 10
8.696068358013921
 20
-3.406828784886974
 30
0.0
 11
9.004540963164315
 21
-2.479179158407317
 31
0.0
  0
LINE
  5
163
330
1F
100
AcDbEntity
  8
0
100
AcDbLine
 10
9.004540963164315
 20
-2.479179158407317
 30
0.0
 11
9.214357933200944
 21
-1.524367126266568
 31
0.0
  0
LINE
  5
164
330
1F
100
AcDbEntity
  8
0
100
AcDbLine
 10
9.32322046949307
 20
-0.5528538088961146
 30
0.0
 11
9.329935851312106
 21
0.4247166904967129
 31
0.0
  0
LINE
  5
165
330
1F
100
AcDbEntity
  8
0
100
AcDbLine
 10
9.234430503529573
 20
1.397633904950764
 30
0.0
 11
9.037750802721565
 21
2.355238349868486
 31
0.0
  0
LINE
  5
166
330
1F
100
AcDbEntity
  8
0
100
AcDbLine
 10
9.037750802721565
 20
2.355238349868486
 30
0.0
 11
8.742051612847982
 21
3.28703831055975
 31
0.0
  0
LINE
  5
167
330
1F
100
AcDbEntity
  8
0
100
AcDbLine
 10
8.742051612847982
 20
3.28703831055975
 30
0.0
 11
8.35057267611213
 21
4.18282479166351
 31
0.0
  0
LINE
  5
168
330
1F
100
AcDbEntity
  8
0
100
AcDbLine
 10
8.35057267611213
 20
4.18282479166351
 30
0.0
 11
7.867603117667122
 21
5.032783369037458
 31
0.0
  0
LINE
  5
169
330
1F
100
AcDbEntity
  8
0
100
AcDbLine
 10
7.867603117667122
 20
5.032783369037458
 30
0.0
 11
7.298434453063158
 21
5.827601718642606
 31
0.0
  0
LINE
  5
16A
330
1F
100
AcDbEntity
  8
0
100
AcDbLine
 10
7.298434453063158
 20
5.827601718642606
 30
0.0
 11
6.64930261329583
 21
6.558571644314241
 31
0.0
  0
LINE
  5
16B
330
1F
100
AcDbEntity
  8
0
100
AcDbLine
 10
6.64930261329583
 20
6.558571644314241
 30
0.0
 11
5.927319622641208
 21
7.217684486581414
 31
0.0
  0
LINE
  5
16C
330
1F
100
AcDbEntity
  8
0
100
AcDbLine
 10
5.927319622641208
 20
7.217684486581414
 30
0.0
 11
5.140395677829547
 21
7.797718867216021
 31
0.0
  0
LINE
  5
16D
330
1F
100
AcDbEntity
  8
0
100
AcDbLine
 10
0.0000000000000002
 20
47.80444598045808
 30
0.0
 11
-2.013523476196867
 21
47.69892168653633
 31
0.0
  0
LINE
  5
16E
330
1F
100
AcDbEntity
  8
0
100
AcDbLine
 10
-2.013523476196867
 20
47.69892168653633
 30
0.0
 11
-4.004986367831645
 21
47.38350495101767
 31
0.0
  0
LINE
  5
16F
330
1F
100
AcDbEntity
  8
0
100
AcDbLine
 10
-4.004986367831645
 20
47.38350495101767
 30
0.0
 11
-5.952569790723182
 21
46.86165154566164
 31
0.0
  0
LINE
  5
170
330
1F
100
AcDbEntity
  8
0
100
AcDbLine
 10
-5.952569790723182
 20
46.86165154566164
 30
0.0
 11
-7.834935613332245
 21
46.13907900558217
 31
0.0
  0
LINE
  5
171
330
1F
100
AcDbEntity
  8
0
100
AcDbLine
 10
-7.834935613332245
 20
46.13907900558217
 30
0.0
 11
-9.631460241795958
 21
45.22370398673639
 31
0.0
  0
LINE
  5
172
330
1F
100
AcDbEntity
  8
0
100
AcDbLine
 10
-9.631460241795958
 20
45.22370398673639
 30
0.0
 11
-11.32246057633792
 21
44.1255555293853
 31
0.0
  0
LINE
  5
173
330
1F
100
AcDbEntity
  8
0
100
AcDbLine
 10
-11.32246057633792
 20
44.1255555293853
 30
0.0
 11
-12.88940966342833
 21
42.85666517783
 31
0.0
  0
LINE
  5
174
330
1F
100
AcDbEntity
  8
0
100
AcDbLine
 10
-12.88940966342833
 20
42.85666517783
 30
0.0
 11
-14.31513968096384
 21
41.43093516029449
 31
0.0
  0
LINE
  5
175
330
1F
100
AcDbEntity
  8
0
100
AcDbLine
 10
-14.31513968096384
 20
41.43093516029449
 30
0.0
 11
-15.58403003251914
 21
39.86398607320409
 31
0.0
  0
LINE
  5
176
330
1F
100
AcDbEntity
  8
0
100
AcDbLine
 10
-15.58403003251914
 20
39.86398607320409
 30
0.0
 11
-16.68217848987022
 21
38.17298573866213
 31
0.0
  0
LINE
  5
177
330
1F
100
AcDbEntity
  8
0
100
AcDbLine
 10
-16.68217848987022
 20
38.17298573866213
 30
0.0
 11
-17.597553508716
 21
36.37646111019841
 31
0.0
  0
LINE
  5
178
330
1F
100
AcDbEntity
  8
0
100
AcDbLine
 10
-17.597553508716
 20
36.37646111019841
 30
0.0
 11
-18.32012604879548
 21
34.49409528758935
 31
0.0
  0
LINE
  5
179
330
1F
100
AcDbEntity
  8
0
100
AcDbLine
 10
-18.32012604879548
 20
34.49409528758935
 30
0.0
 11
-18.84197945415151
 21
32.54651186469781
 31
0.0
  0
LINE
  5
17A
330
1F
100
AcDbEntity
  8
0
100
AcDbLine
 10
-18.84197945415151
 20
32.54651186469781
 30
0.0
 11
-19.15739618967017
 21
30.55504897306303
 31
0.0
  0
LINE
  5
17B
330
1F
100
AcDbEntity
  8
0
100
AcDbLine
 10
-19.15739618967017
 20
30.55504897306303
 30
0.0
 11
-19.26292048359191
 21
28.54152549686617
 31
0.0
  0
LINE
  5
17C
330
1F
100
AcDbEntity
  8
0
100
AcDbLine
 10
-19.26292048359191
 20
28.54152549686617
 30
0.0
 11
-19.15739618967017
 21
26.5280020206693
 31
0.0
  0
LINE
  5
17D
330
1F
100
AcDbEntity
  8
0
100
AcDbLine
 10
-19.15739618967017
 20
26.5280020206693
 30
0.0
 11
-18.84197945415151
 21
24.53653912903453
 31
0.0
  0
LINE
  5
17E
330
1F
100
AcDbEntity
  8
0
100
AcDbLine
 10
-18.84197945415151
 20
24.53653912903453
 30
0.0
 11
-18.32012604879548
 21
22.58895570614299
 31
0.0
  0
LINE
  5
17F
330
1F
100
AcDbEntity
  8
0
100
AcDbLine
 10
-18.32012604879548
 20
22.58895570614299
 30
0.0
 11
-17.597553508716
 21
20.70658988353393
 31
0.0
  0
LINE
  5
180
330
1F
100
AcDbEntity
  8
0
100
AcDbLine
 10
-17.597553508716
 20
20.70658988353393
 30
0.0
 11
-16.68217848987023
 21
18.91006525507022
 31
0.0
  0
LINE
  5
181
330
1F
100
AcDbEntity
  8
0
100
AcDbLine
 10
-16.68217848987023
 20
18.91006525507022
 30
0.0
 11
-15.58403003251914
 21
17.21906492052825
 31
0.0
  0
LINE
  5
182
330
1F
100
AcDbEntity
  8
0
100
AcDbLine
 10
-15.58403003251914
 20
17.21906492052825
 30
0.0
 11
-14.31513968096384
 21
15.65211583343784
 31
0.0
  0
LINE
  5
183
330
1F
100
AcDbEntity
  8
0
100
AcDbLine
 10
-14.31513968096384
 20
15.65211583343784
 30
0.0
 11
-12.88940966342834
 21
14.22638581590233
 31
0.0
  0
LINE
  5
184
330
1F
100
AcDbEntity
  8
0
100
AcDbLine
 10
-12.88940966342834
 20
14.22638581590233
 30
0.0
 11
-11.32246057633793
 21
12.95749546434703
 31
0.0
  0
LINE
  5
185
330
1F
100
AcDbEntity
  8
0
100
AcDbLine
 10
-11.32246057633793
 20
12.95749546434703
 30
0.0
 11
-9.631460241795965
 21
11.85934700699595
 31
0.0
  0
LINE
  5
186
330
1F
100
AcDbEntity
  8
0
100
AcDbLine
 10
-9.631460241795965
 20
11.85934700699595
 30
0.0
 11
-7.834935613332251
 21
10.94397198815017
 31
0.0
  0
LINE
  5
187
330
1F
100
AcDbEntity
  8
0
100
AcDbLine
 10
-7.834935613332251
 20
10.94397198815017
 30
0.0
 11
-5.952569790723182
 21
10.22139944807069
 31
0.0
  0
LINE
  5
188
330
1F
100
AcDbEntity
  8
0
100
AcDbLine
 10
-5.952569790723182
 20
10.22139944807069
 30
0.0
 11
-4.004986367831652
 21
9.699546042714656
 31
0.0
  0
LINE
  5
189
330
1F
100
AcDbEntity
  8
0
100
AcDbLine
 10
-4.004986367831652
 20
9.699546042714656
 30
0.0
 11
-2.013523476196872
 21
9.384129307196
 31
0.0
  0
LINE
  5
18A
330
1F
100
AcDbEntity
  8
0
100
AcDbLine
 10
2.013523476196856
 20
9.384129307196
 30
0.0
 11
4.004986367831637
 21
9.699546042714656
 31
0.0
  0
LINE
  5
18B
330
1F
100
AcDbEntity
  8
0
100
AcDbLine
 10
4.004986367831637
 20
9.699546042714656
 30
0.0
 11
5.952569790723175
 21
10.22139944807068
 31
0.0
  0
LINE
  5
18C
330
1F
100
AcDbEntity
  8
0
100
AcDbLine
 10
5.952569790723175
 20
10.22139944807068
 30
0.0
 11
7.834935613332235
 21
10.94397198815016
 31
0.0
  0
LINE
  5
18D
330
1F
100
AcDbEntity
  8
0
100
AcDbLine
 10
7.834935613332235
 20
10.94397198815016
 30
0.0
 11
9.63146024179595
 21
11.85934700699594
 31
0.0
  0
LINE
  5
18E
330
1F
100
AcDbEntity
  8
0
100
AcDbLine
 10
9.63146024179595
 20
11.85934700699594
 30
0.0
 11
11.32246057633792
 21
12.95749546434703
 31
0.0
  0
LINE
  5
18F
330
1F
100
AcDbEntity
  8
0
100
AcDbLine
 10
11.32246057633792
 20
12.95749546434703
 30
0.0
 11
12.88940966342832
 21
14.22638581590233
 31
0.0
  0
LINE
  5
190
330
1F
100
AcDbEntity
  8
0
100
AcDbLine
 10
12.88940966342832
 20
14.22638581590233
 30
0.0
 11
14.31513968096383
 21
15.65211583343783
 31
0.0
  0
LINE
  5
191
330
1F
100
AcDbEntity
  8
0
100
AcDbLine
 10
14.31513968096383
 20
15.65211583343783
 30
0.0
 11
15.58403003251914
 21
17.21906492052824
 31
0.0
  0
LINE
  5
192
330
1F
100
AcDbEntity
  8
0
100
AcDbLine
 10
15.58403003251914
 20
17.21906492052824
 30
0.0
 11
16.68217848987021
 21
18.9100652550702
 31
0.0
  0
LINE
  5
193
330
1F
100
AcDbEntity
  8
0
100
AcDbLine
 10
16.68217848987021
 20
18.9100652550702
 30
0.0
 11
17.597553508716
 21
20.70658988353391
 31
0.0
  0
LINE
  5
194
330
1F
100
AcDbEntity
  8
0
100
AcDbLine
 10
17.597553508716
 20
20.70658988353391
 30
0.0
 11
18.32012604879548
 21
22.58895570614298
 31
0.0
  0
LINE
  5
195
330
1F
100
AcDbEntity
  8
0
100
AcDbLine
 10
18.32012604879548
 20
22.58895570614298
 30
0.0
 11
18.84197945415151
 21
24.53653912903451
 31
0.0
  0
LINE
  5
196
330
1F
100
AcDbEntity
  8
0
100
AcDbLine
 10
18.84197945415151
 20
24.53653912903451
 30
0.0
 11
19.15739618967017
 21
26.52800202066928
 31
0.0
  0
LINE
  5
197
330
1F
100
AcDbEntity
  8
0
100
AcDbLine
 10
19.15739618967017
 20
26.52800202066928
 30
0.0
 11
19.26292048359191
 21
28.54152549686616
 31
0.0
  0
LINE
  5
198
330
1F
100
AcDbEntity
  8
0
100
AcDbLine
 10
19.26292048359191
 20
28.54152549686616
 30
0.0
 11
19.15739618967017
 21
30.55504897306302
 31
0.0
  0
LINE
  5
199
330
1F
100
AcDbEntity
  8
0
100
AcDbLine
 10
19.15739618967017
 20
30.55504897306302
 30
0.0
 11
18.84197945415151
 21
32.54651186469779
 31
0.0
  0
LINE
  5
19A
330
1F
100
AcDbEntity
  8
0
100
AcDbLine
 10
18.84197945415151
 20
32.54651186469779
 30
0.0
 11
18.32012604879549
 21
34.49409528758935
 31
0.0
  0
LINE
  5
19B
330
1F
100
AcDbEntity
  8
0
100
AcDbLine
 10
18.32012604879549
 20
34.49409528758935
 30
0.0
 11
17.59755350871601
 21
36.3764611101984
 31
0.0
  0
LINE
  5
19C
330
1F
100
AcDbEntity
  8
0
100
AcDbLine
 10
17.59755350871601
 20
36.3764611101984
 30
0.0
 11
16.68217848987023
 21
38.17298573866211
 31
0.0
  0
LINE
  5
19D
330
1F
100
AcDbEntity
  8
0
100
AcDbLine
 10
16.68217848987023
 20
38.17298573866211
 30
0.0
 11
15.58403003251914
 21
39.86398607320408
 31
0.0
  0
LINE
  5
19E
330
1F
100
AcDbEntity
  8
0
100
AcDbLine
 10
15.58403003251914
 20
39.86398607320408
 30
0.0
 11
14.31513968096384
 21
41.43093516029449
 31
0.0
  0
LINE
  5
19F
330
1F
100
AcDbEntity
  8
0
100
AcDbLine
 10
14.31513968096384
 20
41.43093516029449
 30
0.0
 11
12.88940966342834
 21
42.85666517782999
 31
0.0
  0
LINE
  5
1A0
330
1F
100
AcDbEntity
  8
0
100
AcDbLine
 10
12.88940966342834
 20
42.85666517782999
 30
0.0
 11
11.32246057633792
 21
44.1255555293853
 31
0.0
  0
LINE
  5
1A1
330
1F
100
AcDbEntity
  8
0
100
AcDbLine
 10
11.32246057633792
 20
44.1255555293853
 30
0.0
 11
9.631460241795962
 21
45.22370398673638
 31
0.0
  0
LINE
  5
1A2
330
1F
100
AcDbEntity
  8
0
100
AcDbLine
 10
9.631460241795962
 20
45.22370398673638
 30
0.0
 11
7.834935613332256
 21
46.13907900558216
 31
0.0
  0
LINE
  5
1A3
330
1F
100
AcDbEntity
  8
0
100
AcDbLine
 10
7.834935613332256
 20
46.13907900558216
 30
0.0
 11
5.952569790723185
 21
46.86165154566164
 31
0.0
  0
LINE
  5
1A4
330
1F
100
AcDbEntity
  8
0
100
AcDbLine
 10
5.952569790723185
 20
46.86165154566164
 30
0.0
 11
4.004986367831654
 21
47.38350495101767
 31
0.0
  0
LINE
  5
1A5
330
1F
100
AcDbEntity
  8
0
100
AcDbLine
 10
4.004986367831654
 20
47.38350495101767
 30
0.0
 11
2.013523476196881
 21
47.69892168653633
 31
0.0
  0
LINE
  5
1A6
330
1F
100
AcDbEntity
  8
0
100
AcDbLine
 10
2.013523476196881
 20
47.69892168653633
 30
0.0
 11
0.0000000000000002
 21
47.80444598045808
 31
0.0
  0
LINE
  5
1A7
330
1F
100
AcDbEntity
  8
0
100
AcDbLine
 10
26.52800202066927
 20
-19.15739618967016
 30
0.0
 11
28.54152549686615
 21
-19.26292048359191
 31
0.0
  0
LINE
  5
1A8
330
1F
100
AcDbEntity
  8
0
100
AcDbLine
 10
39.86398607320407
 20
-15.58403003251914
 30
0.0
 11
41.43093516029448
 21
-14.31513968096384
 31
0.0
  0
LINE
  5
1A9
330
1F
100
AcDbEntity
  8
0
100
AcDbLine
 10
28.54152549686615
 20
-19.26292048359191
 30
0.0
 11
30.55504897306302
 21
-19.15739618967016
 31
0.0
  0
LINE
  5
1AA
330
1F
100
AcDbEntity
  8
0
100
AcDbLine
 10
41.43093516029448
 20
-14.31513968096384
 30
0.0
 11
42.85666517782998
 21
-12.88940966342833
 31
0.0
  0
LINE
  5
1AB
330
1F
100
AcDbEntity
  8
0
100
AcDbLine
 10
30.55504897306302
 20
-19.15739618967016
 30
0.0
 11
32.54651186469778
 21
-18.84197945415151
 31
0.0
  0
LINE
  5
1AC
330
1F
100
AcDbEntity
  8
0
100
AcDbLine
 10
32.54651186469778
 20
-18.84197945415151
 30
0.0
 11
34.49409528758934
 21
-18.32012604879548
 31
0.0
  0
LINE
  5
1AD
330
1F
100
AcDbEntity
  8
0
100
AcDbLine
 10
34.49409528758934
 20
-18.32012604879548
 30
0.0
 11
36.37646111019839
 21
-17.597553508716
 31
0.0
  0
LINE
  5
1AE
330
1F
100
AcDbEntity
  8
0
100
AcDbLine
 10
36.37646111019839
 20
-17.597553508716
 30
0.0
 11
38.1729857386621
 21
-16.68217848987022
 31
0.0
  0
LINE
  5
1AF
330
1F
100
AcDbEntity
  8
0
100
AcDbLine
 10
42.85666517782998
 20
-12.88940966342833
 30
0.0
 11
44.1255555293853
 21
-11.32246057633792
 31
0.0
  0
LINE
  5
1B0
330
1F
100
AcDbEntity
  8
0
100
AcDbLine
 10
44.1255555293853
 20
-11.32246057633792
 30
0.0
 11
45.22370398673637
 21
-9.631460241795951
 31
0.0
  0
LINE
  5
1B1
330
1F
100
AcDbEntity
  8
0
100
AcDbLine
 10
45.22370398673637
 20
-9.631460241795951
 30
0.0
 11
46.13907900558215
 21
-7.834935613332245
 31
0.0
  0
LINE
  5
1B2
330
1F
100
AcDbEntity
  8
0
100
AcDbLine
 10
46.13907900558215
 20
-7.834935613332245
 30
0.0
 11
46.86165154566164
 21
-5.952569790723176
 31
0.0
  0
LINE
  5
1B3
330
1F
100
AcDbEntity
  8
0
100
AcDbLine
 10
46.86165154566164
 20
-5.952569790723176
 30
0.0
 11
47.38350495101766
 21
-4.004986367831642
 31
0.0
  0
LINE
  5
1B4
330
1F
100
AcDbEntity
  8
0
100
AcDbLine
 10
38.1729857386621
 20
-16.68217848987022
 30
0.0
 11
39.86398607320407
 21
-15.58403003251914
 31
0.0
  0
LINE
  5
1B5
330
1F
100
AcDbEntity
  8
0
100
AcDbLine
 10
22.58895570614297
 20
-18.32012604879547
 30
0.0
 11
24.53653912903451
 21
-18.84197945415151
 31
0.0
  0
LINE
  5
1B6
330
1F
100
AcDbEntity
  8
0
100
AcDbLine
 10
47.69892168653632
 20
-2.01352347619687
 30
0.0
 11
47.80444598045807
 21
0.0000000000000099
 31
0.0
  0
LINE
  5
1B7
330
1F
100
AcDbEntity
  8
0
100
AcDbLine
 10
47.38350495101766
 20
-4.004986367831642
 30
0.0
 11
47.69892168653632
 21
-2.01352347619687
 31
0.0
  0
LINE
  5
1B8
330
1F
100
AcDbEntity
  8
0
100
AcDbLine
 10
24.53653912903451
 20
-18.84197945415151
 30
0.0
 11
26.52800202066927
 21
-19.15739618967016
 31
0.0
  0
LINE
  5
1B9
330
1F
100
AcDbEntity
  8
0
100
AcDbLine
 10
10.22139944807068
 20
-5.952569790723169
 30
0.0
 11
10.94397198815015
 21
-7.834935613332228
 31
0.0
  0
LINE
  5
1BA
330
1F
100
AcDbEntity
  8
0
100
AcDbLine
 10
20.7065898835339
 20
-17.59755350871599
 30
0.0
 11
22.58895570614297
 21
-18.32012604879547
 31
0.0
  0
LINE
  5
1BB
330
1F
100
AcDbEntity
  8
0
100
AcDbLine
 10
18.91006525507019
 20
-16.68217848987021
 30
0.0
 11
20.7065898835339
 21
-17.59755350871599
 31
0.0
  0
LINE
  5
1BC
330
1F
100
AcDbEntity
  8
0
100
AcDbLine
 10
17.21906492052823
 20
-15.58403003251913
 30
0.0
 11
18.91006525507019
 21
-16.68217848987021
 31
0.0
  0
LINE
  5
1BD
330
1F
100
AcDbEntity
  8
0
100
AcDbLine
 10
15.65211583343783
 20
-14.31513968096382
 30
0.0
 11
17.21906492052823
 21
-15.58403003251913
 31
0.0
  0
LINE
  5
1BE
330
1F
100
AcDbEntity
  8
0
100
AcDbLine
 10
14.22638581590232
 20
-12.88940966342832
 30
0.0
 11
15.65211583343783
 21
-14.31513968096382
 31
0.0
  0
LINE
  5
1BF
330
1F
100
AcDbEntity
  8
0
100
AcDbLine
 10
12.95749546434702
 20
-11.32246057633791
 30
0.0
 11
14.22638581590232
 21
-12.88940966342832
 31
0.0
  0
LINE
  5
1C0
330
1F
100
AcDbEntity
  8
0
100
AcDbLine
 10
11.85934700699593
 20
-9.631460241795942
 30
0.0
 11
12.95749546434702
 21
-11.32246057633791
 31
0.0
  0
LINE
  5
1C1
330
1F
100
AcDbEntity
  8
0
100
AcDbLine
 10
10.94397198815015
 20
-7.834935613332228
 30
0.0
 11
11.85934700699593
 21
-9.631460241795942
 31
0.0
  0
LINE
  5
1C2
330
1F
100
AcDbEntity
  8
0
100
AcDbLine
 10
9.69954604271465
 20
-4.00498636783163
 30
0.0
 11
10.22139944807068
 21
-5.952569790723169
 31
0.0
  0
LINE
  5
1C3
330
1F
100
AcDbEntity
  8
0
100
AcDbLine
 10
9.384129307195993
 20
-2.013523476196851
 30
0.0
 11
9.69954604271465
 21
-4.00498636783163
 31
0.0
  0
LINE
  5
1C4
330
1F
100
AcDbEntity
  8
0
100
AcDbLine
 10
9.69954604271465
 20
4.004986367831659
 30
0.0
 11
9.384129307195993
 21
2.013523476196877
 31
0.0
  0
LINE
  5
1C5
330
1F
100
AcDbEntity
  8
0
100
AcDbLine
 10
10.22139944807068
 20
5.952569790723189
 30
0.0
 11
9.69954604271465
 21
4.004986367831659
 31
0.0
  0
LINE
  5
1C6
330
1F
100
AcDbEntity
  8
0
100
AcDbLine
 10
10.94397198815016
 20
7.834935613332259
 30
0.0
 11
10.22139944807068
 21
5.952569790723189
 31
0.0
  0
LINE
  5
1C7
330
1F
100
AcDbEntity
  8
0
100
AcDbLine
 10
11.85934700699594
 20
9.63146024179597
 30
0.0
 11
10.94397198815016
 21
7.834935613332259
 31
0.0
  0
LINE
  5
1C8
330
1F
100
AcDbEntity
  8
0
100
AcDbLine
 10
12.95749546434702
 20
11.32246057633793
 30
0.0
 11
11.85934700699594
 21
9.63146024179597
 31
0.0
  0
LINE
  5
1C9
330
1F
100
AcDbEntity
  8
0
100
AcDbLine
 10
14.22638581590232
 20
12.88940966342834
 30
0.0
 11
12.95749546434702
 21
11.32246057633793
 31
0.0
  0
LINE
  5
1CA
330
1F
100
AcDbEntity
  8
0
100
AcDbLine
 10
15.65211583343784
 20
14.31513968096385
 30
0.0
 11
14.22638581590232
 21
12.88940966342834
 31
0.0
  0
LINE
  5
1CB
330
1F
100
AcDbEntity
  8
0
100
AcDbLine
 10
17.21906492052824
 20
15.58403003251915
 30
0.0
 11
15.65211583343784
 21
14.31513968096385
 31
0.0
  0
LINE
  5
1CC
330
1F
100
AcDbEntity
  8
0
100
AcDbLine
 10
18.9100652550702
 20
16.68217848987023
 30
0.0
 11
17.21906492052824
 21
15.58403003251915
 31
0.0
  0
LINE
  5
1CD
330
1F
100
AcDbEntity
  8
0
100
AcDbLine
 10
20.70658988353391
 20
17.59755350871601
 30
0.0
 11
18.9100652550702
 21
16.68217848987023
 31
0.0
  0
LINE
  5
1CE
330
1F
100
AcDbEntity
  8
0
100
AcDbLine
 10
22.58895570614298
 20
18.32012604879549
 30
0.0
 11
20.70658988353391
 21
17.59755350871601
 31
0.0
  0
LINE
  5
1CF
330
1F
100
AcDbEntity
  8
0
100
AcDbLine
 10
24.53653912903452
 20
18.84197945415151
 30
0.0
 11
22.58895570614298
 21
18.32012604879549
 31
0.0
  0
LINE
  5
1D0
330
1F
100
AcDbEntity
  8
0
100
AcDbLine
 10
26.52800202066929
 20
19.15739618967017
 30
0.0
 11
24.53653912903452
 21
18.84197945415151
 31
0.0
  0
LINE
  5
1D1
330
1F
100
AcDbEntity
  8
0
100
AcDbLine
 10
28.54152549686616
 20
19.26292048359192
 30
0.0
 11
26.52800202066929
 21
19.15739618967017
 31
0.0
  0
LINE
  5
1D2
330
1F
100
AcDbEntity
  8
0
100
AcDbLine
 10
30.55504897306303
 20
19.15739618967017
 30
0.0
 11
28.54152549686616
 21
19.26292048359192
 31
0.0
  0
LINE
  5
1D3
330
1F
100
AcDbEntity
  8
0
100
AcDbLine
 10
32.54651186469781
 20
18.84197945415151
 30
0.0
 11
30.55504897306303
 21
19.15739618967017
 31
0.0
  0
LINE
  5
1D4
330
1F
100
AcDbEntity
  8
0
100
AcDbLine
 10
34.49409528758934
 20
18.32012604879549
 30
0.0
 11
32.54651186469781
 21
18.84197945415151
 31
0.0
  0
LINE
  5
1D5
330
1F
100
AcDbEntity
  8
0
100
AcDbLine
 10
36.37646111019841
 20
17.59755350871601
 30
0.0
 11
34.49409528758934
 21
18.32012604879549
 31
0.0
  0
LINE
  5
1D6
330
1F
100
AcDbEntity
  8
0
100
AcDbLine
 10
38.17298573866212
 20
16.68217848987023
 30
0.0
 11
36.37646111019841
 21
17.59755350871601
 31
0.0
  0
LINE
  5
1D7
330
1F
100
AcDbEntity
  8
0
100
AcDbLine
 10
39.86398607320408
 20
15.58403003251915
 30
0.0
 11
38.17298573866212
 21
16.68217848987023
 31
0.0
  0
LINE
  5
1D8
330
1F
100
AcDbEntity
  8
0
100
AcDbLine
 10
41.43093516029448
 20
14.31513968096384
 30
0.0
 11
39.86398607320408
 21
15.58403003251915
 31
0.0
  0
LINE
  5
1D9
330
1F
100
AcDbEntity
  8
0
100
AcDbLine
 10
42.85666517782999
 20
12.88940966342834
 30
0.0
 11
41.43093516029448
 21
14.31513968096384
 31
0.0
  0
LINE
  5
1DA
330
1F
100
AcDbEntity
  8
0
100
AcDbLine
 10
44.1255555293853
 20
11.32246057633793
 30
0.0
 11
42.85666517782999
 21
12.88940966342834
 31
0.0
  0
LINE
  5
1DB
330
1F
100
AcDbEntity
  8
0
100
AcDbLine
 10
45.22370398673638
 20
9.631460241795965
 30
0.0
 11
44.1255555293853
 21
11.32246057633793
 31
0.0
  0
LINE
  5
1DC
330
1F
100
AcDbEntity
  8
0
100
AcDbLine
 10
46.13907900558216
 20
7.834935613332254
 30
0.0
 11
45.22370398673638
 21
9.631460241795965
 31
0.0
  0
LINE
  5
1DD
330
1F
100
AcDbEntity
  8
0
100
AcDbLine
 10
46.86165154566164
 20
5.95256979072319
 30
0.0
 11
46.13907900558216
 21
7.834935613332254
 31
0.0
  0
LINE
  5
1DE
330
1F
100
AcDbEntity
  8
0
100
AcDbLine
 10
47.38350495101766
 20
4.004986367831656
 30
0.0
 11
46.86165154566164
 21
5.95256979072319
 31
0.0
  0
LINE
  5
1DF
330
1F
100
AcDbEntity
  8
0
100
AcDbLine
 10
47.69892168653632
 20
2.013523476196877
 30
0.0
 11
47.38350495101766
 21
4.004986367831656
 31
0.0
  0
LINE
  5
1E0
330
1F
100
AcDbEntity
  8
0
100
AcDbLine
 10
47.80444598045807
 20
0.0000000000000099
 30
0.0
 11
47.69892168653632
 21
2.013523476196877
 31
0.0
  0
LINE
  5
1E1
330
1F
100
AcDbEntity
  8
0
100
AcDbLine
 10
-4.004986367831649
 20
-47.38350495101766
 30
0.0
 11
-2.013523476196877
 21
-47.69892168653632
 31
0.0
  0
LINE
  5
1E2
330
1F
100
AcDbEntity
  8
0
100
AcDbLine
 10
-5.952569790723182
 20
-46.86165154566164
 30
0.0
 11
-4.004986367831649
 21
-47.38350495101766
 31
0.0
  0
LINE
  5
1E3
330
1F
100
AcDbEntity
  8
0
100
AcDbLine
 10
-7.834935613332251
 20
-46.13907900558215
 30
0.0
 11
-5.952569790723182
 21
-46.86165154566164
 31
0.0
  0
LINE
  5
1E4
330
1F
100
AcDbEntity
  8
0
100
AcDbLine
 10
-9.631460241795958
 20
-45.22370398673637
 30
0.0
 11
-7.834935613332251
 21
-46.13907900558215
 31
0.0
  0
LINE
  5
1E5
330
1F
100
AcDbEntity
  8
0
100
AcDbLine
 10
-11.32246057633792
 20
-44.1255555293853
 30
0.0
 11
-9.631460241795958
 21
-45.22370398673637
 31
0.0
  0
LINE
  5
1E6
330
1F
100
AcDbEntity
  8
0
100
AcDbLine
 10
-12.88940966342833
 20
-42.85666517782998
 30
0.0
 11
-11.32246057633792
 21
-44.1255555293853
 31
0.0
  0
LINE
  5
1E7
330
1F
100
AcDbEntity
  8
0
100
AcDbLine
 10
-14.31513968096384
 20
-41.43093516029448
 30
0.0
 11
-12.88940966342833
 21
-42.85666517782998
 31
0.0
  0
LINE
  5
1E8
330
1F
100
AcDbEntity
  8
0
100
AcDbLine
 10
-15.58403003251914
 20
-39.86398607320407
 30
0.0
 11
-14.31513968096384
 21
-41.43093516029448
 31
0.0
  0
LINE
  5
1E9
330
1F
100
AcDbEntity
  8
0
100
AcDbLine
 10
-16.68217848987022
 20
-38.17298573866209
 30
0.0
 11
-15.58403003251914
 21
-39.86398607320407
 31
0.0
  0
LINE
  5
1EA
330
1F
100
AcDbEntity
  8
0
100
AcDbLine
 10
-17.597553508716
 20
-36.37646111019838
 30
0.0
 11
-16.68217848987022
 21
-38.17298573866209
 31
0.0
  0
LINE
  5
1EB
330
1F
100
AcDbEntity
  8
0
100
AcDbLine
 10
-18.32012604879549
 20
-34.49409528758933
 30
0.0
 11
-17.597553508716
 21
-36.37646111019838
 31
0.0
  0
LINE
  5
1EC
330
1F
100
AcDbEntity
  8
0
100
AcDbLine
 10
-18.84197945415151
 20
-32.54651186469778
 30
0.0
 11
-18.32012604879549
 21
-34.49409528758933
 31
0.0
  0
LINE
  5
1ED
330
1F
100
AcDbEntity
  8
0
100
AcDbLine
 10
-19.15739618967017
 20
-30.55504897306301
 30
0.0
 11
-18.84197945415151
 21
-32.54651186469778
 31
0.0
  0
LINE
  5
1EE
330
1F
100
AcDbEntity
  8
0
100
AcDbLine
 10
-19.26292048359191
 20
-28.54152549686615
 30
0.0
 11
-19.15739618967017
 21
-30.55504897306301
 31
0.0
  0
LINE
  5
1EF
330
1F
100
AcDbEntity
  8
0
100
AcDbLine
 10
-19.15739618967017
 20
-26.52800202066927
 30
0.0
 11
-19.26292048359191
 21
-28.54152549686615
 31
0.0
  0
LINE
  5
1F0
330
1F
100
AcDbEntity
  8
0
100
AcDbLine
 10
-18.84197945415151
 20
-24.5365391290345
 30
0.0
 11
-19.15739618967017
 21
-26.52800202066927
 31
0.0
  0
LINE
  5
1F1
330
1F
100
AcDbEntity
  8
0
100
AcDbLine
 10
-18.32012604879548
 20
-22.58895570614297
 30
0.0
 11
-18.84197945415151
 21
-24.5365391290345
 31
0.0
  0
LINE
  5
1F2
330
1F
100
AcDbEntity
  8
0
100
AcDbLine
 10
-17.597553508716
 20
-20.7065898835339
 30
0.0
 11
-18.32012604879548
 21
-22.58895570614297
 31
0.0
  0
LINE
  5
1F3
330
1F
100
AcDbEntity
  8
0
100
AcDbLine
 10
-16.68217848987021
 20
-18.91006525507019
 30
0.0
 11
-17.597553508716
 21
-20.7065898835339
 31
0.0
  0
LINE
  5
1F4
330
1F
100
AcDbEntity
  8
0
100
AcDbLine
 10
-15.58403003251914
 20
-17.21906492052823
 30
0.0
 11
-16.68217848987021
 21
-18.91006525507019
 31
0.0
  0
LINE
  5
1F5
330
1F
100
AcDbEntity
  8
0
100
AcDbLine
 10
-14.31513968096383
 20
-15.65211583343782
 30
0.0
 11
-15.58403003251914
 21
-17.21906492052823
 31
0.0
  0
LINE
  5
1F6
330
1F
100
AcDbEntity
  8
0
100
AcDbLine
 10
-12.88940966342832
 20
-14.22638581590232
 30
0.0
 11
-14.31513968096383
 21
-15.65211583343782
 31
0.0
  0
LINE
  5
1F7
330
1F
100
AcDbEntity
  8
0
100
AcDbLine
 10
-11.32246057633792
 20
-12.95749546434702
 30
0.0
 11
-12.88940966342832
 21
-14.22638581590232
 31
0.0
  0
LINE
  5
1F8
330
1F
100
AcDbEntity
  8
0
100
AcDbLine
 10
-9.63146024179595
 20
-11.85934700699593
 30
0.0
 11
-11.32246057633792
 21
-12.95749546434702
 31
0.0
  0
LINE
  5
1F9
330
1F
100
AcDbEntity
  8
0
100
AcDbLine
 10
-7.834935613332235
 20
-10.94397198815015
 30
0.0
 11
-9.63146024179595
 21
-11.85934700699593
 31
0.0
  0
LINE
  5
1FA
330
1F
100
AcDbEntity
  8
0
100
AcDbLine
 10
-5.952569790723176
 20
-10.22139944807067
 30
0.0
 11
-7.834935613332235
 21
-10.94397198815015
 31
0.0
  0
LINE
  5
1FB
330
1F
100
AcDbEntity
  8
0
100
AcDbLine
 10
-4.004986367831636
 20
-9.699546042714646
 30
0.0
 11
-5.952569790723176
 21
-10.22139944807067
 31
0.0
  0
LINE
  5
1FC
330
1F
100
AcDbEntity
  8
0
100
AcDbLine
 10
-2.013523476196857
 20
-9.38412930719599
 30
0.0
 11
-4.004986367831636
 21
-9.699546042714646
 31
0.0
  0
LINE
  5
1FD
330
1F
100
AcDbEntity
  8
0
100
AcDbLine
 10
4.004986367831652
 20
-9.699546042714644
 30
0.0
 11
2.01352347619687
 21
-9.384129307195987
 31
0.0
  0
LINE
  5
1FE
330
1F
100
AcDbEntity
  8
0
100
AcDbLine
 10
5.952569790723182
 20
-10.22139944807067
 30
0.0
 11
4.004986367831652
 21
-9.699546042714644
 31
0.0
  0
LINE
  5
1FF
330
1F
100
AcDbEntity
  8
0
100
AcDbLine
 10
7.834935613332251
 20
-10.94397198815015
 30
0.0
 11
5.952569790723182
 21
-10.22139944807067
 31
0.0
  0
LINE
  5
200
330
1F
100
AcDbEntity
  8
0
100
AcDbLine
 10
9.631460241795965
 20
-11.85934700699593
 30
0.0
 11
7.834935613332251
 21
-10.94397198815015
 31
0.0
  0
LINE
  5
201
330
1F
100
AcDbEntity
  8
0
100
AcDbLine
 10
11.32246057633793
 20
-12.95749546434702
 30
0.0
 11
9.631460241795965
 21
-11.85934700699593
 31
0.0
  0
LINE
  5
202
330
1F
100
AcDbEntity
  8
0
100
AcDbLine
 10
12.88940966342834
 20
-14.22638581590232
 30
0.0
 11
11.32246057633793
 21
-12.95749546434702
 31
0.0
  0
LINE
  5
203
330
1F
100
AcDbEntity
  8
0
100
AcDbLine
 10
14.31513968096384
 20
-15.65211583343783
 30
0.0
 11
12.88940966342834
 21
-14.22638581590232
 31
0.0
  0
LINE
  5
204
330
1F
100
AcDbEntity
  8
0
100
AcDbLine
 10
15.58403003251914
 20
-17.21906492052823
 30
0.0
 11
14.31513968096384
 21
-15.65211583343783
 31
0.0
  0
LINE
  5
205
330
1F
100
AcDbEntity
  8
0
100
AcDbLine
 10
16.68217848987023
 20
-18.9100652550702
 30
0.0
 11
15.58403003251914
 21
-17.21906492052823
 31
0.0
  0
LINE
  5
206
330
1F
100
AcDbEntity
  8
0
100
AcDbLine
 10
17.597553508716
 20
-20.70658988353391
 30
0.0
 11
16.68217848987023
 21
-18.9100652550702
 31
0.0
  0
LINE
  5
207
330
1F
100
AcDbEntity
  8
0
100
AcDbLine
 10
18.32012604879548
 20
-22.58895570614297
 30
0.0
 11
17.597553508716
 21
-20.70658988353391
 31
0.0
  0
LINE
  5
208
330
1F
100
AcDbEntity
  8
0
100
AcDbLine
 10
18.84197945415151
 20
-24.53653912903451
 30
0.0
 11
18.32012604879548
 21
-22.58895570614297
 31
0.0
  0
LINE
  5
209
330
1F
100
AcDbEntity
  8
0
100
AcDbLine
 10
19.15739618967017
 20
-26.52800202066929
 30
0.0
 11
18.84197945415151
 21
-24.53653912903451
 31
0.0
  0
LINE
  5
20A
330
1F
100
AcDbEntity
  8
0
100
AcDbLine
 10
19.26292048359192
 20
-28.54152549686615
 30
0.0
 11
19.15739618967017
 21
-26.52800202066929
 31
0.0
  0
LINE
  5
20B
330
1F
100
AcDbEntity
  8
0
100
AcDbLine
 10
19.15739618967017
 20
-30.55504897306302
 30
0.0
 11
19.26292048359192
 21
-28.54152549686615
 31
0.0
  0
LINE
  5
20C
330
1F
100
AcDbEntity
  8
0
100
AcDbLine
 10
18.84197945415151
 20
-32.5465118646978
 30
0.0
 11
19.15739618967017
 21
-30.55504897306302
 31
0.0
  0
LINE
  5
20D
330
1F
100
AcDbEntity
  8
0
100
AcDbLine
 10
18.32012604879548
 20
-34.49409528758933
 30
0.0
 11
18.84197945415151
 21
-32.5465118646978
 31
0.0
  0
LINE
  5
20E
330
1F
100
AcDbEntity
  8
0
100
AcDbLine
 10
17.59755350871601
 20
-36.3764611101984
 30
0.0
 11
18.32012604879548
 21
-34.49409528758933
 31
0.0
  0
LINE
  5
20F
330
1F
100
AcDbEntity
  8
0
100
AcDbLine
 10
16.68217848987023
 20
-38.17298573866211
 30
0.0
 11
17.59755350871601
 21
-36.3764611101984
 31
0.0
  0
LINE
  5
210
330
1F
100
AcDbEntity
  8
0
100
AcDbLine
 10
15.58403003251914
 20
-39.86398607320407
 30
0.0
 11
16.68217848987023
 21
-38.17298573866211
 31
0.0
  0
LINE
  5
211
330
1F
100
AcDbEntity
  8
0
100
AcDbLine
 10
14.31513968096384
 20
-41.43093516029447
 30
0.0
 11
15.58403003251914
 21
-39.86398607320407
 31
0.0
  0
LINE
  5
212
330
1F
100
AcDbEntity
  8
0
100
AcDbLine
 10
12.88940966342833
 20
-42.85666517782999
 30
0.0
 11
14.31513968096384
 21
-41.43093516029447
 31
0.0
  0
LINE
  5
213
330
1F
100
AcDbEntity
  8
0
100
AcDbLine
 10
11.32246057633793
 20
-44.12555552938529
 30
0.0
 11
12.88940966342833
 21
-42.85666517782999
 31
0.0
  0
LINE
  5
214
330
1F
100
AcDbEntity
  8
0
100
AcDbLine
 10
9.631460241795963
 20
-45.22370398673637
 30
0.0
 11
11.32246057633793
 21
-44.12555552938529
 31
0.0
  0
LINE
  5
215
330
1F
100
AcDbEntity
  8
0
100
AcDbLine
 10
7.83493561333225
 20
-46.13907900558215
 30
0.0
 11
9.631460241795963
 21
-45.22370398673637
 31
0.0
  0
LINE
  5
216
330
1F
100
AcDbEntity
  8
0
100
AcDbLine
 10
5.952569790723187
 20
-46.86165154566164
 30
0.0
 11
7.83493561333225
 21
-46.13907900558215
 31
0.0
  0
LINE
  5
217
330
1F
100
AcDbEntity
  8
0
100
AcDbLine
 10
4.004986367831649
 20
-47.38350495101766
 30
0.0
 11
5.952569790723187
 21
-46.86165154566164
 31
0.0
  0
LINE
  5
218
330
1F
100
AcDbEntity
  8
0
100
AcDbLine
 10
2.01352347619687
 20
-47.69892168653632
 30
0.0
 11
4.004986367831649
 21
-47.38350495101766
 31
0.0
  0
LINE
  5
219
330
1F
100
AcDbEntity
  8
0
100
AcDbLine
 10
0.0000000000000033
 20
-47.80444598045806
 30
0.0
 11
2.01352347619687
 21
-47.69892168653632
 31
0.0
  0
LINE
  5
21A
330
1F
100
AcDbEntity
  8
0
100
AcDbLine
 10
-2.013523476196877
 20
-47.69892168653632
 30
0.0
 11
0.0000000000000033
 21
-47.80444598045806
 31
0.0
  0
LINE
  5
21B
330
1F
100
AcDbEntity
  8
0
100
AcDbLine
 10
-47.38350495101767
 20
4.004986367831649
 30
0.0
 11
-47.69892168653632
 21
2.013523476196877
 31
0.0
  0
LINE
  5
21C
330
1F
100
AcDbEntity
  8
0
100
AcDbLine
 10
-46.86165154566164
 20
5.952569790723182
 30
0.0
 11
-47.38350495101767
 21
4.004986367831649
 31
0.0
  0
LINE
  5
21D
330
1F
100
AcDbEntity
  8
0
100
AcDbLine
 10
-46.13907900558216
 20
7.834935613332251
 30
0.0
 11
-46.86165154566164
 21
5.952569790723182
 31
0.0
  0
LINE
  5
21E
330
1F
100
AcDbEntity
  8
0
100
AcDbLine
 10
-45.22370398673637
 20
9.631460241795958
 30
0.0
 11
-46.13907900558216
 21
7.834935613332251
 31
0.0
  0
LINE
  5
21F
330
1F
100
AcDbEntity
  8
0
100
AcDbLine
 10
-44.1255555293853
 20
11.32246057633792
 30
0.0
 11
-45.22370398673637
 21
9.631460241795958
 31
0.0
  0
LINE
  5
220
330
1F
100
AcDbEntity
  8
0
100
AcDbLine
 10
-42.85666517782999
 20
12.88940966342833
 30
0.0
 11
-44.1255555293853
 21
11.32246057633792
 31
0.0
  0
LINE
  5
221
330
1F
100
AcDbEntity
  8
0
100
AcDbLine
 10
-41.43093516029449
 20
14.31513968096384
 30
0.0
 11
-42.85666517782999
 21
12.88940966342833
 31
0.0
  0
LINE
  5
222
330
1F
100
AcDbEntity
  8
0
100
AcDbLine
 10
-39.86398607320407
 20
15.58403003251914
 30
0.0
 11
-41.43093516029449
 21
14.31513968096384
 31
0.0
  0
LINE
  5
223
330
1F
100
AcDbEntity
  8
0
100
AcDbLine
 10
-38.1729857386621
 20
16.68217848987023
 30
0.0
 11
-39.86398607320407
 21
15.58403003251914
 31
0.0
  0
LINE
  5
224
330
1F
100
AcDbEntity
  8
0
100
AcDbLine
 10
-36.3764611101984
 20
17.59755350871601
 30
0.0
 11
-38.1729857386621
 21
16.68217848987023
 31
0.0
  0
LINE
  5
225
330
1F
100
AcDbEntity
  8
0
100
AcDbLine
 10
-34.49409528758935
 20
18.32012604879548
 30
0.0
 11
-36.3764611101984
 21
17.59755350871601
 31
0.0
  0
LINE
  5
226
330
1F
100
AcDbEntity
  8
0
100
AcDbLine
 10
-32.54651186469779
 20
18.84197945415151
 30
0.0
 11
-34.49409528758935
 21
18.32012604879548
 31
0.0
  0
LINE
  5
227
330
1F
100
AcDbEntity
  8
0
100
AcDbLine
 10
-30.55504897306302
 20
19.15739618967016
 30
0.0
 11
-32.54651186469779
 21
18.84197945415151
 31
0.0
  0
LINE
  5
228
330
1F
100
AcDbEntity
  8
0
100
AcDbLine
 10
-28.54152549686616
 20
19.26292048359191
 30
0.0
 11
-30.55504897306302
 21
19.15739618967016
 31
0.0
  0
LINE
  5
229
330
1F
100
AcDbEntity
  8
0
100
AcDbLine
 10
-26.52800202066928
 20
19.15739618967017
 30
0.0
 11
-28.54152549686616
 21
19.26292048359191
 31
0.0
  0
LINE
  5
22A
330
1F
100
AcDbEntity
  8
0
100
AcDbLine
 10
-24.53653912903451
 20
18.84197945415152
 30
0.0
 11
-26.52800202066928
 21
19.15739618967017
 31
0.0
  0
LINE
  5
22B
330
1F
100
AcDbEntity
  8
0
100
AcDbLine
 10
-22.58895570614298
 20
18.32012604879548
 30
0.0
 11
-24.53653912903451
 21
18.84197945415152
 31
0.0
  0
LINE
  5
22C
330
1F
100
AcDbEntity
  8
0
100
AcDbLine
 10
-20.7065898835339
 20
17.597553508716
 30
0.0
 11
-22.58895570614298
 21
18.32012604879548
 31
0.0
  0
LINE
  5
22D
330
1F
100
AcDbEntity
  8
0
100
AcDbLine
 10
-18.9100652550702
 20
16.68217848987022
 30
0.0
 11
-20.7065898835339
 21
17.597553508716
 31
0.0
  0
LINE
  5
22E
330
1F
100
AcDbEntity
  8
0
100
AcDbLine
 10
-17.21906492052824
 20
15.58403003251914
 30
0.0
 11
-18.9100652550702
 21
16.68217848987022
 31
0.0
  0
LINE
  5
22F
330
1F
100
AcDbEntity
  8
0
100
AcDbLine
 10
-15.65211583343783
 20
14.31513968096383
 30
0.0
 11
-17.21906492052824
 21
15.58403003251914
 31
0.0
  0
LINE
  5
230
330
1F
100
AcDbEntity
  8
0
100
AcDbLine
 10
-14.22638581590232
 20
12.88940966342832
 30
0.0
 11
-15.65211583343783
 21
14.31513968096383
 31
0.0
  0
LINE
  5
231
330
1F
100
AcDbEntity
  8
0
100
AcDbLine
 10
-12.95749546434702
 20
11.32246057633792
 30
0.0
 11
-14.22638581590232
 21
12.88940966342832
 31
0.0
  0
LINE
  5
232
330
1F
100
AcDbEntity
  8
0
100
AcDbLine
 10
-11.85934700699594
 20
9.631460241795951
 30
0.0
 11
-12.95749546434702
 21
11.32246057633792
 31
0.0
  0
LINE
  5
233
330
1F
100
AcDbEntity
  8
0
100
AcDbLine
 10
-10.94397198815015
 20
7.834935613332239
 30
0.0
 11
-11.85934700699594
 21
9.631460241795951
 31
0.0
  0
LINE
  5
234
330
1F
100
AcDbEntity
  8
0
100
AcDbLine
 10
-10.22139944807068
 20
5.952569790723179
 30
0.0
 11
-10.94397198815015
 21
7.834935613332239
 31
0.0
  0
LINE
  5
235
330
1F
100
AcDbEntity
  8
0
100
AcDbLine
 10
-9.699546042714651
 20
4.00498636783164
 30
0.0
 11
-10.22139944807068
 21
5.952569790723179
 31
0.0
  0
LINE
  5
236
330
1F
100
AcDbEntity
  8
0
100
AcDbLine
 10
-9.384129307195993
 20
2.01352347619686
 30
0.0
 11
-9.699546042714651
 21
4.00498636783164
 31
0.0
  0
LINE
  5
237
330
1F
100
AcDbEntity
  8
0
100
AcDbLine
 10
-9.69954604271465
 20
-4.004986367831649
 30
0.0
 11
-9.384129307195993
 21
-2.013523476196867
 31
0.0
  0
LINE
  5
238
330
1F
100
AcDbEntity
  8
0
100
AcDbLine
 10
-10.22139944807068
 20
-5.952569790723179
 30
0.0
 11
-9.69954604271465
 21
-4.004986367831649
 31
0.0
  0
LINE
  5
239
330
1F
100
AcDbEntity
  8
0
100
AcDbLine
 10
-10.94397198815016
 20
-7.834935613332249
 30
0.0
 11
-10.22139944807068
 21
-5.952569790723179
 31
0.0
  0
LINE
  5
23A
330
1F
100
AcDbEntity
  8
0
100
AcDbLine
 10
-11.85934700699594
 20
-9.631460241795962
 30
0.0
 11
-10.94397198815016
 21
-7.834935613332249
 31
0.0
  0
LINE
  5
23B
330
1F
100
AcDbEntity
  8
0
100
AcDbLine
 10
-12.95749546434702
 20
-11.32246057633792
 30
0.0
 11
-11.85934700699594
 21
-9.631460241795962
 31
0.0
  0
LINE
  5
23C
330
1F
100
AcDbEntity
  8
0
100
AcDbLine
 10
-14.22638581590232
 20
-12.88940966342833
 30
0.0
 11
-12.95749546434702
 21
-11.32246057633792
 31
0.0
  0
LINE
  5
23D
330
1F
100
AcDbEntity
  8
0
100
AcDbLine
 10
-15.65211583343783
 20
-14.31513968096384
 30
0.0
 11
-14.22638581590232
 21
-12.88940966342833
 31
0.0
  0
LINE
  5
23E
330
1F
100
AcDbEntity
  8
0
100
AcDbLine
 10
-17.21906492052824
 20
-15.58403003251914
 30
0.0
 11
-15.65211583343783
 21
-14.31513968096384
 31
0.0
  0
LINE
  5
23F
330
1F
100
AcDbEntity
  8
0
100
AcDbLine
 10
-18.9100652550702
 20
-16.68217848987023
 30
0.0
 11
-17.21906492052824
 21
-15.58403003251914
 31
0.0
  0
LINE
  5
240
330
1F
100
AcDbEntity
  8
0
100
AcDbLine
 10
-20.70658988353391
 20
-17.597553508716
 30
0.0
 11
-18.9100652550702
 21
-16.68217848987023
 31
0.0
  0
LINE
  5
241
330
1F
100
AcDbEntity
  8
0
100
AcDbLine
 10
-22.58895570614298
 20
-18.32012604879548
 30
0.0
 11
-20.70658988353391
 21
-17.597553508716
 31
0.0
  0
LINE
  5
242
330
1F
100
AcDbEntity
  8
0
100
AcDbLine
 10
-24.53653912903452
 20
-18.84197945415151
 30
0.0
 11
-22.58895570614298
 21
-18.32012604879548
 31
0.0
  0
LINE
  5
243
330
1F
100
AcDbEntity
  8
0
100
AcDbLine
 10
-26.52800202066929
 20
-19.15739618967017
 30
0.0
 11
-24.53653912903452
 21
-18.84197945415151
 31
0.0
  0
LINE
  5
244
330
1F
100
AcDbEntity
  8
0
100
AcDbLine
 10
-28.54152549686616
 20
-19.26292048359191
 30
0.0
 11
-26.52800202066929
 21
-19.15739618967017
 31
0.0
  0
LINE
  5
245
330
1F
100
AcDbEntity
  8
0
100
AcDbLine
 10
-30.55504897306303
 20
-19.15739618967017
 30
0.0
 11
-28.54152549686616
 21
-19.26292048359191
 31
0.0
  0
LINE
  5
246
330
1F
100
AcDbEntity
  8
0
100
AcDbLine
 10
-32.54651186469781
 20
-18.84197945415151
 30
0.0
 11
-30.55504897306303
 21
-19.15739618967017
 31
0.0
  0
LINE
  5
247
330
1F
100
AcDbEntity
  8
0
100
AcDbLine
 10
-34.49409528758933
 20
-18.32012604879548
 30
0.0
 11
-32.54651186469781
 21
-18.84197945415151
 31
0.0
  0
LINE
  5
248
330
1F
100
AcDbEntity
  8
0
100
AcDbLine
 10
-36.3764611101984
 20
-17.59755350871601
 30
0.0
 11
-34.49409528758933
 21
-18.32012604879548
 31
0.0
  0
LINE
  5
249
330
1F
100
AcDbEntity
  8
0
100
AcDbLine
 10
-38.17298573866211
 20
-16.68217848987023
 30
0.0
 11
-36.3764611101984
 21
-17.59755350871601
 31
0.0
  0
LINE
  5
24A
330
1F
100
AcDbEntity
  8
0
100
AcDbLine
 10
-39.86398607320407
 20
-15.58403003251914
 30
0.0
 11
-38.17298573866211
 21
-16.68217848987023
 31
0.0
  0
LINE
  5
24B
330
1F
100
AcDbEntity
  8
0
100
AcDbLine
 10
-41.43093516029447
 20
-14.31513968096384
 30
0.0
 11
-39.86398607320407
 21
-15.58403003251914
 31
0.0
  0
LINE
  5
24C
330
1F
100
AcDbEntity
  8
0
100
AcDbLine
 10
-42.85666517782999
 20
-12.88940966342833
 30
0.0
 11
-41.43093516029447
 21
-14.31513968096384
 31
0.0
  0
LINE
  5
24D
330
1F
100
AcDbEntity
  8
0
100
AcDbLine
 10
-44.1255555293853
 20
-11.32246057633793
 30
0.0
 11
-42.85666517782999
 21
-12.88940966342833
 31
0.0
  0
LINE
  5
24E
330
1F
100
AcDbEntity
  8
0
100
AcDbLine
 10
-45.22370398673637
 20
-9.631460241795962
 30
0.0
 11
-44.1255555293853
 21
-11.32246057633793
 31
0.0
  0
LINE
  5
24F
330
1F
100
AcDbEntity
  8
0
100
AcDbLine
 10
-46.13907900558216
 20
-7.834935613332249
 30
0.0
 11
-45.22370398673637
 21
-9.631460241795962
 31
0.0
  0
LINE
  5
250
330
1F
100
AcDbEntity
  8
0
100
AcDbLine
 10
-46.86165154566164
 20
-5.952569790723186
 30
0.0
 11
-46.13907900558216
 21
-7.834935613332249
 31
0.0
  0
LINE
  5
251
330
1F
100
AcDbEntity
  8
0
100
AcDbLine
 10
-47.38350495101766
 20
-4.004986367831649
 30
0.0
 11
-46.86165154566164
 21
-5.952569790723186
 31
0.0
  0
LINE
  5
252
330
1F
100
AcDbEntity
  8
0
100
AcDbLine
 10
-47.69892168653632
 20
-2.01352347619687
 30
0.0
 11
-47.38350495101766
 21
-4.004986367831649
 31
0.0
  0
LINE
  5
253
330
1F
100
AcDbEntity
  8
0
100
AcDbLine
 10
-47.80444598045808
 20
-0.0000000000000033
 30
0.0
 11
-47.69892168653632
 21
-2.01352347619687
 31
0.0
  0
LINE
  5
254
330
1F
100
AcDbEntity
  8
0
100
AcDbLine
 10
-47.69892168653632
 20
2.013523476196877
 30
0.0
 11
-47.80444598045808
 21
-0.0000000000000033
 31
0.0
  0
LINE
  5
255
330
1F
100
AcDbEntity
  8
0
100
AcDbLine
 10
47.7604654932723
 20
-3.168306364597711
 30
0.0
 11
47.80444598045807
 21
0.0000000000000099
 31
0.0
  0
LINE
  5
256
330
1F
100
AcDbEntity
  8
0
100
AcDbLine
 10
47.80444598045807
 20
0.0000000000000099
 30
0.0
 11
47.83000686149272
 21
1.841378012132497
 31
0.0
  0
LINE
  5
257
330
1F
100
AcDbEntity
  8
0
100
AcDbLine
 10
-47.76046549327231
 20
3.168306364597691
 30
0.0
 11
-47.80444598045808
 21
-0.0000000000000033
 31
0.0
  0
LINE
  5
258
330
1F
100
AcDbEntity
  8
0
100
AcDbLine
 10
-47.80444598045808
 20
-0.0000000000000033
 30
0.0
 11
-47.8300068614927
 21
-1.841378012132497
 31
0.0
  0
LINE
  5
259
330
1F
100
AcDbEntity
  8
0
100
AcDbLine
 10
-3.168306364597679
 20
-47.7604654932723
 30
0.0
 11
0.0000000000000033
 21
-47.80444598045806
 31
0.0
  0
LINE
  5
25A
330
1F
100
AcDbEntity
  8
0
100
AcDbLine
 10
0.0000000000000033
 20
-47.80444598045806
 30
0.0
 11
1.84137801213251
 21
-47.83000686149269
 31
0.0
  0
LINE
  5
25B
330
1F
100
AcDbEntity
  8
0
100
AcDbLine
 10
3.168306364597679
 20
47.76046549327231
 30
0.0
 11
0.0000000000000002
 21
47.80444598045808
 31
0.0
  0
LINE
  5
25C
330
1F
100
AcDbEntity
  8
0
100
AcDbLine
 10
0.0000000000000002
 20
47.80444598045808
 30
0.0
 11
-1.84137801213251
 21
47.8300068614927
 31
0.0
  0
LINE
  5
25D
330
1F
100
AcDbEntity
  8
0
100
AcDbLine
 10
-0.424716690496713
 20
9.329935851312118
 30
0.0
 11
-0.6177966885112067
 21
9.310982365767542
 31
0.0
  0
LINE
  5
25E
330
1F
100
AcDbEntity
  8
0
100
AcDbLine
 10
-0.6177966885112067
 20
9.310982365767542
 30
0.0
 11
-1.397633904950771
 21
9.234430503529587
 31
0.0
  0
LINE
  5
25F
330
1F
100
AcDbEntity
  8
0
100
AcDbLine
 10
1.524367126266568
 20
9.214357933200958
 30
0.0
 11
0.647961370168732
 21
9.312563229745992
 31
0.0
  0
LINE
  5
260
330
1F
100
AcDbEntity
  8
0
100
AcDbLine
 10
0.647961370168732
 20
9.312563229745992
 30
0.0
 11
0.5528538088961079
 21
9.32322046949307
 31
0.0
  0
LINE
  5
261
330
1F
100
AcDbEntity
  8
0
100
AcDbLine
 10
-9.214357933200944
 20
1.524367126266581
 30
0.0
 11
-9.312563229745988
 21
0.6479613701687771
 31
0.0
  0
LINE
  5
262
330
1F
100
AcDbEntity
  8
0
100
AcDbLine
 10
-9.312563229745988
 20
0.6479613701687771
 30
0.0
 11
-9.32322046949307
 21
0.552853808896121
 31
0.0
  0
LINE
  5
263
330
1F
100
AcDbEntity
  8
0
100
AcDbLine
 10
-9.329935851312106
 20
-0.4247166904966996
 30
0.0
 11
-9.310982365767531
 21
-0.6177966885111578
 31
0.0
  0
LINE
  5
264
330
1F
100
AcDbEntity
  8
0
100
AcDbLine
 10
-9.310982365767531
 20
-0.6177966885111578
 30
0.0
 11
-9.234430503529573
 21
-1.397633904950758
 31
0.0
  0
LINE
  5
265
330
1F
100
AcDbEntity
  8
0
100
AcDbLine
 10
-1.524367126266575
 20
-9.214357933200937
 30
0.0
 11
-0.6479613701687275
 21
-9.31256322974598
 31
0.0
  0
LINE
  5
266
330
1F
100
AcDbEntity
  8
0
100
AcDbLine
 10
-0.6479613701687275
 20
-9.31256322974598
 30
0.0
 11
-0.5528538088961146
 21
-9.323220469493055
 31
0.0
  0
LINE
  5
267
330
1F
100
AcDbEntity
  8
0
100
AcDbLine
 10
0.4247166904967129
 20
-9.329935851312099
 30
0.0
 11
0.617796688511173
 21
-9.310982365767526
 31
0.0
  0
LINE
  5
268
330
1F
100
AcDbEntity
  8
0
100
AcDbLine
 10
0.617796688511173
 20
-9.310982365767526
 30
0.0
 11
1.397633904950764
 21
-9.234430503529573
 31
0.0
  0
LINE
  5
269
330
1F
100
AcDbEntity
  8
0
100
AcDbLine
 10
9.214357933200944
 20
-1.524367126266568
 30
0.0
 11
9.312563229745988
 21
-0.647961370168769
 31
0.0
  0
LINE
  5
26A
330
1F
100
AcDbEntity
  8
0
100
AcDbLine
 10
9.312563229745988
 20
-0.647961370168769
 30
0.0
 11
9.32322046949307
 21
-0.5528538088961146
 31
0.0
  0
LINE
  5
26B
330
1F
100
AcDbEntity
  8
0
100
AcDbLine
 10
9.329935851312106
 20
0.4247166904967129
 30
0.0
 11
9.310982365767531
 21
0.6177966885111691
 31
0.0
  0
LINE
  5
26C
330
1F
100
AcDbEntity
  8
0
100
AcDbLine
 10
9.310982365767531
 20
0.6177966885111691
 30
0.0
 11
9.234430503529573
 21
1.397633904950764
 31
0.0
  0
LINE
  5
26D
330
1F
100
AcDbEntity
  8
0
100
AcDbLine
 10
-2.013523476196872
 20
9.384129307196
 30
0.0
 11
-0.6177966885112067
 21
9.310982365767542
 31
0.0
  0
LINE
  5
26E
330
1F
100
AcDbEntity
  8
0
100
AcDbLine
 10
-0.6177966885112067
 20
9.310982365767542
 30
0.0
 11
-0.0000000000000021
 21
9.278605013274253
 31
0.0
  0
LINE
  5
26F
330
1F
100
AcDbEntity
  8
0
100
AcDbLine
 10
-0.0000000000000021
 20
9.278605013274253
 30
0.0
 11
0.5528538088961079
 21
9.32322046949307
 31
0.0
  0
LINE
  5
270
330
1F
100
AcDbEntity
  8
0
100
AcDbLine
 10
9.278605013274246
 20
0.0000000000000099
 30
0.0
 11
9.32322046949307
 21
-0.5528538088961146
 31
0.0
  0
LINE
  5
271
330
1F
100
AcDbEntity
  8
0
100
AcDbLine
 10
9.384129307195993
 20
2.013523476196877
 30
0.0
 11
9.310982365767531
 21
0.6177966885111691
 31
0.0
  0
LINE
  5
272
330
1F
100
AcDbEntity
  8
0
100
AcDbLine
 10
9.310982365767531
 20
0.6177966885111691
 30
0.0
 11
9.278605013274246
 21
0.0000000000000099
 31
0.0
  0
LINE
  5
273
330
1F
100
AcDbEntity
  8
0
100
AcDbLine
 10
0.0000000000000033
 20
-9.27860501327424
 30
0.0
 11
-0.5528538088961146
 21
-9.323220469493055
 31
0.0
  0
LINE
  5
274
330
1F
100
AcDbEntity
  8
0
100
AcDbLine
 10
2.01352347619687
 20
-9.384129307195987
 30
0.0
 11
0.617796688511173
 21
-9.310982365767526
 31
0.0
  0
LINE
  5
275
330
1F
100
AcDbEntity
  8
0
100
AcDbLine
 10
0.617796688511173
 20
-9.310982365767526
 30
0.0
 11
0.0000000000000033
 21
-9.27860501327424
 31
0.0
  0
LINE
  5
276
330
1F
100
AcDbEntity
  8
0
100
AcDbLine
 10
-9.278605013274246
 20
0.0
 30
0.0
 11
-9.32322046949307
 21
0.552853808896121
 31
0.0
  0
LINE
  5
277
330
1F
100
AcDbEntity
  8
0
100
AcDbLine
 10
-9.384129307195993
 20
-2.013523476196867
 30
0.0
 11
-9.310982365767531
 21
-0.6177966885111578
 31
0.0
  0
LINE
  5
278
330
1F
100
AcDbEntity
  8
0
100
AcDbLine
 10
-9.310982365767531
 20
-0.6177966885111578
 30
0.0
 11
-9.278605013274246
 21
0.0
 31
0.0
  0
LINE
  5
279
330
1F
100
AcDbEntity
  8
0
100
AcDbLine
 10
0.647961370168732
 20
9.312563229745992
 30
0.0
 11
2.013523476196856
 21
9.384129307196
 31
0.0
  0
LINE
  5
27A
330
1F
100
AcDbEntity
  8
0
100
AcDbLine
 10
9.312563229745988
 20
-0.647961370168769
 30
0.0
 11
9.384129307195993
 21
-2.013523476196851
 31
0.0
  0
LINE
  5
27B
330
1F
100
AcDbEntity
  8
0
100
AcDbLine
 10
-0.6479613701687275
 20
-9.31256322974598
 30
0.0
 11
-2.013523476196857
 21
-9.38412930719599
 31
0.0
  0
LINE
  5
27C
330
1F
100
AcDbEntity
  8
0
100
AcDbLine
 10
-9.312563229745988
 20
0.6479613701687771
 30
0.0
 11
-9.384129307195993
 21
2.01352347619686
 31
0.0
  0
LINE
  5
27D
330
1F
100
AcDbEntity
  8
0
100
AcDbLine
 10
-5.595952715424847
 20
52.12506104061129
 30
0.0
 11
0.1167449726278361
 21
52.42445084015749
 31
0.0
  0
LINE
  5
27E
330
1F
100
AcDbEntity
  8
0
100
AcDbLine
 10
1.586164579390198
 20
58.17245376360783
 30
0.0
 11
4.503201792557419
 21
58.01957832117973
 31
0.0
  0
LINE
  5
27F
330
1F
100
AcDbEntity
  8
0
100
AcDbLine
 10
13.64623629870911
 20
56.571463918055
 30
0.0
 11
16.46774465830012
 21
55.8154430316649
 31
0.0
  0
LINE
  5
280
330
1F
100
AcDbEntity
  8
0
100
AcDbLine
 10
25.10990200986754
 20
52.49802963928126
 30
0.0
 11
27.71256806146897
 21
51.17190504945514
 31
0.0
  0
LINE
  5
281
330
1F
100
AcDbEntity
  8
0
100
AcDbLine
 10
35.47614451251673
 20
46.13017955177536
 30
0.0
 11
37.74621926069623
 21
44.29190926654042
 31
0.0
  0
LINE
  5
282
330
1F
100
AcDbEntity
  8
0
100
AcDbLine
 10
44.29190926654045
 20
37.74621926069621
 30
0.0
 11
46.13017955177538
 21
35.47614451251669
 31
0.0
  0
LINE
  5
283
330
1F
100
AcDbEntity
  8
0
100
AcDbLine
 10
51.17190504945516
 20
27.71256806146893
 30
0.0
 11
52.49802963928125
 21
25.1099020098675
 31
0.0
  0
LINE
  5
284
330
1F
100
AcDbEntity
  8
0
100
AcDbLine
 10
55.81544303166495
 20
16.46774465830007
 30
0.0
 11
56.57146391805499
 21
13.64623629870907
 31
0.0
  0
LINE
  5
285
330
1F
100
AcDbEntity
  8
0
100
AcDbLine
 10
58.01957832117974
 20
4.503201792557379
 30
0.0
 11
58.17245376360782
 21
1.586164579390159
 31
0.0
  0
LINE
  5
286
330
1F
100
AcDbEntity
  8
0
100
AcDbLine
 10
57.68797962923327
 20
-7.658152600279721
 30
0.0
 11
57.23102823728747
 21
-10.5432301433102
 31
0.0
  0
LINE
  5
287
330
1F
100
AcDbEntity
  8
0
100
AcDbLine
 10
54.83513940985059
 20
-19.48480897659132
 30
0.0
 11
53.78833215205505
 21
-22.21183511671658
 31
0.0
  0
LINE
  5
288
330
1F
100
AcDbEntity
  8
0
100
AcDbLine
 10
49.58574047006495
 20
-30.45988570213889
 30
0.0
 11
47.99482784672384
 21
-32.90967631131223
 31
0.0
  0
LINE
  5
289
330
1F
100
AcDbEntity
  8
0
100
AcDbLine
 10
42.16920673295582
 20
-40.1037192597549
 30
0.0
 11
40.10371925975488
 21
-42.16920673295583
 31
0.0
  0
LINE
  5
28A
330
1F
100
AcDbEntity
  8
0
100
AcDbLine
 10
32.90967631131219
 20
-47.99482784672385
 30
0.0
 11
30.45988570213886
 21
-49.58574047006496
 31
0.0
  0
LINE
  5
28B
330
1F
100
AcDbEntity
  8
0
100
AcDbLine
 10
22.21183511671655
 20
-53.78833215205505
 30
0.0
 11
19.48480897659127
 21
-54.83513940985058
 31
0.0
  0
LINE
  5
28C
330
1F
100
AcDbEntity
  8
0
100
AcDbLine
 10
10.54323014331018
 20
-57.23102823728749
 30
0.0
 11
7.658152600279708
 21
-57.68797962923325
 31
0.0
  0
LINE
  5
28D
330
1F
100
AcDbEntity
  8
0
100
AcDbLine
 10
-1.586164579390172
 20
-58.17245376360783
 30
0.0
 11
-4.503201792557379
 21
-58.01957832117973
 31
0.0
  0
LINE
  5
28E
330
1F
100
AcDbEntity
  8
0
100
AcDbLine
 10
-13.64623629870906
 20
-56.571463918055
 30
0.0
 11
-16.46774465830007
 21
-55.81544303166491
 31
0.0
  0
LINE
  5
28F
330
1F
100
AcDbEntity
  8
0
100
AcDbLine
 10
-25.10990200986751
 20
-52.49802963928127
 30
0.0
 11
-27.71256806146891
 21
-51.17190504945516
 31
0.0
  0
LINE
  5
290
330
1F
100
AcDbEntity
  8
0
100
AcDbLine
 10
-35.47614451251668
 20
-46.13017955177539
 30
0.0
 11
-37.74621926069617
 21
-44.29190926654044
 31
0.0
  0
LINE
  5
291
330
1F
100
AcDbEntity
  8
0
100
AcDbLine
 10
-44.2919092665404
 20
-37.74621926069624
 30
0.0
 11
-46.13017955177533
 21
-35.47614451251674
 31
0.0
  0
LINE
  5
292
330
1F
100
AcDbEntity
  8
0
100
AcDbLine
 10
-51.17190504945513
 20
-27.71256806146901
 30
0.0
 11
-52.49802963928121
 21
-25.10990200986759
 31
0.0
  0
LINE
  5
293
330
1F
100
AcDbEntity
  8
0
100
AcDbLine
 10
-55.8154430316649
 20
-16.46774465830013
 30
0.0
 11
-56.57146391805497
 21
-13.64623629870913
 31
0.0
  0
LINE
  5
294
330
1F
100
AcDbEntity
  8
0
100
AcDbLine
 10
-58.01957832117975
 20
-4.503201792557426
 30
0.0
 11
-58.17245376360782
 21
-1.586164579390218
 31
0.0
  0
LINE
  5
295
330
1F
100
AcDbEntity
  8
0
100
AcDbLine
 10
-57.68797962923327
 20
7.658152600279695
 30
0.0
 11
-57.23102823728749
 21
10.54323014331016
 31
0.0
  0
LINE
  5
296
330
1F
100
AcDbEntity
  8
0
100
AcDbLine
 10
-54.83513940985061
 20
19.48480897659129
 30
0.0
 11
-53.78833215205505
 21
22.21183511671657
 31
0.0
  0
LINE
  5
297
330
1F
100
AcDbEntity
  8
0
100
AcDbLine
 10
-49.58574047006496
 20
30.4598857021389
 30
0.0
 11
-47.99482784672383
 21
32.90967631131223
 31
0.0
  0
LINE
  5
298
330
1F
100
AcDbEntity
  8
0
100
AcDbLine
 10
-42.16920673295581
 20
40.10371925975492
 30
0.0
 11
-40.10371925975486
 21
42.16920673295586
 31
0.0
  0
LINE
  5
299
330
1F
100
AcDbEntity
  8
0
100
AcDbLine
 10
-32.90967631131218
 20
47.99482784672388
 30
0.0
 11
-30.45988570213883
 21
49.58574047006498
 31
0.0
  0
LINE
  5
29A
330
1F
100
AcDbEntity
  8
0
100
AcDbLine
 10
-22.2118351167165
 20
53.78833215205508
 30
0.0
 11
-19.48480897659122
 21
54.83513940985062
 31
0.0
  0
LINE
  5
29B
330
1F
100
AcDbEntity
  8
0
100
AcDbLine
 10
-10.54323014331009
 20
57.23102823728753
 30
0.0
 11
-7.658152600279616
 21
57.68797962923326
 31
0.0
  0
LINE
  5
29C
330
1F
100
AcDbEntity
  8
0
100
AcDbLine
 10
0.0000000000000066
 20
52.41833249539961
 30
0.0
 11
0.0000000000000066
 21
52.5352376825234
 31
0.0
  0
ENDSEC
  0
SECTION
  2
OBJECTS
  0
DICTIONARY
  5
C
330
0
100
AcDbDictionary
  3
ACAD_GROUP
350
D
  3
ACAD_LAYOUT
350
1A
  3
ACAD_MATERIAL
350
43
  3
ACAD_MLEADERSTYLE
350
2BF
  3
ACAD_MLINESTYLE
350
17
  3
ACAD_PLOTSETTINGS
350
19
  3
ACAD_SCALELIST
350
47
  3
ACAD_VISUALSTYLE
350
2A
  3
ACDBHEADERROUNDTRIPXREC
350
29D
  3
ACDBVARIABLEDICTIONARY
350
2BD
  0
DICTIONARY
  5
2C4
330
8
100
AcDbDictionary
280
     1
  3
ACAD_XREC_ROUNDTRIP
360
2C5
  0
DICTIONARY
  5
D
102
{ACAD_REACTORS
330
C
102
}
330
C
100
AcDbDictionary
  0
DICTIONARY
  5
1A
102
{ACAD_REACTORS
330
C
102
}
330
C
100
AcDbDictionary
  0
DICTIONARY
  5
43
102
{ACAD_REACTORS
330
C
102
}
330
C
100
AcDbDictionary
  3
BYBLOCK
350
45
  3
BYLAYER
350
44
  3
GLOBAL
350
46
  0
DICTIONARY
  5
2BF
102
{ACAD_REACTORS
330
C
102
}
330
C
100
AcDbDictionary
  0
DICTIONARY
  5
17
102
{ACAD_REACTORS
330
C
102
}
330
C
100
AcDbDictionary
  3
STANDARD
350
18
  0
DICTIONARY
  5
19
102
{ACAD_REACTORS
330
C
102
}
330
C
100
AcDbDictionary
  0
DICTIONARY
  5
47
102
{ACAD_REACTORS
330
C
102
}
330
C
100
AcDbDictionary
  3
A0
350
48
  3
A1
350
49
  3
A2
350
4A
  3
A3
350
4B
  3
A4
350
4C
  3
A5
350
4D
  3
A6
350
4E
  3
A7
350
4F
  3
A8
350
50
  3
A9
350
51
  3
B0
350
52
  3
B1
350
53
  3
B2
350
54
  3
B3
350
55
  3
B4
350
56
  3
B5
350
57
  3
B6
350
58
  3
B7
350
59
  3
B8
350
5A
  3
B9
350
5B
  3
C0
350
5C
  3
C1
350
5D
  3
C2
350
5E
  3
C3
350
5F
  3
C4
350
60
  3
C5
350
61
  3
C6
350
62
  3
C7
350
63
  3
C8
350
64
  3
C9
350
65
  3
D0
350
66
  3
D1
350
67
  3
D2
350
68
  0
DICTIONARY
  5
2A
102
{ACAD_REACTORS
330
C
102
}
330
C
100
AcDbDictionary
  3
2DWIREFRAME
350
2F
  3
BASIC
350
32
  3
BRIGHTEN
350
36
  3
COLORCHANGE
350
3A
  3
CONCEPTUAL
350
34
  3
DIM
350
35
  3
EDGECOLOROFF
350
3D
  3
FACEPATTERN
350
39
  3
FLAT
350
2B
  3
FLATWITHEDGES
350
2C
  3
GOURAUD
350
2D
  3
GOURAUDWITHEDGES
350
2E
  3
HIDDEN
350
31
  3
JITTEROFF
350
3B
  3
LINEPATTERN
350
38
  3
OVERHANGOFF
350
3C
  3
REALISTIC
350
33
  3
SHADED
350
42
  3
SHADED_WITH_EDGES
350
41
  3
SHADES_OF_GRAY
350
3E
  3
SKETCHY
350
3F
  3
THICKEN
350
37
  3
WIREFRAME
350
30
  3
X-RAY
350
40
  0
DICTIONARY
  5
29D
102
{ACAD_REACTORS
330
C
102
}
330
C
100
AcDbDictionary
  3
CEPSNTYPE
350
2A6
  3
DIMSTYLEDATA
350
2BC
  3
FINGERPRINTGUID
350
2A7
  3
HYPERLINKBASE
350
2A0
  3
INSUNITS
350
2A5
  3
LAYOUTDICT
350
2A2
  3
LWETCUNION
350
2A4
  3
PLOTSETDICT
350
2A3
  3
PSVPSCALE
350
2A9
  3
PUCSBASE
350
2AC
  3
PUCSORGBACK
350
2B2
  3
PUCSORGBOTTOM
350
2AE
  3
PUCSORGFRONT
350
2B1
  3
PUCSORGLEFT
350
2AF
  3
PUCSORGRIGHT
350
2B0
  3
PUCSORGTOP
350
2AD
  3
PUCSORTHOREF
350
2AA
  3
PUCSORTHOVIEW
350
2AB
  3
STYLESHEET
350
2A1
  3
TSTACKALIGN
350
29E
  3
TSTACKSIZE
350
29F
  3
UCSBASE
350
2B5
  3
UCSORGBACK
350
2BB
  3
UCSORGBOTTOM
350
2B7
  3
UCSORGFRONT
350
2BA
  3
UCSORGLEFT
350
2B8
  3
UCSORGRIGHT
350
2B9
  3
UCSORGTOP
350
2B6
  3
UCSORTHOREF
350
2B3
  3
UCSORTHOVIEW
350
2B4
  3
VERSIONGUID
350
2A8
  0
DICTIONARY
  5
2BD
102
{ACAD_REACTORS
330
C
102
}
330
C
100
AcDbDictionary
  3
CANNOSCALE
350
2C6
  3
DIMASSOC
350
2C2
  3
HIDETEXT
350
2C3
  3
MSLTSCALE
350
2C7
  0
XRECORD
  5
2C5
102
{ACAD_REACTORS
330
2C4
102
}
330
2C4
100
AcDbXrecord
102
VTR_0.000_0.000_1.000_1.000_GRIDDISPLAY
 70
     3
102
VTR_0.000_0.000_1.000_1.000_GRIDMAJOR
 70
     5
102
VTR_0.000_0.000_1.000_1.000_DEFAULTLIGHTING
280
     1
102
VTR_0.000_0.000_1.000_1.000_DEFAULTLIGHTINGTYPE
 70
     1
102
VTR_0.000_0.000_1.000_1.000_BRIGHTNESS
141
0.0
102
VTR_0.000_0.000_1.000_1.000_CONTRAST
142
0.0
  0
MATERIAL
  5
45
102
{ACAD_REACTORS
330
43
102
}
102
{ACAD_XDICTIONARY
360
2CA
102
}
330
43
100
AcDbMaterial
  1
BYBLOCK
  0
MATERIAL
  5
44
102
{ACAD_REACTORS
330
43
102
}
102
{ACAD_XDICTIONARY
360
2C8
102
}
330
43
100
AcDbMaterial
  1
BYLAYER
  0
MATERIAL
  5
46
102
{ACAD_REACTORS
330
43
102
}
102
{ACAD_XDICTIONARY
360
2CC
102
}
330
43
100
AcDbMaterial
  1
GLOBAL
  0
MLINESTYLE
  5
18
102
{ACAD_REACTORS
330
17
102
}
330
17
100
AcDbMlineStyle
  2
Standard
 70
     0
  3

 62
   256
 51
90.0
 52
90.0
 71
     2
 49
0.5
 62
   256
  6
BYLAYER
 49
-0.5
 62
   256
  6
BYLAYER
  0
ACAD_PROXY_OBJECT
  5
48
102
{ACAD_REACTORS
330
47
102
}
330
47
100
AcDbProxyObject
 90
      499
 91
      503
 93
       41
310
903313A31580
  0
ACAD_PROXY_OBJECT
  5
49
102
{ACAD_REACTORS
330
47
102
}
330
47
100
AcDbProxyObject
 90
      499
 91
      503
 93
      105
310
903313A324000000000000004000
  0
ACAD_PROXY_OBJECT
  5
4A
102
{ACAD_REACTORS
330
47
102
}
330
47
100
AcDbProxyObject
 90
      499
 91
      503
 93
      105
310
903313A344000000000000104000
  0
ACAD_PROXY_OBJECT
  5
4B
102
{ACAD_REACTORS
330
47
102
}
330
47
100
AcDbProxyObject
 90
      499
 91
      503
 93
      105
310
903313A354000000000000144000
  0
ACAD_PROXY_OBJECT
  5
4C
102
{ACAD_REACTORS
330
47
102
}
330
47
100
AcDbProxyObject
 90
      499
 91
      503
 93
      105
310
903313A384000000000000204000
  0
ACAD_PROXY_OBJECT
  5
4D
102
{ACAD_REACTORS
330
47
102
}
330
47
100
AcDbProxyObject
 90
      499
 91
      503
 93
      113
310
904313A31304000000000000244000
  0
ACAD_PROXY_OBJECT
  5
4E
102
{ACAD_REACTORS
330
47
102
}
330
47
100
AcDbProxyObject
 90
      499
 91
      503
 93
      113
310
904313A31364000000000000304000
  0
ACAD_PROXY_OBJECT
  5
4F
102
{ACAD_REACTORS
330
47
102
}
330
47
100
AcDbProxyObject
 90
      499
 91
      503
 93
      113
310
904313A32304000000000000344000
  0
ACAD_PROXY_OBJECT
  5
50
102
{ACAD_REACTORS
330
47
102
}
330
47
100
AcDbProxyObject
 90
      499
 91
      503
 93
      113
310
904313A333040000000000003E4000
  0
ACAD_PROXY_OBJECT
  5
51
102
{ACAD_REACTORS
330
47
102
}
330
47
100
AcDbProxyObject
 90
      499
 91
      503
 93
      113
310
904313A34304000000000000444000
  0
ACAD_PROXY_OBJECT
  5
52
102
{ACAD_REACTORS
330
47
102
}
330
47
100
AcDbProxyObject
 90
      499
 91
      503
 93
      113
310
904313A35304000000000000494000
  0
ACAD_PROXY_OBJECT
  5
53
102
{ACAD_REACTORS
330
47
102
}
330
47
100
AcDbProxyObject
 90
      499
 91
      503
 93
      121
310
905313A3130304000000000000594000
  0
ACAD_PROXY_OBJECT
  5
54
102
{ACAD_REACTORS
330
47
102
}
330
47
100
AcDbProxyObject
 90
      499
 91
      503
 93
      105
310
903323A310000000000000010100
  0
ACAD_PROXY_OBJECT
  5
55
102
{ACAD_REACTORS
330
47
102
}
330
47
100
AcDbProxyObject
 90
      499
 91
      503
 93
      105
310
903343A310000000000000410100
  0
ACAD_PROXY_OBJECT
  5
56
102
{ACAD_REACTORS
330
47
102
}
330
47
100
AcDbProxyObject
 90
      499
 91
      503
 93
      105
310
903383A310000000000000810100
  0
ACAD_PROXY_OBJECT
  5
57
102
{ACAD_REACTORS
330
47
102
}
330
47
100
AcDbProxyObject
 90
      499
 91
      503
 93
      113
310
90431303A310000000000000910100
  0
ACAD_PROXY_OBJECT
  5
58
102
{ACAD_REACTORS
330
47
102
}
330
47
100
AcDbProxyObject
 90
      499
 91
      503
 93
      121
310
9053130303A310000000000001650100
  0
ACAD_PROXY_OBJECT
  5
59
102
{ACAD_REACTORS
330
47
102
}
330
47
100
AcDbProxyObject
 90
      499
 91
      503
 93
      257
310
90E312F31323822203D2031272D3022000000000000200FC000000000000284000
  0
ACAD_PROXY_OBJECT
  5
5A
102
{ACAD_REACTORS
330
47
102
}
330
47
100
AcDbProxyObject
 90
      499
 91
      503
 93
      249
310
90D312F363422203D2031272D3022000000000000240FC000000000000284000
  0
ACAD_PROXY_OBJECT
  5
5B
102
{ACAD_REACTORS
330
47
102
}
330
47
100
AcDbProxyObject
 90
      499
 91
      503
 93
      249
310
90D312F333222203D2031272D3022000000000000280FC000000000000284000
  0
ACAD_PROXY_OBJECT
  5
5C
102
{ACAD_REACTORS
330
47
102
}
330
47
100
AcDbProxyObject
 90
      499
 91
      503
 93
      249
310
90D312F313622203D2031272D30220000000000002C0FC000000000000284000
  0
ACAD_PROXY_OBJECT
  5
5D
102
{ACAD_REACTORS
330
47
102
}
330
47
100
AcDbProxyObject
 90
      499
 91
      503
 93
      249
310
90D332F333222203D2031272D30220000000000002E0FC000000000000284000
  0
ACAD_PROXY_OBJECT
  5
5E
102
{ACAD_REACTORS
330
47
102
}
330
47
100
AcDbProxyObject
 90
      499
 91
      503
 93
      241
310
90C312F3822203D2031272D3022000000000000300FC000000000000284000
  0
ACAD_PROXY_OBJECT
  5
5F
102
{ACAD_REACTORS
330
47
102
}
330
47
100
AcDbProxyObject
 90
      499
 91
      503
 93
      249
310
90D332F313622203D2031272D3022000000000000320FC000000000000284000
  0
ACAD_PROXY_OBJECT
  5
60
102
{ACAD_REACTORS
330
47
102
}
330
47
100
AcDbProxyObject
 90
      499
 91
      503
 93
      241
310
90C312F3422203D2031272D3022000000000000340FC000000000000284000
  0
ACAD_PROXY_OBJECT
  5
61
102
{ACAD_REACTORS
330
47
102
}
330
47
100
AcDbProxyObject
 90
      499
 91
      503
 93
      241
310
90C332F3822203D2031272D3022000000000000360FC000000000000284000
  0
ACAD_PROXY_OBJECT
  5
62
102
{ACAD_REACTORS
330
47
102
}
330
47
100
AcDbProxyObject
 90
      499
 91
      503
 93
      241
310
90C312F3222203D2031272D3022000000000000380FC000000000000284000
  0
ACAD_PROXY_OBJECT
  5
63
102
{ACAD_REACTORS
330
47
102
}
330
47
100
AcDbProxyObject
 90
      499
 91
      503
 93
      241
310
90C332F3422203D2031272D30220000000000003A0FC000000000000284000
  0
ACAD_PROXY_OBJECT
  5
64
102
{ACAD_REACTORS
330
47
102
}
330
47
100
AcDbProxyObject
 90
      499
 91
      503
 93
      161
310
90A3122203D2031272D30224000000000000284000
  0
ACAD_PROXY_OBJECT
  5
65
102
{ACAD_REACTORS
330
47
102
}
330
47
100
AcDbProxyObject
 90
      499
 91
      503
 93
      257
310
90E312D312F3222203D2031272D30220000000000003E0FC000000000000284000
  0
ACAD_PROXY_OBJECT
  5
66
102
{ACAD_REACTORS
330
47
102
}
330
47
100
AcDbProxyObject
 90
      499
 91
      503
 93
      225
310
90A3322203D2031272D302200000000000002100000000000000284000
  0
ACAD_PROXY_OBJECT
  5
67
102
{ACAD_REACTORS
330
47
102
}
330
47
100
AcDbProxyObject
 90
      499
 91
      503
 93
      225
310
90A3622203D2031272D302200000000000006100000000000000284000
  0
ACAD_PROXY_OBJECT
  5
68
102
{ACAD_REACTORS
330
47
102
}
330
47
100
AcDbProxyObject
 90
      499
 91
      503
 93
      249
310
90D31272D3022203D2031272D30220000000000000A100000000000000284000
  0
ACAD_PROXY_OBJECT
  5
2F
102
{ACAD_REACTORS
330
2A
102
}
330
2A
100
AcDbProxyObject
 90
      499
 91
      501
 93
      436
310
42CC9915DA5C99599C985B595049028333333333333E33F0000000000000F90107901411070040501600405405064090741402480A0340
1001
ACAD
1000
AcDbSavedByObjectVersion
1070
     0
  0
ACAD_PROXY_OBJECT
  5
32
102
{ACAD_REACTORS
330
2A
102
}
330
2A
100
AcDbProxyObject
 90
      499
 91
      501
 93
      388
310
4150985CDA58D07406404333333333333E33F0000000000000F90107A41107004050150841D405064090741402480A0350
1001
ACAD
1000
AcDbSavedByObjectVersion
1070
     0
  0
ACAD_PROXY_OBJECT
  5
36
102
{ACAD_REACTORS
330
2A
102
}
330
2A
100
AcDbProxyObject
 90
      499
 91
      501
 93
      428
310
42109C9A59DA1D195B90C409028333333333333E33F0000000000000F9010790141107004050150841D405064090741402480A029950
1001
ACAD
1000
AcDbSavedByObjectVersion
1070
     0
  0
ACAD_PROXY_OBJECT
  5
3A
102
{ACAD_REACTORS
330
2A
102
}
330
2A
100
AcDbProxyObject
 90
      499
 91
      501
 93
      452
310
42D0DBDB1BDC90DA185B99D95104090240C333333333333E33F0000000000000F90108901411070040501508421405064090741402480A0350
1001
ACAD
1000
AcDbSavedByObjectVersion
1070
     0
  0
ACAD_PROXY_OBJECT
  5
34
102
{ACAD_REACTORS
330
2A
102
}
330
2A
100
AcDbProxyObject
 90
      499
 91
      501
 93
      500
310
4290DBDB98D95C1D1D585B10940D028333333333333E33F0000000000000F90107902409070040501000000000018199010841D405064090740C02480A0340
1001
ACAD
1000
AcDbSavedByObjectVersion
1070
     0
  0
ACAD_PROXY_OBJECT
  5
35
102
{ACAD_REACTORS
330
2A
102
}
330
2A
100
AcDbProxyObject
 90
      499
 91
      501
 93
      412
310
40D11A5B50B409028333333333333E33F0000000000000F9010790141107004050150841D405064090741402480A02677FFFFFD0
1001
ACAD
1000
AcDbSavedByObjectVersion
1070
     0
  0
ACAD_PROXY_OBJECT
  5
3D
102
{ACAD_REACTORS
330
2A
102
}
330
2A
100
AcDbProxyObject
 90
      499
 91
      501
 93
      452
310
43115919D950DBDB1BDC93D999916409028333333333333E33F0000000000000F9010790141107004050150841D405064090741402480A0350
1001
ACAD
1000
AcDbSavedByObjectVersion
1070
     0
  0
ACAD_PROXY_OBJECT
  5
39
102
{ACAD_REACTORS
330
2A
102
}
330
2A
100
AcDbProxyObject
 90
      499
 91
      501
 93
      444
310
42D19858D95C185D1D195C9B90F409028333333333333E33F0000000000000F9010790141107004050150841D405064090741402480A0350
1001
ACAD
1000
AcDbSavedByObjectVersion
1070
     0
  0
ACAD_PROXY_OBJECT
  5
2B
102
{ACAD_REACTORS
330
2A
102
}
330
2A
100
AcDbProxyObject
 90
      499
 91
      501
 93
      380
310
41119B185D240901404333333333333E33F0000000000000F9010740A907004050150841D405064090741402480A1B50
1001
ACAD
1000
AcDbSavedByObjectVersion
1070
     0
  0
ACAD_PROXY_OBJECT
  5
2C
102
{ACAD_REACTORS
330
2A
102
}
330
2A
100
AcDbProxyObject
 90
      499
 91
      501
 93
      468
310
43519B185D15DA5D1A115919D95CD0140901404333333333333E33F0000000000000F90107409019070040501600405405064090741402480A1B50
1001
ACAD
1000
AcDbSavedByObjectVersion
1070
     0
  0
ACAD_PROXY_OBJECT
  5
2D
102
{ACAD_REACTORS
330
2A
102
}
330
2A
100
AcDbProxyObject
 90
      499
 91
      501
 93
      404
310
41D1DBDD5C985D5910240902404333333333333E33F0000000000000F9010740A9070040501641D405064090741402480A1B50
1001
ACAD
1000
AcDbSavedByObjectVersion
1070
     0
  0
ACAD_PROXY_OBJECT
  5
2E
102
{ACAD_REACTORS
330
2A
102
}
330
2A
100
AcDbProxyObject
 90
      499
 91
      501
 93
      492
310
4411DBDD5C985D5915DA5D1A115919D95CD0340902404333333333333E33F0000000000000F90107409019070040501600405405064090741402480A1B50
1001
ACAD
1000
AcDbSavedByObjectVersion
1070
     0
  0
ACAD_PROXY_OBJECT
  5
31
102
{ACAD_REACTORS
330
2A
102
}
330
2A
100
AcDbProxyObject
 90
      499
 91
      501
 93
      476
310
41921A5919195B90640502408333333333333E33F0000000000000F901079024090700405020000000000001110200405405064090740C02480A0340
1001
ACAD
1000
AcDbSavedByObjectVersion
1070
     0
  0
ACAD_PROXY_OBJECT
  5
3B
102
{ACAD_REACTORS
330
2A
102
}
330
2A
100
AcDbProxyObject
 90
      499
 91
      501
 93
      428
310
42529A5D1D195C93D999914409028333333333333E33F0000000000000F9010790141107004050150A41D405064090741402480A0350
1001
ACAD
1000
AcDbSavedByObjectVersion
1070
     0
  0
ACAD_PROXY_OBJECT
  5
38
102
{ACAD_REACTORS
330
2A
102
}
330
2A
100
AcDbProxyObject
 90
      499
 91
      501
 93
      444
310
42D31A5B995C185D1D195C9B90E409028333333333333E33F0000000000000F9010790141107004050750841D405064090741402483A0350
1001
ACAD
1000
AcDbSavedByObjectVersion
1070
     0
  0
ACAD_PROXY_OBJECT
  5
3C
102
{ACAD_REACTORS
330
2A
102
}
330
2A
100
AcDbProxyObject
 90
      499
 91
      501
 93
      444
310
42D3DD995C9A185B99D3D999915409028333333333333E33F0000000000000F9010790141107004050150941D405064090741402480A0350
1001
ACAD
1000
AcDbSavedByObjectVersion
1070
     0
  0
ACAD_PROXY_OBJECT
  5
33
102
{ACAD_REACTORS
330
2A
102
}
330
2A
100
AcDbProxyObject
 90
      499
 91
      501
 93
      428
310
425499585B1A5CDD1A58D08409038333333333333E33F0000000000000F9010740A907004050150800405405064090740C02480A1B40
1001
ACAD
1000
AcDbSavedByObjectVersion
1070
     0
  0
ACAD_PROXY_OBJECT
  5
42
102
{ACAD_REACTORS
330
2A
102
}
330
2A
100
AcDbProxyObject
 90
      499
 91
      501
 93
      420
310
4194DA1859195911B40902404333333333333E33F0000000000000F9010740A41107004050150800405405064090840C02480A0B40
1001
ACAD
1000
AcDbSavedByObjectVersion
1070
     0
  0
ACAD_PROXY_OBJECT
  5
41
102
{ACAD_REACTORS
330
2A
102
}
330
2A
100
AcDbProxyObject
 90
      499
 91
      501
 93
      516
310
4454DA18591959081DDA5D1A08195919D95CD1A40902404333333333333E33F0000000000000F901074090142907004050250800405405064090740C02480A0B40
1001
ACAD
1000
AcDbSavedByObjectVersion
1070
     0
  0
ACAD_PROXY_OBJECT
  5
3E
102
{ACAD_REACTORS
330
2A
102
}
330
2A
100
AcDbProxyObject
 90
      499
 91
      501
 93
      532
310
4394DA1859195CC81BD98811DC985E5174090240C333333333333E33F0000000000000F901079024090741D01000000000000111010841D405064090740C02480A0340
1001
ACAD
1000
AcDbSavedByObjectVersion
1070
     0
  0
ACAD_PROXY_OBJECT
  5
3F
102
{ACAD_REACTORS
330
2A
102
}
330
2A
100
AcDbProxyObject
 90
      499
 91
      501
 93
      476
310
41D4DAD95D18DA1E51840502408333333333333E33F0000000000000F901079024090741D01000000000000111010B41D405064090741802480A0340
1001
ACAD
1000
AcDbSavedByObjectVersion
1070
     0
  0
ACAD_PROXY_OBJECT
  5
37
102
{ACAD_REACTORS
330
2A
102
}
330
2A
100
AcDbProxyObject
 90
      499
 91
      501
 93
      412
310
41D51A1A58DAD95B90D409028333333333333E33F0000000000000F9010790141107004050150C41D405064090741402480A0350
1001
ACAD
1000
AcDbSavedByObjectVersion
1070
     0
  0
ACAD_PROXY_OBJECT
  5
30
102
{ACAD_REACTORS
330
2A
102
}
330
2A
100
AcDbProxyObject
 90
      499
 91
      501
 93
      420
310
4255DA5C99599C985B595059028333333333333E33F0000000000000F90107901411070040501600405405064090740C02480A0340
1001
ACAD
1000
AcDbSavedByObjectVersion
1070
     0
  0
ACAD_PROXY_OBJECT
  5
40
102
{ACAD_REACTORS
330
2A
102
}
330
2A
100
AcDbProxyObject
 90
      499
 91
      501
 93
      404
310
41560B54985E51940902404000000000000E03F0000000000000F9010740501907004050150841D405064090740C02480A1B40
1001
ACAD
1000
AcDbSavedByObjectVersion
1070
     0
  0
XRECORD
  5
2A6
102
{ACAD_REACTORS
330
29D
102
}
330
29D
100
AcDbXrecord
 90
        0
  0
XRECORD
  5
2BC
102
{ACAD_REACTORS
330
29D
102
}
330
29D
100
AcDbXrecord
1000
DSTYLE
1002
{
1070
   171
 70
     2
1070
   143
 40
25.4
1070
   274
 70
     2
1070
    41
 40
0.18
1070
   141
 40
0.09
1070
   271
 70
     4
1070
    43
 40
0.38
1070
   278
 70
    46
1070
    44
 40
0.18
1070
    42
 40
0.0625
1070
   147
 40
0.09
1070
    77
 70
     0
1070
   272
 70
     4
1070
    73
 70
     1
1070
   172
 70
     0
1070
    74
 70
     1
1070
   283
 70
     1
1070
   340
340
11
1070
   140
 40
0.18
1070
   284
 70
     0
1070
    78
 70
     0
1002
}
  0
XRECORD
  5
2A7
102
{ACAD_REACTORS
330
29D
102
}
330
29D
100
AcDbXrecord
  1
{42906270-CCB6-43E8-8AF4-008F0707527E}
  0
XRECORD
  5
2A0
102
{ACAD_REACTORS
330
29D
102
}
330
29D
100
AcDbXrecord
  1

  0
XRECORD
  5
2A5
102
{ACAD_REACTORS
330
29D
102
}
330
29D
100
AcDbXrecord
 90
        4
  0
XRECORD
  5
2A2
102
{ACAD_REACTORS
330
29D
102
}
330
29D
100
AcDbXrecord
340
1A
  0
XRECORD
  5
2A4
102
{ACAD_REACTORS
330
29D
102
}
330
29D
100
AcDbXrecord
 90
    10781
  0
XRECORD
  5
2A3
102
{ACAD_REACTORS
330
29D
102
}
330
29D
100
AcDbXrecord
340
19
  0
XRECORD
  5
2A9
102
{ACAD_REACTORS
330
29D
102
}
330
29D
100
AcDbXrecord
 40
0.0
  0
XRECORD
  5
2AC
102
{ACAD_REACTORS
330
29D
102
}
330
29D
100
AcDbXrecord
340
0
  0
XRECORD
  5
2B2
102
{ACAD_REACTORS
330
29D
102
}
330
29D
100
AcDbXrecord
 10
0.0
 20
0.0
 30
0.0
  0
XRECORD
  5
2AE
102
{ACAD_REACTORS
330
29D
102
}
330
29D
100
AcDbXrecord
 10
0.0
 20
0.0
 30
0.0
  0
XRECORD
  5
2B1
102
{ACAD_REACTORS
330
29D
102
}
330
29D
100
AcDbXrecord
 10
0.0
 20
0.0
 30
0.0
  0
XRECORD
  5
2AF
102
{ACAD_REACTORS
330
29D
102
}
330
29D
100
AcDbXrecord
 10
0.0
 20
0.0
 30
0.0
  0
XRECORD
  5
2B0
102
{ACAD_REACTORS
330
29D
102
}
330
29D
100
AcDbXrecord
 10
0.0
 20
0.0
 30
0.0
  0
XRECORD
  5
2AD
102
{ACAD_REACTORS
330
29D
102
}
330
29D
100
AcDbXrecord
 10
0.0
 20
0.0
 30
0.0
  0
XRECORD
  5
2AA
102
{ACAD_REACTORS
330
29D
102
}
330
29D
100
AcDbXrecord
340
0
  0
XRECORD
  5
2AB
102
{ACAD_REACTORS
330
29D
102
}
330
29D
100
AcDbXrecord
 70
     0
  0
XRECORD
  5
2A1
102
{ACAD_REACTORS
330
29D
102
}
330
29D
100
AcDbXrecord
  1

  0
XRECORD
  5
29E
102
{ACAD_REACTORS
330
29D
102
}
330
29D
100
AcDbXrecord
 90
        1
  0
XRECORD
  5
29F
102
{ACAD_REACTORS
330
29D
102
}
330
29D
100
AcDbXrecord
 90
       70
  0
XRECORD
  5
2B5
102
{ACAD_REACTORS
330
29D
102
}
330
29D
100
AcDbXrecord
340
0
  0
XRECORD
  5
2BB
102
{ACAD_REACTORS
330
29D
102
}
330
29D
100
AcDbXrecord
 10
0.0
 20
0.0
 30
0.0
  0
XRECORD
  5
2B7
102
{ACAD_REACTORS
330
29D
102
}
330
29D
100
AcDbXrecord
 10
0.0
 20
0.0
 30
0.0
  0
XRECORD
  5
2BA
102
{ACAD_REACTORS
330
29D
102
}
330
29D
100
AcDbXrecord
 10
0.0
 20
0.0
 30
0.0
  0
XRECORD
  5
2B8
102
{ACAD_REACTORS
330
29D
102
}
330
29D
100
AcDbXrecord
 10
0.0
 20
0.0
 30
0.0
  0
XRECORD
  5
2B9
102
{ACAD_REACTORS
330
29D
102
}
330
29D
100
AcDbXrecord
 10
0.0
 20
0.0
 30
0.0
  0
XRECORD
  5
2B6
102
{ACAD_REACTORS
330
29D
102
}
330
29D
100
AcDbXrecord
 10
0.0
 20
0.0
 30
0.0
  0
XRECORD
  5
2B3
102
{ACAD_REACTORS
330
29D
102
}
330
29D
100
AcDbXrecord
340
0
  0
XRECORD
  5
2B4
102
{ACAD_REACTORS
330
29D
102
}
330
29D
100
AcDbXrecord
 70
     0
  0
XRECORD
  5
2A8
102
{ACAD_REACTORS
330
29D
102
}
330
29D
100
AcDbXrecord
  1
{FAEB1C32-E019-11D5-929B-00C0DF256EC4}
  0
DICTIONARYVAR
  5
2C6
102
{ACAD_REACTORS
330
2BD
102
}
330
2BD
100
DictionaryVariables
280
     0
  1
1:1
  0
DICTIONARYVAR
  5
2C2
102
{ACAD_REACTORS
330
2BD
102
}
330
2BD
100
DictionaryVariables
280
     0
  1
2
  0
DICTIONARYVAR
  5
2C3
102
{ACAD_REACTORS
330
2BD
102
}
330
2BD
100
DictionaryVariables
280
     0
  1
1
  0
DICTIONARYVAR
  5
2C7
102
{ACAD_REACTORS
330
2BD
102
}
330
2BD
100
DictionaryVariables
280
     0
  1
1
  0
DICTIONARY
  5
2CA
330
45
100
AcDbDictionary
280
     1
  3
ACAD_XREC_ROUNDTRIP
360
2CB
  0
DICTIONARY
  5
2C8
330
44
100
AcDbDictionary
280
     1
  3
ACAD_XREC_ROUNDTRIP
360
2C9
  0
DICTIONARY
  5
2CC
330
46
100
AcDbDictionary
280
     1
  3
ACAD_XREC_ROUNDTRIP
360
2CD
  0
XRECORD
  5
2CB
102
{ACAD_REACTORS
330
2CA
102
}
330
2CA
100
AcDbXrecord
102
MATERIAL
148
0.0
149
0.0
149
0.0
 93
        0
 94
      127
282
     0
 72
     1
 77
     1
171
     1
175
     1
179
     1
273
     0
  0
XRECORD
  5
2C9
102
{ACAD_REACTORS
330
2C8
102
}
330
2C8
100
AcDbXrecord
102
MATERIAL
148
0.0
149
0.0
149
0.0
 93
        0
 94
      127
282
     0
 72
     1
 77
     1
171
     1
175
     1
179
     1
273
     0
  0
XRECORD
  5
2CD
102
{ACAD_REACTORS
330
2CC
102
}
330
2CC
100
AcDbXrecord
102
MATERIAL
148
0.0
149
0.0
149
0.0
 93
        0
 94
      127
282
     0
 72
     1
 77
     1
171
     1
175
     1
179
     1
273
     0
  0
ENDSEC
  0
EOF
